G04*
G04 #@! TF.GenerationSoftware,Altium Limited,Altium Designer,22.3.1 (43)*
G04*
G04 Layer_Color=8421504*
%FSLAX43Y43*%
%MOMM*%
G71*
G04*
G04 #@! TF.SameCoordinates,A7882174-668A-4C85-9E38-10F84BEF39C3*
G04*
G04*
G04 #@! TF.FilePolarity,Positive*
G04*
G01*
G75*
%ADD10C,1.000*%
G04:AMPARAMS|DCode=13|XSize=1.01mm|YSize=1.73mm|CornerRadius=0.253mm|HoleSize=0mm|Usage=FLASHONLY|Rotation=180.000|XOffset=0mm|YOffset=0mm|HoleType=Round|Shape=RoundedRectangle|*
%AMROUNDEDRECTD13*
21,1,1.010,1.225,0,0,180.0*
21,1,0.505,1.730,0,0,180.0*
1,1,0.505,-0.253,0.613*
1,1,0.505,0.253,0.613*
1,1,0.505,0.253,-0.613*
1,1,0.505,-0.253,-0.613*
%
%ADD13ROUNDEDRECTD13*%
G04:AMPARAMS|DCode=14|XSize=1.9mm|YSize=0.6mm|CornerRadius=0.156mm|HoleSize=0mm|Usage=FLASHONLY|Rotation=270.000|XOffset=0mm|YOffset=0mm|HoleType=Round|Shape=RoundedRectangle|*
%AMROUNDEDRECTD14*
21,1,1.900,0.288,0,0,270.0*
21,1,1.588,0.600,0,0,270.0*
1,1,0.312,-0.144,-0.794*
1,1,0.312,-0.144,0.794*
1,1,0.312,0.144,0.794*
1,1,0.312,0.144,-0.794*
%
%ADD14ROUNDEDRECTD14*%
G04:AMPARAMS|DCode=15|XSize=2.8mm|YSize=2.1mm|CornerRadius=0.546mm|HoleSize=0mm|Usage=FLASHONLY|Rotation=270.000|XOffset=0mm|YOffset=0mm|HoleType=Round|Shape=RoundedRectangle|*
%AMROUNDEDRECTD15*
21,1,2.800,1.008,0,0,270.0*
21,1,1.708,2.100,0,0,270.0*
1,1,1.092,-0.504,-0.854*
1,1,1.092,-0.504,0.854*
1,1,1.092,0.504,0.854*
1,1,1.092,0.504,-0.854*
%
%ADD15ROUNDEDRECTD15*%
G04:AMPARAMS|DCode=16|XSize=0.68mm|YSize=0.7mm|CornerRadius=0.17mm|HoleSize=0mm|Usage=FLASHONLY|Rotation=0.000|XOffset=0mm|YOffset=0mm|HoleType=Round|Shape=RoundedRectangle|*
%AMROUNDEDRECTD16*
21,1,0.680,0.360,0,0,0.0*
21,1,0.340,0.700,0,0,0.0*
1,1,0.340,0.170,-0.180*
1,1,0.340,-0.170,-0.180*
1,1,0.340,-0.170,0.180*
1,1,0.340,0.170,0.180*
%
%ADD16ROUNDEDRECTD16*%
G04:AMPARAMS|DCode=17|XSize=0.95mm|YSize=1.02mm|CornerRadius=0.242mm|HoleSize=0mm|Usage=FLASHONLY|Rotation=270.000|XOffset=0mm|YOffset=0mm|HoleType=Round|Shape=RoundedRectangle|*
%AMROUNDEDRECTD17*
21,1,0.950,0.535,0,0,270.0*
21,1,0.466,1.020,0,0,270.0*
1,1,0.485,-0.268,-0.233*
1,1,0.485,-0.268,0.233*
1,1,0.485,0.268,0.233*
1,1,0.485,0.268,-0.233*
%
%ADD17ROUNDEDRECTD17*%
G04:AMPARAMS|DCode=18|XSize=0.95mm|YSize=1.02mm|CornerRadius=0.242mm|HoleSize=0mm|Usage=FLASHONLY|Rotation=0.000|XOffset=0mm|YOffset=0mm|HoleType=Round|Shape=RoundedRectangle|*
%AMROUNDEDRECTD18*
21,1,0.950,0.535,0,0,0.0*
21,1,0.466,1.020,0,0,0.0*
1,1,0.485,0.233,-0.268*
1,1,0.485,-0.233,-0.268*
1,1,0.485,-0.233,0.268*
1,1,0.485,0.233,0.268*
%
%ADD18ROUNDEDRECTD18*%
G04:AMPARAMS|DCode=19|XSize=0.57mm|YSize=0.58mm|CornerRadius=0.14mm|HoleSize=0mm|Usage=FLASHONLY|Rotation=90.000|XOffset=0mm|YOffset=0mm|HoleType=Round|Shape=RoundedRectangle|*
%AMROUNDEDRECTD19*
21,1,0.570,0.301,0,0,90.0*
21,1,0.291,0.580,0,0,90.0*
1,1,0.279,0.150,0.145*
1,1,0.279,0.150,-0.145*
1,1,0.279,-0.150,-0.145*
1,1,0.279,-0.150,0.145*
%
%ADD19ROUNDEDRECTD19*%
G04:AMPARAMS|DCode=20|XSize=0.68mm|YSize=0.7mm|CornerRadius=0.17mm|HoleSize=0mm|Usage=FLASHONLY|Rotation=270.000|XOffset=0mm|YOffset=0mm|HoleType=Round|Shape=RoundedRectangle|*
%AMROUNDEDRECTD20*
21,1,0.680,0.360,0,0,270.0*
21,1,0.340,0.700,0,0,270.0*
1,1,0.340,-0.180,-0.170*
1,1,0.340,-0.180,0.170*
1,1,0.340,0.180,0.170*
1,1,0.340,0.180,-0.170*
%
%ADD20ROUNDEDRECTD20*%
G04:AMPARAMS|DCode=21|XSize=0.61mm|YSize=0.28mm|CornerRadius=0.07mm|HoleSize=0mm|Usage=FLASHONLY|Rotation=270.000|XOffset=0mm|YOffset=0mm|HoleType=Round|Shape=RoundedRectangle|*
%AMROUNDEDRECTD21*
21,1,0.610,0.140,0,0,270.0*
21,1,0.470,0.280,0,0,270.0*
1,1,0.140,-0.070,-0.235*
1,1,0.140,-0.070,0.235*
1,1,0.140,0.070,0.235*
1,1,0.140,0.070,-0.235*
%
%ADD21ROUNDEDRECTD21*%
%ADD22R,1.600X0.900*%
G04:AMPARAMS|DCode=23|XSize=1.18mm|YSize=0.62mm|CornerRadius=0.161mm|HoleSize=0mm|Usage=FLASHONLY|Rotation=270.000|XOffset=0mm|YOffset=0mm|HoleType=Round|Shape=RoundedRectangle|*
%AMROUNDEDRECTD23*
21,1,1.180,0.298,0,0,270.0*
21,1,0.858,0.620,0,0,270.0*
1,1,0.322,-0.149,-0.429*
1,1,0.322,-0.149,0.429*
1,1,0.322,0.149,0.429*
1,1,0.322,0.149,-0.429*
%
%ADD23ROUNDEDRECTD23*%
%ADD29C,0.300*%
D10*
X15000Y100000D02*
D03*
X147000D02*
D03*
Y4000D02*
D03*
X15000D02*
D03*
D13*
X11840Y18000D02*
D03*
X14760D02*
D03*
X12840Y29850D02*
D03*
X15760D02*
D03*
X12840Y27650D02*
D03*
X15760D02*
D03*
X17190Y25300D02*
D03*
X20110D02*
D03*
X17190Y27600D02*
D03*
X20110D02*
D03*
X17190Y20700D02*
D03*
X20110D02*
D03*
X21540Y25200D02*
D03*
X24460D02*
D03*
X21540Y23000D02*
D03*
X24460D02*
D03*
X21540Y20800D02*
D03*
X24460D02*
D03*
X30240Y27650D02*
D03*
X33160D02*
D03*
X25890Y20700D02*
D03*
X28810D02*
D03*
X25890Y27600D02*
D03*
X28810D02*
D03*
X25890Y25300D02*
D03*
X28810D02*
D03*
X31240Y18000D02*
D03*
X34160D02*
D03*
X30240Y29850D02*
D03*
X33160D02*
D03*
X40840Y18000D02*
D03*
X43760D02*
D03*
X41840Y29850D02*
D03*
X44760D02*
D03*
X41840Y27650D02*
D03*
X44760D02*
D03*
X46190Y25300D02*
D03*
X49110D02*
D03*
X46190Y27600D02*
D03*
X49110D02*
D03*
X46190Y20700D02*
D03*
X49110D02*
D03*
X50540Y25200D02*
D03*
X53460D02*
D03*
X50540Y23000D02*
D03*
X53460D02*
D03*
X50540Y20800D02*
D03*
X53460D02*
D03*
X59240Y27650D02*
D03*
X62160D02*
D03*
X54890Y20700D02*
D03*
X57810D02*
D03*
X54890Y27600D02*
D03*
X57810D02*
D03*
X54890Y25300D02*
D03*
X57810D02*
D03*
X60240Y18000D02*
D03*
X63160D02*
D03*
X59240Y29850D02*
D03*
X62160D02*
D03*
X69840Y18000D02*
D03*
X72760D02*
D03*
X70840Y29850D02*
D03*
X73760D02*
D03*
X70840Y27650D02*
D03*
X73760D02*
D03*
X75190Y25300D02*
D03*
X78110D02*
D03*
X75190Y27600D02*
D03*
X78110D02*
D03*
X75190Y20700D02*
D03*
X78110D02*
D03*
X79540Y25200D02*
D03*
X82460D02*
D03*
X79540Y23000D02*
D03*
X82460D02*
D03*
X79540Y20800D02*
D03*
X82460D02*
D03*
X88240Y27650D02*
D03*
X91160D02*
D03*
X83890Y20700D02*
D03*
X86810D02*
D03*
X83890Y27600D02*
D03*
X86810D02*
D03*
X83890Y25300D02*
D03*
X86810D02*
D03*
X89240Y18000D02*
D03*
X92160D02*
D03*
X88240Y29850D02*
D03*
X91160D02*
D03*
X98840Y18000D02*
D03*
X101760D02*
D03*
X99840Y29850D02*
D03*
X102760D02*
D03*
X99840Y27650D02*
D03*
X102760D02*
D03*
X104190Y25300D02*
D03*
X107110D02*
D03*
X104190Y27600D02*
D03*
X107110D02*
D03*
X104190Y20700D02*
D03*
X107110D02*
D03*
X108540Y25200D02*
D03*
X111460D02*
D03*
X108540Y23000D02*
D03*
X111460D02*
D03*
X108540Y20800D02*
D03*
X111460D02*
D03*
X117240Y27650D02*
D03*
X120160D02*
D03*
X112890Y20700D02*
D03*
X115810D02*
D03*
X112890Y27600D02*
D03*
X115810D02*
D03*
X112890Y25300D02*
D03*
X115810D02*
D03*
X118240Y18000D02*
D03*
X121160D02*
D03*
X117240Y29850D02*
D03*
X120160D02*
D03*
X127840Y18000D02*
D03*
X130760D02*
D03*
X128840Y29850D02*
D03*
X131760D02*
D03*
X128840Y27650D02*
D03*
X131760D02*
D03*
X133190Y25300D02*
D03*
X136110D02*
D03*
X133190Y27600D02*
D03*
X136110D02*
D03*
X133190Y20700D02*
D03*
X136110D02*
D03*
X137540Y25200D02*
D03*
X140460D02*
D03*
X137540Y23000D02*
D03*
X140460D02*
D03*
X137540Y20800D02*
D03*
X140460D02*
D03*
X146240Y27650D02*
D03*
X149160D02*
D03*
X141890Y20700D02*
D03*
X144810D02*
D03*
X141890Y27600D02*
D03*
X144810D02*
D03*
X141890Y25300D02*
D03*
X144810D02*
D03*
X147240Y18000D02*
D03*
X150160D02*
D03*
X146240Y29850D02*
D03*
X149160D02*
D03*
X11840Y47000D02*
D03*
X14760D02*
D03*
X12840Y58850D02*
D03*
X15760D02*
D03*
X12840Y56650D02*
D03*
X15760D02*
D03*
X17190Y54300D02*
D03*
X20110D02*
D03*
X17190Y56600D02*
D03*
X20110D02*
D03*
X17190Y49700D02*
D03*
X20110D02*
D03*
X21540Y54200D02*
D03*
X24460D02*
D03*
X21540Y52000D02*
D03*
X24460D02*
D03*
X21540Y49800D02*
D03*
X24460D02*
D03*
X30240Y56650D02*
D03*
X33160D02*
D03*
X25890Y49700D02*
D03*
X28810D02*
D03*
X25890Y56600D02*
D03*
X28810D02*
D03*
X25890Y54300D02*
D03*
X28810D02*
D03*
X31240Y47000D02*
D03*
X34160D02*
D03*
X30240Y58850D02*
D03*
X33160D02*
D03*
X40840Y47000D02*
D03*
X43760D02*
D03*
X41840Y58850D02*
D03*
X44760D02*
D03*
X41840Y56650D02*
D03*
X44760D02*
D03*
X46190Y54300D02*
D03*
X49110D02*
D03*
X46190Y56600D02*
D03*
X49110D02*
D03*
X46190Y49700D02*
D03*
X49110D02*
D03*
X50540Y54200D02*
D03*
X53460D02*
D03*
X50540Y52000D02*
D03*
X53460D02*
D03*
X50540Y49800D02*
D03*
X53460D02*
D03*
X59240Y56650D02*
D03*
X62160D02*
D03*
X54890Y49700D02*
D03*
X57810D02*
D03*
X54890Y56600D02*
D03*
X57810D02*
D03*
X54890Y54300D02*
D03*
X57810D02*
D03*
X60240Y47000D02*
D03*
X63160D02*
D03*
X59240Y58850D02*
D03*
X62160D02*
D03*
X69840Y47000D02*
D03*
X72760D02*
D03*
X70840Y58850D02*
D03*
X73760D02*
D03*
X70840Y56650D02*
D03*
X73760D02*
D03*
X75190Y54300D02*
D03*
X78110D02*
D03*
X75190Y56600D02*
D03*
X78110D02*
D03*
X75190Y49700D02*
D03*
X78110D02*
D03*
X79540Y54200D02*
D03*
X82460D02*
D03*
X79540Y52000D02*
D03*
X82460D02*
D03*
X79540Y49800D02*
D03*
X82460D02*
D03*
X88240Y56650D02*
D03*
X91160D02*
D03*
X83890Y49700D02*
D03*
X86810D02*
D03*
X83890Y56600D02*
D03*
X86810D02*
D03*
X83890Y54300D02*
D03*
X86810D02*
D03*
X89240Y47000D02*
D03*
X92160D02*
D03*
X88240Y58850D02*
D03*
X91160D02*
D03*
X98840Y47000D02*
D03*
X101760D02*
D03*
X99840Y58850D02*
D03*
X102760D02*
D03*
X99840Y56650D02*
D03*
X102760D02*
D03*
X104190Y54300D02*
D03*
X107110D02*
D03*
X104190Y56600D02*
D03*
X107110D02*
D03*
X104190Y49700D02*
D03*
X107110D02*
D03*
X108540Y54200D02*
D03*
X111460D02*
D03*
X108540Y52000D02*
D03*
X111460D02*
D03*
X108540Y49800D02*
D03*
X111460D02*
D03*
X117240Y56650D02*
D03*
X120160D02*
D03*
X112890Y49700D02*
D03*
X115810D02*
D03*
X112890Y56600D02*
D03*
X115810D02*
D03*
X112890Y54300D02*
D03*
X115810D02*
D03*
X118240Y47000D02*
D03*
X121160D02*
D03*
X117240Y58850D02*
D03*
X120160D02*
D03*
X127840Y47000D02*
D03*
X130760D02*
D03*
X128840Y58850D02*
D03*
X131760D02*
D03*
X128840Y56650D02*
D03*
X131760D02*
D03*
X133190Y54300D02*
D03*
X136110D02*
D03*
X133190Y56600D02*
D03*
X136110D02*
D03*
X133190Y49700D02*
D03*
X136110D02*
D03*
X137540Y54200D02*
D03*
X140460D02*
D03*
X137540Y52000D02*
D03*
X140460D02*
D03*
X137540Y49800D02*
D03*
X140460D02*
D03*
X146240Y56650D02*
D03*
X149160D02*
D03*
X141890Y49700D02*
D03*
X144810D02*
D03*
X141890Y56600D02*
D03*
X144810D02*
D03*
X141890Y54300D02*
D03*
X144810D02*
D03*
X147240Y47000D02*
D03*
X150160D02*
D03*
X146240Y58850D02*
D03*
X149160D02*
D03*
X11840Y76000D02*
D03*
X14760D02*
D03*
X12840Y87850D02*
D03*
X15760D02*
D03*
X12840Y85650D02*
D03*
X15760D02*
D03*
X17190Y83300D02*
D03*
X20110D02*
D03*
X17190Y85600D02*
D03*
X20110D02*
D03*
X17190Y78700D02*
D03*
X20110D02*
D03*
X21540Y83200D02*
D03*
X24460D02*
D03*
X21540Y81000D02*
D03*
X24460D02*
D03*
X21540Y78800D02*
D03*
X24460D02*
D03*
X30240Y85650D02*
D03*
X33160D02*
D03*
X25890Y78700D02*
D03*
X28810D02*
D03*
X25890Y85600D02*
D03*
X28810D02*
D03*
X25890Y83300D02*
D03*
X28810D02*
D03*
X31240Y76000D02*
D03*
X34160D02*
D03*
X30240Y87850D02*
D03*
X33160D02*
D03*
X40840Y76000D02*
D03*
X43760D02*
D03*
X41840Y87850D02*
D03*
X44760D02*
D03*
X41840Y85650D02*
D03*
X44760D02*
D03*
X46190Y83300D02*
D03*
X49110D02*
D03*
X46190Y85600D02*
D03*
X49110D02*
D03*
X46190Y78700D02*
D03*
X49110D02*
D03*
X50540Y83200D02*
D03*
X53460D02*
D03*
X50540Y81000D02*
D03*
X53460D02*
D03*
X50540Y78800D02*
D03*
X53460D02*
D03*
X59240Y85650D02*
D03*
X62160D02*
D03*
X54890Y78700D02*
D03*
X57810D02*
D03*
X54890Y85600D02*
D03*
X57810D02*
D03*
X54890Y83300D02*
D03*
X57810D02*
D03*
X60240Y76000D02*
D03*
X63160D02*
D03*
X59240Y87850D02*
D03*
X62160D02*
D03*
X69840Y76000D02*
D03*
X72760D02*
D03*
X70840Y87850D02*
D03*
X73760D02*
D03*
X70840Y85650D02*
D03*
X73760D02*
D03*
X75190Y83300D02*
D03*
X78110D02*
D03*
X75190Y85600D02*
D03*
X78110D02*
D03*
X75190Y78700D02*
D03*
X78110D02*
D03*
X79540Y83200D02*
D03*
X82460D02*
D03*
X79540Y81000D02*
D03*
X82460D02*
D03*
X79540Y78800D02*
D03*
X82460D02*
D03*
X88240Y85650D02*
D03*
X91160D02*
D03*
X83890Y78700D02*
D03*
X86810D02*
D03*
X83890Y85600D02*
D03*
X86810D02*
D03*
X83890Y83300D02*
D03*
X86810D02*
D03*
X89240Y76000D02*
D03*
X92160D02*
D03*
X88240Y87850D02*
D03*
X91160D02*
D03*
X98840Y76000D02*
D03*
X101760D02*
D03*
X99840Y87850D02*
D03*
X102760D02*
D03*
X99840Y85650D02*
D03*
X102760D02*
D03*
X104190Y83300D02*
D03*
X107110D02*
D03*
X104190Y85600D02*
D03*
X107110D02*
D03*
X104190Y78700D02*
D03*
X107110D02*
D03*
X108540Y83200D02*
D03*
X111460D02*
D03*
X108540Y81000D02*
D03*
X111460D02*
D03*
X108540Y78800D02*
D03*
X111460D02*
D03*
X117240Y85650D02*
D03*
X120160D02*
D03*
X112890Y78700D02*
D03*
X115810D02*
D03*
X112890Y85600D02*
D03*
X115810D02*
D03*
X112890Y83300D02*
D03*
X115810D02*
D03*
X118240Y76000D02*
D03*
X121160D02*
D03*
X117240Y87850D02*
D03*
X120160D02*
D03*
X127840Y76000D02*
D03*
X130760D02*
D03*
X128840Y87850D02*
D03*
X131760D02*
D03*
X128840Y85650D02*
D03*
X131760D02*
D03*
X133190Y83300D02*
D03*
X136110D02*
D03*
X133190Y85600D02*
D03*
X136110D02*
D03*
X133190Y78700D02*
D03*
X136110D02*
D03*
X137540Y83200D02*
D03*
X140460D02*
D03*
X137540Y81000D02*
D03*
X140460D02*
D03*
X137540Y78800D02*
D03*
X140460D02*
D03*
X146240Y85650D02*
D03*
X149160D02*
D03*
X141890Y78700D02*
D03*
X144810D02*
D03*
X141890Y85600D02*
D03*
X144810D02*
D03*
X141890Y83300D02*
D03*
X144810D02*
D03*
X147240Y76000D02*
D03*
X150160D02*
D03*
X146240Y87850D02*
D03*
X149160D02*
D03*
D14*
X20000Y17650D02*
D03*
X21000D02*
D03*
X22000Y17650D02*
D03*
X23000D02*
D03*
X24000D02*
D03*
X25000D02*
D03*
X26000Y17650D02*
D03*
X49000D02*
D03*
X50000D02*
D03*
X51000Y17650D02*
D03*
X52000D02*
D03*
X53000D02*
D03*
X54000D02*
D03*
X55000Y17650D02*
D03*
X78000D02*
D03*
X79000D02*
D03*
X80000Y17650D02*
D03*
X81000D02*
D03*
X82000D02*
D03*
X83000D02*
D03*
X84000Y17650D02*
D03*
X107000D02*
D03*
X108000D02*
D03*
X109000Y17650D02*
D03*
X110000D02*
D03*
X111000D02*
D03*
X112000D02*
D03*
X113000Y17650D02*
D03*
X136000D02*
D03*
X137000D02*
D03*
X138000Y17650D02*
D03*
X139000D02*
D03*
X140000D02*
D03*
X141000D02*
D03*
X142000Y17650D02*
D03*
X20000Y46650D02*
D03*
X21000D02*
D03*
X22000Y46650D02*
D03*
X23000D02*
D03*
X24000D02*
D03*
X25000D02*
D03*
X26000Y46650D02*
D03*
X49000D02*
D03*
X50000D02*
D03*
X51000Y46650D02*
D03*
X52000D02*
D03*
X53000D02*
D03*
X54000D02*
D03*
X55000Y46650D02*
D03*
X78000D02*
D03*
X79000D02*
D03*
X80000Y46650D02*
D03*
X81000D02*
D03*
X82000D02*
D03*
X83000D02*
D03*
X84000Y46650D02*
D03*
X107000D02*
D03*
X108000D02*
D03*
X109000Y46650D02*
D03*
X110000D02*
D03*
X111000D02*
D03*
X112000D02*
D03*
X113000Y46650D02*
D03*
X136000D02*
D03*
X137000D02*
D03*
X138000Y46650D02*
D03*
X139000D02*
D03*
X140000D02*
D03*
X141000D02*
D03*
X142000Y46650D02*
D03*
X20000Y75650D02*
D03*
X21000D02*
D03*
X22000Y75650D02*
D03*
X23000D02*
D03*
X24000D02*
D03*
X25000D02*
D03*
X26000Y75650D02*
D03*
X49000D02*
D03*
X50000D02*
D03*
X51000Y75650D02*
D03*
X52000D02*
D03*
X53000D02*
D03*
X54000D02*
D03*
X55000Y75650D02*
D03*
X78000D02*
D03*
X79000D02*
D03*
X80000Y75650D02*
D03*
X81000D02*
D03*
X82000D02*
D03*
X83000D02*
D03*
X84000Y75650D02*
D03*
X107000D02*
D03*
X108000D02*
D03*
X109000Y75650D02*
D03*
X110000D02*
D03*
X111000D02*
D03*
X112000D02*
D03*
X113000Y75650D02*
D03*
X136000D02*
D03*
X137000D02*
D03*
X138000Y75650D02*
D03*
X139000D02*
D03*
X140000D02*
D03*
X141000D02*
D03*
X142000Y75650D02*
D03*
D15*
X16850Y15300D02*
D03*
X29150Y15300D02*
D03*
X45850Y15300D02*
D03*
X58150Y15300D02*
D03*
X74850Y15300D02*
D03*
X87150Y15300D02*
D03*
X103850Y15300D02*
D03*
X116150Y15300D02*
D03*
X132850Y15300D02*
D03*
X145150Y15300D02*
D03*
X16850Y44300D02*
D03*
X29150Y44300D02*
D03*
X45850Y44300D02*
D03*
X58150Y44300D02*
D03*
X74850Y44300D02*
D03*
X87150Y44300D02*
D03*
X103850Y44300D02*
D03*
X116150Y44300D02*
D03*
X132850Y44300D02*
D03*
X145150Y44300D02*
D03*
X16850Y73300D02*
D03*
X29150Y73300D02*
D03*
X45850Y73300D02*
D03*
X58150Y73300D02*
D03*
X74850Y73300D02*
D03*
X87150Y73300D02*
D03*
X103850Y73300D02*
D03*
X116150Y73300D02*
D03*
X132850Y73300D02*
D03*
X145150Y73300D02*
D03*
D16*
X20720Y30300D02*
D03*
X19780D02*
D03*
X49720D02*
D03*
X48780D02*
D03*
X78720D02*
D03*
X77780D02*
D03*
X107720D02*
D03*
X106780D02*
D03*
X136720D02*
D03*
X135780D02*
D03*
X20720Y59300D02*
D03*
X19780D02*
D03*
X49720D02*
D03*
X48780D02*
D03*
X78720D02*
D03*
X77780D02*
D03*
X107720D02*
D03*
X106780D02*
D03*
X136720D02*
D03*
X135780D02*
D03*
X20720Y88300D02*
D03*
X19780D02*
D03*
X49720D02*
D03*
X48780D02*
D03*
X78720D02*
D03*
X77780D02*
D03*
X107720D02*
D03*
X106780D02*
D03*
X136720D02*
D03*
X135780D02*
D03*
D17*
X24125Y33165D02*
D03*
Y34635D02*
D03*
X53125Y33165D02*
D03*
Y34635D02*
D03*
X82125Y33165D02*
D03*
Y34635D02*
D03*
X111125Y33165D02*
D03*
Y34635D02*
D03*
X140125Y33165D02*
D03*
Y34635D02*
D03*
X24125Y62165D02*
D03*
Y63635D02*
D03*
X53125Y62165D02*
D03*
Y63635D02*
D03*
X82125Y62165D02*
D03*
Y63635D02*
D03*
X111125Y62165D02*
D03*
Y63635D02*
D03*
X140125Y62165D02*
D03*
Y63635D02*
D03*
X24125Y91165D02*
D03*
Y92635D02*
D03*
X53125Y91165D02*
D03*
Y92635D02*
D03*
X82125Y91165D02*
D03*
Y92635D02*
D03*
X111125Y91165D02*
D03*
Y92635D02*
D03*
X140125Y91165D02*
D03*
Y92635D02*
D03*
D18*
X20360Y31600D02*
D03*
X18890D02*
D03*
X49360D02*
D03*
X47890D02*
D03*
X78360D02*
D03*
X76890D02*
D03*
X107360D02*
D03*
X105890D02*
D03*
X136360D02*
D03*
X134890D02*
D03*
X20360Y60600D02*
D03*
X18890D02*
D03*
X49360D02*
D03*
X47890D02*
D03*
X78360D02*
D03*
X76890D02*
D03*
X107360D02*
D03*
X105890D02*
D03*
X136360D02*
D03*
X134890D02*
D03*
X20360Y89600D02*
D03*
X18890D02*
D03*
X49360D02*
D03*
X47890D02*
D03*
X78360D02*
D03*
X76890D02*
D03*
X107360D02*
D03*
X105890D02*
D03*
X136360D02*
D03*
X134890D02*
D03*
D19*
X29000Y33495D02*
D03*
Y32565D02*
D03*
X29900Y32965D02*
D03*
Y32035D02*
D03*
X58000Y33495D02*
D03*
Y32565D02*
D03*
X58900Y32965D02*
D03*
Y32035D02*
D03*
X87000Y33495D02*
D03*
Y32565D02*
D03*
X87900Y32965D02*
D03*
Y32035D02*
D03*
X116000Y33495D02*
D03*
Y32565D02*
D03*
X116900Y32965D02*
D03*
Y32035D02*
D03*
X145000Y33495D02*
D03*
Y32565D02*
D03*
X145900Y32965D02*
D03*
Y32035D02*
D03*
X29000Y62495D02*
D03*
Y61565D02*
D03*
X29900Y61965D02*
D03*
Y61035D02*
D03*
X58000Y62495D02*
D03*
Y61565D02*
D03*
X58900Y61965D02*
D03*
Y61035D02*
D03*
X87000Y62495D02*
D03*
Y61565D02*
D03*
X87900Y61965D02*
D03*
Y61035D02*
D03*
X116000Y62495D02*
D03*
Y61565D02*
D03*
X116900Y61965D02*
D03*
Y61035D02*
D03*
X145000Y62495D02*
D03*
Y61565D02*
D03*
X145900Y61965D02*
D03*
Y61035D02*
D03*
X29000Y91495D02*
D03*
Y90565D02*
D03*
X29900Y90965D02*
D03*
Y90035D02*
D03*
X58000Y91495D02*
D03*
Y90565D02*
D03*
X58900Y90965D02*
D03*
Y90035D02*
D03*
X87000Y91495D02*
D03*
Y90565D02*
D03*
X87900Y90965D02*
D03*
Y90035D02*
D03*
X116000Y91495D02*
D03*
Y90565D02*
D03*
X116900Y90965D02*
D03*
Y90035D02*
D03*
X145000Y91495D02*
D03*
Y90565D02*
D03*
X145900Y90965D02*
D03*
Y90035D02*
D03*
D20*
X25400Y33105D02*
D03*
Y34045D02*
D03*
X54400Y33105D02*
D03*
Y34045D02*
D03*
X83400Y33105D02*
D03*
Y34045D02*
D03*
X112400Y33105D02*
D03*
Y34045D02*
D03*
X141400Y33105D02*
D03*
Y34045D02*
D03*
X25400Y62105D02*
D03*
Y63045D02*
D03*
X54400Y62105D02*
D03*
Y63045D02*
D03*
X83400Y62105D02*
D03*
Y63045D02*
D03*
X112400Y62105D02*
D03*
Y63045D02*
D03*
X141400Y62105D02*
D03*
Y63045D02*
D03*
X25400Y91105D02*
D03*
Y92045D02*
D03*
X54400Y91105D02*
D03*
Y92045D02*
D03*
X83400Y91105D02*
D03*
Y92045D02*
D03*
X112400Y91105D02*
D03*
Y92045D02*
D03*
X141400Y91105D02*
D03*
Y92045D02*
D03*
D21*
X26475Y31570D02*
D03*
X26975D02*
D03*
X27475D02*
D03*
X27975D02*
D03*
Y33480D02*
D03*
X27475D02*
D03*
X26975D02*
D03*
X26475D02*
D03*
X55475Y31570D02*
D03*
X55975D02*
D03*
X56475D02*
D03*
X56975D02*
D03*
Y33480D02*
D03*
X56475D02*
D03*
X55975D02*
D03*
X55475D02*
D03*
X84475Y31570D02*
D03*
X84975D02*
D03*
X85475D02*
D03*
X85975D02*
D03*
Y33480D02*
D03*
X85475D02*
D03*
X84975D02*
D03*
X84475D02*
D03*
X113475Y31570D02*
D03*
X113975D02*
D03*
X114475D02*
D03*
X114975D02*
D03*
Y33480D02*
D03*
X114475D02*
D03*
X113975D02*
D03*
X113475D02*
D03*
X142475Y31570D02*
D03*
X142975D02*
D03*
X143475D02*
D03*
X143975D02*
D03*
Y33480D02*
D03*
X143475D02*
D03*
X142975D02*
D03*
X142475D02*
D03*
X26475Y60570D02*
D03*
X26975D02*
D03*
X27475D02*
D03*
X27975D02*
D03*
Y62480D02*
D03*
X27475D02*
D03*
X26975D02*
D03*
X26475D02*
D03*
X55475Y60570D02*
D03*
X55975D02*
D03*
X56475D02*
D03*
X56975D02*
D03*
Y62480D02*
D03*
X56475D02*
D03*
X55975D02*
D03*
X55475D02*
D03*
X84475Y60570D02*
D03*
X84975D02*
D03*
X85475D02*
D03*
X85975D02*
D03*
Y62480D02*
D03*
X85475D02*
D03*
X84975D02*
D03*
X84475D02*
D03*
X113475Y60570D02*
D03*
X113975D02*
D03*
X114475D02*
D03*
X114975D02*
D03*
Y62480D02*
D03*
X114475D02*
D03*
X113975D02*
D03*
X113475D02*
D03*
X142475Y60570D02*
D03*
X142975D02*
D03*
X143475D02*
D03*
X143975D02*
D03*
Y62480D02*
D03*
X143475D02*
D03*
X142975D02*
D03*
X142475D02*
D03*
X26475Y89570D02*
D03*
X26975D02*
D03*
X27475D02*
D03*
X27975D02*
D03*
Y91480D02*
D03*
X27475D02*
D03*
X26975D02*
D03*
X26475D02*
D03*
X55475Y89570D02*
D03*
X55975D02*
D03*
X56475D02*
D03*
X56975D02*
D03*
Y91480D02*
D03*
X56475D02*
D03*
X55975D02*
D03*
X55475D02*
D03*
X84475Y89570D02*
D03*
X84975D02*
D03*
X85475D02*
D03*
X85975D02*
D03*
Y91480D02*
D03*
X85475D02*
D03*
X84975D02*
D03*
X84475D02*
D03*
X113475Y89570D02*
D03*
X113975D02*
D03*
X114475D02*
D03*
X114975D02*
D03*
Y91480D02*
D03*
X114475D02*
D03*
X113975D02*
D03*
X113475D02*
D03*
X142475Y89570D02*
D03*
X142975D02*
D03*
X143475D02*
D03*
X143975D02*
D03*
Y91480D02*
D03*
X143475D02*
D03*
X142975D02*
D03*
X142475D02*
D03*
D22*
X27225Y32525D02*
D03*
X56225D02*
D03*
X85225D02*
D03*
X114225D02*
D03*
X143225D02*
D03*
X27225Y61525D02*
D03*
X56225D02*
D03*
X85225D02*
D03*
X114225D02*
D03*
X143225D02*
D03*
X27225Y90525D02*
D03*
X56225D02*
D03*
X85225D02*
D03*
X114225D02*
D03*
X143225D02*
D03*
D23*
X22050Y27240D02*
D03*
X23950D02*
D03*
X23000Y29310D02*
D03*
X51050Y27240D02*
D03*
X52950D02*
D03*
X52000Y29310D02*
D03*
X80050Y27240D02*
D03*
X81950D02*
D03*
X81000Y29310D02*
D03*
X109050Y27240D02*
D03*
X110950D02*
D03*
X110000Y29310D02*
D03*
X138050Y27240D02*
D03*
X139950D02*
D03*
X139000Y29310D02*
D03*
X22050Y56240D02*
D03*
X23950D02*
D03*
X23000Y58310D02*
D03*
X51050Y56240D02*
D03*
X52950D02*
D03*
X52000Y58310D02*
D03*
X80050Y56240D02*
D03*
X81950D02*
D03*
X81000Y58310D02*
D03*
X109050Y56240D02*
D03*
X110950D02*
D03*
X110000Y58310D02*
D03*
X138050Y56240D02*
D03*
X139950D02*
D03*
X139000Y58310D02*
D03*
X22050Y85240D02*
D03*
X23950D02*
D03*
X23000Y87310D02*
D03*
X51050Y85240D02*
D03*
X52950D02*
D03*
X52000Y87310D02*
D03*
X80050Y85240D02*
D03*
X81950D02*
D03*
X81000Y87310D02*
D03*
X109050Y85240D02*
D03*
X110950D02*
D03*
X110000Y87310D02*
D03*
X138050Y85240D02*
D03*
X139950D02*
D03*
X139000Y87310D02*
D03*
D29*
X13712Y20344D02*
G03*
X15656Y22288I-712J2656D01*
G01*
X10344D02*
G03*
X12288Y20344I2656J712D01*
G01*
Y25656D02*
G03*
X10344Y23712I712J-2656D01*
G01*
X15656D02*
G03*
X13712Y25656I-2656J-712D01*
G01*
X13608Y20730D02*
G03*
X15270Y22392I-608J2270D01*
G01*
X10730D02*
G03*
X12392Y20730I2270J608D01*
G01*
Y25270D02*
G03*
X10730Y23608I608J-2270D01*
G01*
X15270D02*
G03*
X13608Y25270I-2270J-608D01*
G01*
X13660Y20537D02*
G03*
X15463Y22340I-660J2463D01*
G01*
Y23660D02*
G03*
X13660Y25463I-2463J-660D01*
G01*
X12340D02*
G03*
X10537Y23660I660J-2463D01*
G01*
Y22340D02*
G03*
X12340Y20537I2463J660D01*
G01*
X13556Y20923D02*
G03*
X15077Y22444I-556J2077D01*
G01*
X10923D02*
G03*
X12444Y20923I2077J556D01*
G01*
Y25077D02*
G03*
X10923Y23556I556J-2077D01*
G01*
X15077D02*
G03*
X13556Y25077I-2077J-556D01*
G01*
X35077Y23556D02*
G03*
X33556Y25077I-2077J-556D01*
G01*
X32444D02*
G03*
X30923Y23556I556J-2077D01*
G01*
Y22444D02*
G03*
X32444Y20923I2077J556D01*
G01*
X33556D02*
G03*
X35077Y22444I-556J2077D01*
G01*
X30537Y22340D02*
G03*
X32340Y20537I2463J660D01*
G01*
Y25463D02*
G03*
X30537Y23660I660J-2463D01*
G01*
X35463D02*
G03*
X33660Y25463I-2463J-660D01*
G01*
Y20537D02*
G03*
X35463Y22340I-660J2463D01*
G01*
X35270Y23608D02*
G03*
X33608Y25270I-2270J-608D01*
G01*
X32392D02*
G03*
X30730Y23608I608J-2270D01*
G01*
Y22392D02*
G03*
X32392Y20730I2270J608D01*
G01*
X33608D02*
G03*
X35270Y22392I-608J2270D01*
G01*
X35656Y23712D02*
G03*
X33712Y25656I-2656J-712D01*
G01*
X32288D02*
G03*
X30344Y23712I712J-2656D01*
G01*
Y22288D02*
G03*
X32288Y20344I2656J712D01*
G01*
X33712D02*
G03*
X35656Y22288I-712J2656D01*
G01*
X13556Y25077D02*
X13712Y25656D01*
X15077Y23556D02*
X15656Y23712D01*
X15077Y22444D02*
X15656Y22288D01*
X13556Y20923D02*
X13712Y20344D01*
X12288D02*
X12444Y20923D01*
X10344Y22288D02*
X10923Y22444D01*
X10344Y23712D02*
X10923Y23556D01*
X12288Y25656D02*
X12444Y25077D01*
X32288Y25656D02*
X32444Y25077D01*
X30344Y23712D02*
X30923Y23556D01*
X30344Y22288D02*
X30923Y22444D01*
X32288Y20344D02*
X32444Y20923D01*
X33556D02*
X33712Y20344D01*
X35077Y22444D02*
X35656Y22288D01*
X35077Y23556D02*
X35656Y23712D01*
X33556Y25077D02*
X33712Y25656D01*
X42712Y20344D02*
G03*
X44656Y22288I-712J2656D01*
G01*
X39344D02*
G03*
X41288Y20344I2656J712D01*
G01*
Y25656D02*
G03*
X39344Y23712I712J-2656D01*
G01*
X44656D02*
G03*
X42712Y25656I-2656J-712D01*
G01*
X42608Y20730D02*
G03*
X44270Y22392I-608J2270D01*
G01*
X39730D02*
G03*
X41392Y20730I2270J608D01*
G01*
Y25270D02*
G03*
X39730Y23608I608J-2270D01*
G01*
X44270D02*
G03*
X42608Y25270I-2270J-608D01*
G01*
X42660Y20537D02*
G03*
X44463Y22340I-660J2463D01*
G01*
Y23660D02*
G03*
X42660Y25463I-2463J-660D01*
G01*
X41340D02*
G03*
X39537Y23660I660J-2463D01*
G01*
Y22340D02*
G03*
X41340Y20537I2463J660D01*
G01*
X42556Y20923D02*
G03*
X44077Y22444I-556J2077D01*
G01*
X39923D02*
G03*
X41444Y20923I2077J556D01*
G01*
Y25077D02*
G03*
X39923Y23556I556J-2077D01*
G01*
X44077D02*
G03*
X42556Y25077I-2077J-556D01*
G01*
X64077Y23556D02*
G03*
X62556Y25077I-2077J-556D01*
G01*
X61444D02*
G03*
X59923Y23556I556J-2077D01*
G01*
Y22444D02*
G03*
X61444Y20923I2077J556D01*
G01*
X62556D02*
G03*
X64077Y22444I-556J2077D01*
G01*
X59537Y22340D02*
G03*
X61340Y20537I2463J660D01*
G01*
Y25463D02*
G03*
X59537Y23660I660J-2463D01*
G01*
X64463D02*
G03*
X62660Y25463I-2463J-660D01*
G01*
Y20537D02*
G03*
X64463Y22340I-660J2463D01*
G01*
X64270Y23608D02*
G03*
X62608Y25270I-2270J-608D01*
G01*
X61392D02*
G03*
X59730Y23608I608J-2270D01*
G01*
Y22392D02*
G03*
X61392Y20730I2270J608D01*
G01*
X62608D02*
G03*
X64270Y22392I-608J2270D01*
G01*
X64656Y23712D02*
G03*
X62712Y25656I-2656J-712D01*
G01*
X61288D02*
G03*
X59344Y23712I712J-2656D01*
G01*
Y22288D02*
G03*
X61288Y20344I2656J712D01*
G01*
X62712D02*
G03*
X64656Y22288I-712J2656D01*
G01*
X42556Y25077D02*
X42712Y25656D01*
X44077Y23556D02*
X44656Y23712D01*
X44077Y22444D02*
X44656Y22288D01*
X42556Y20923D02*
X42712Y20344D01*
X41288D02*
X41444Y20923D01*
X39344Y22288D02*
X39923Y22444D01*
X39344Y23712D02*
X39923Y23556D01*
X41288Y25656D02*
X41444Y25077D01*
X61288Y25656D02*
X61444Y25077D01*
X59344Y23712D02*
X59923Y23556D01*
X59344Y22288D02*
X59923Y22444D01*
X61288Y20344D02*
X61444Y20923D01*
X62556D02*
X62712Y20344D01*
X64077Y22444D02*
X64656Y22288D01*
X64077Y23556D02*
X64656Y23712D01*
X62556Y25077D02*
X62712Y25656D01*
X71712Y20344D02*
G03*
X73656Y22288I-712J2656D01*
G01*
X68344D02*
G03*
X70288Y20344I2656J712D01*
G01*
Y25656D02*
G03*
X68344Y23712I712J-2656D01*
G01*
X73656D02*
G03*
X71712Y25656I-2656J-712D01*
G01*
X71608Y20730D02*
G03*
X73270Y22392I-608J2270D01*
G01*
X68730D02*
G03*
X70392Y20730I2270J608D01*
G01*
Y25270D02*
G03*
X68730Y23608I608J-2270D01*
G01*
X73270D02*
G03*
X71608Y25270I-2270J-608D01*
G01*
X71660Y20537D02*
G03*
X73463Y22340I-660J2463D01*
G01*
Y23660D02*
G03*
X71660Y25463I-2463J-660D01*
G01*
X70340D02*
G03*
X68537Y23660I660J-2463D01*
G01*
Y22340D02*
G03*
X70340Y20537I2463J660D01*
G01*
X71556Y20923D02*
G03*
X73077Y22444I-556J2077D01*
G01*
X68923D02*
G03*
X70444Y20923I2077J556D01*
G01*
Y25077D02*
G03*
X68923Y23556I556J-2077D01*
G01*
X73077D02*
G03*
X71556Y25077I-2077J-556D01*
G01*
X93077Y23556D02*
G03*
X91556Y25077I-2077J-556D01*
G01*
X90444D02*
G03*
X88923Y23556I556J-2077D01*
G01*
Y22444D02*
G03*
X90444Y20923I2077J556D01*
G01*
X91556D02*
G03*
X93077Y22444I-556J2077D01*
G01*
X88537Y22340D02*
G03*
X90340Y20537I2463J660D01*
G01*
Y25463D02*
G03*
X88537Y23660I660J-2463D01*
G01*
X93463D02*
G03*
X91660Y25463I-2463J-660D01*
G01*
Y20537D02*
G03*
X93463Y22340I-660J2463D01*
G01*
X93270Y23608D02*
G03*
X91608Y25270I-2270J-608D01*
G01*
X90392D02*
G03*
X88730Y23608I608J-2270D01*
G01*
Y22392D02*
G03*
X90392Y20730I2270J608D01*
G01*
X91608D02*
G03*
X93270Y22392I-608J2270D01*
G01*
X93656Y23712D02*
G03*
X91712Y25656I-2656J-712D01*
G01*
X90288D02*
G03*
X88344Y23712I712J-2656D01*
G01*
Y22288D02*
G03*
X90288Y20344I2656J712D01*
G01*
X91712D02*
G03*
X93656Y22288I-712J2656D01*
G01*
X71556Y25077D02*
X71712Y25656D01*
X73077Y23556D02*
X73656Y23712D01*
X73077Y22444D02*
X73656Y22288D01*
X71556Y20923D02*
X71712Y20344D01*
X70288D02*
X70444Y20923D01*
X68344Y22288D02*
X68923Y22444D01*
X68344Y23712D02*
X68923Y23556D01*
X70288Y25656D02*
X70444Y25077D01*
X90288Y25656D02*
X90444Y25077D01*
X88344Y23712D02*
X88923Y23556D01*
X88344Y22288D02*
X88923Y22444D01*
X90288Y20344D02*
X90444Y20923D01*
X91556D02*
X91712Y20344D01*
X93077Y22444D02*
X93656Y22288D01*
X93077Y23556D02*
X93656Y23712D01*
X91556Y25077D02*
X91712Y25656D01*
X100712Y20344D02*
G03*
X102656Y22288I-712J2656D01*
G01*
X97344D02*
G03*
X99288Y20344I2656J712D01*
G01*
Y25656D02*
G03*
X97344Y23712I712J-2656D01*
G01*
X102656D02*
G03*
X100712Y25656I-2656J-712D01*
G01*
X100608Y20730D02*
G03*
X102270Y22392I-608J2270D01*
G01*
X97730D02*
G03*
X99392Y20730I2270J608D01*
G01*
Y25270D02*
G03*
X97730Y23608I608J-2270D01*
G01*
X102270D02*
G03*
X100608Y25270I-2270J-608D01*
G01*
X100660Y20537D02*
G03*
X102463Y22340I-660J2463D01*
G01*
Y23660D02*
G03*
X100660Y25463I-2463J-660D01*
G01*
X99340D02*
G03*
X97537Y23660I660J-2463D01*
G01*
Y22340D02*
G03*
X99340Y20537I2463J660D01*
G01*
X100556Y20923D02*
G03*
X102077Y22444I-556J2077D01*
G01*
X97923D02*
G03*
X99444Y20923I2077J556D01*
G01*
Y25077D02*
G03*
X97923Y23556I556J-2077D01*
G01*
X102077D02*
G03*
X100556Y25077I-2077J-556D01*
G01*
X122077Y23556D02*
G03*
X120556Y25077I-2077J-556D01*
G01*
X119444D02*
G03*
X117923Y23556I556J-2077D01*
G01*
Y22444D02*
G03*
X119444Y20923I2077J556D01*
G01*
X120556D02*
G03*
X122077Y22444I-556J2077D01*
G01*
X117537Y22340D02*
G03*
X119340Y20537I2463J660D01*
G01*
Y25463D02*
G03*
X117537Y23660I660J-2463D01*
G01*
X122463D02*
G03*
X120660Y25463I-2463J-660D01*
G01*
Y20537D02*
G03*
X122463Y22340I-660J2463D01*
G01*
X122270Y23608D02*
G03*
X120608Y25270I-2270J-608D01*
G01*
X119392D02*
G03*
X117730Y23608I608J-2270D01*
G01*
Y22392D02*
G03*
X119392Y20730I2270J608D01*
G01*
X120608D02*
G03*
X122270Y22392I-608J2270D01*
G01*
X122656Y23712D02*
G03*
X120712Y25656I-2656J-712D01*
G01*
X119288D02*
G03*
X117344Y23712I712J-2656D01*
G01*
Y22288D02*
G03*
X119288Y20344I2656J712D01*
G01*
X120712D02*
G03*
X122656Y22288I-712J2656D01*
G01*
X100556Y25077D02*
X100712Y25656D01*
X102077Y23556D02*
X102656Y23712D01*
X102077Y22444D02*
X102656Y22288D01*
X100556Y20923D02*
X100712Y20344D01*
X99288D02*
X99444Y20923D01*
X97344Y22288D02*
X97923Y22444D01*
X97344Y23712D02*
X97923Y23556D01*
X99288Y25656D02*
X99444Y25077D01*
X119288Y25656D02*
X119444Y25077D01*
X117344Y23712D02*
X117923Y23556D01*
X117344Y22288D02*
X117923Y22444D01*
X119288Y20344D02*
X119444Y20923D01*
X120556D02*
X120712Y20344D01*
X122077Y22444D02*
X122656Y22288D01*
X122077Y23556D02*
X122656Y23712D01*
X120556Y25077D02*
X120712Y25656D01*
X129712Y20344D02*
G03*
X131656Y22288I-712J2656D01*
G01*
X126344D02*
G03*
X128288Y20344I2656J712D01*
G01*
Y25656D02*
G03*
X126344Y23712I712J-2656D01*
G01*
X131656D02*
G03*
X129712Y25656I-2656J-712D01*
G01*
X129608Y20730D02*
G03*
X131270Y22392I-608J2270D01*
G01*
X126730D02*
G03*
X128392Y20730I2270J608D01*
G01*
Y25270D02*
G03*
X126730Y23608I608J-2270D01*
G01*
X131270D02*
G03*
X129608Y25270I-2270J-608D01*
G01*
X129660Y20537D02*
G03*
X131463Y22340I-660J2463D01*
G01*
Y23660D02*
G03*
X129660Y25463I-2463J-660D01*
G01*
X128340D02*
G03*
X126537Y23660I660J-2463D01*
G01*
Y22340D02*
G03*
X128340Y20537I2463J660D01*
G01*
X129556Y20923D02*
G03*
X131077Y22444I-556J2077D01*
G01*
X126923D02*
G03*
X128444Y20923I2077J556D01*
G01*
Y25077D02*
G03*
X126923Y23556I556J-2077D01*
G01*
X131077D02*
G03*
X129556Y25077I-2077J-556D01*
G01*
X151077Y23556D02*
G03*
X149556Y25077I-2077J-556D01*
G01*
X148444D02*
G03*
X146923Y23556I556J-2077D01*
G01*
Y22444D02*
G03*
X148444Y20923I2077J556D01*
G01*
X149556D02*
G03*
X151077Y22444I-556J2077D01*
G01*
X146537Y22340D02*
G03*
X148340Y20537I2463J660D01*
G01*
Y25463D02*
G03*
X146537Y23660I660J-2463D01*
G01*
X151463D02*
G03*
X149660Y25463I-2463J-660D01*
G01*
Y20537D02*
G03*
X151463Y22340I-660J2463D01*
G01*
X151270Y23608D02*
G03*
X149608Y25270I-2270J-608D01*
G01*
X148392D02*
G03*
X146730Y23608I608J-2270D01*
G01*
Y22392D02*
G03*
X148392Y20730I2270J608D01*
G01*
X149608D02*
G03*
X151270Y22392I-608J2270D01*
G01*
X151656Y23712D02*
G03*
X149712Y25656I-2656J-712D01*
G01*
X148288D02*
G03*
X146344Y23712I712J-2656D01*
G01*
Y22288D02*
G03*
X148288Y20344I2656J712D01*
G01*
X149712D02*
G03*
X151656Y22288I-712J2656D01*
G01*
X129556Y25077D02*
X129712Y25656D01*
X131077Y23556D02*
X131656Y23712D01*
X131077Y22444D02*
X131656Y22288D01*
X129556Y20923D02*
X129712Y20344D01*
X128288D02*
X128444Y20923D01*
X126344Y22288D02*
X126923Y22444D01*
X126344Y23712D02*
X126923Y23556D01*
X128288Y25656D02*
X128444Y25077D01*
X148288Y25656D02*
X148444Y25077D01*
X146344Y23712D02*
X146923Y23556D01*
X146344Y22288D02*
X146923Y22444D01*
X148288Y20344D02*
X148444Y20923D01*
X149556D02*
X149712Y20344D01*
X151077Y22444D02*
X151656Y22288D01*
X151077Y23556D02*
X151656Y23712D01*
X149556Y25077D02*
X149712Y25656D01*
X13712Y49344D02*
G03*
X15656Y51288I-712J2656D01*
G01*
X10344D02*
G03*
X12288Y49344I2656J712D01*
G01*
Y54656D02*
G03*
X10344Y52712I712J-2656D01*
G01*
X15656D02*
G03*
X13712Y54656I-2656J-712D01*
G01*
X13608Y49730D02*
G03*
X15270Y51392I-608J2270D01*
G01*
X10730D02*
G03*
X12392Y49730I2270J608D01*
G01*
Y54270D02*
G03*
X10730Y52608I608J-2270D01*
G01*
X15270D02*
G03*
X13608Y54270I-2270J-608D01*
G01*
X13660Y49537D02*
G03*
X15463Y51340I-660J2463D01*
G01*
Y52660D02*
G03*
X13660Y54463I-2463J-660D01*
G01*
X12340D02*
G03*
X10537Y52660I660J-2463D01*
G01*
Y51340D02*
G03*
X12340Y49537I2463J660D01*
G01*
X13556Y49923D02*
G03*
X15077Y51444I-556J2077D01*
G01*
X10923D02*
G03*
X12444Y49923I2077J556D01*
G01*
Y54077D02*
G03*
X10923Y52556I556J-2077D01*
G01*
X15077D02*
G03*
X13556Y54077I-2077J-556D01*
G01*
X35077Y52556D02*
G03*
X33556Y54077I-2077J-556D01*
G01*
X32444D02*
G03*
X30923Y52556I556J-2077D01*
G01*
Y51444D02*
G03*
X32444Y49923I2077J556D01*
G01*
X33556D02*
G03*
X35077Y51444I-556J2077D01*
G01*
X30537Y51340D02*
G03*
X32340Y49537I2463J660D01*
G01*
Y54463D02*
G03*
X30537Y52660I660J-2463D01*
G01*
X35463D02*
G03*
X33660Y54463I-2463J-660D01*
G01*
Y49537D02*
G03*
X35463Y51340I-660J2463D01*
G01*
X35270Y52608D02*
G03*
X33608Y54270I-2270J-608D01*
G01*
X32392D02*
G03*
X30730Y52608I608J-2270D01*
G01*
Y51392D02*
G03*
X32392Y49730I2270J608D01*
G01*
X33608D02*
G03*
X35270Y51392I-608J2270D01*
G01*
X35656Y52712D02*
G03*
X33712Y54656I-2656J-712D01*
G01*
X32288D02*
G03*
X30344Y52712I712J-2656D01*
G01*
Y51288D02*
G03*
X32288Y49344I2656J712D01*
G01*
X33712D02*
G03*
X35656Y51288I-712J2656D01*
G01*
X13556Y54077D02*
X13712Y54656D01*
X15077Y52556D02*
X15656Y52712D01*
X15077Y51444D02*
X15656Y51288D01*
X13556Y49923D02*
X13712Y49344D01*
X12288D02*
X12444Y49923D01*
X10344Y51288D02*
X10923Y51444D01*
X10344Y52712D02*
X10923Y52556D01*
X12288Y54656D02*
X12444Y54077D01*
X32288Y54656D02*
X32444Y54077D01*
X30344Y52712D02*
X30923Y52556D01*
X30344Y51288D02*
X30923Y51444D01*
X32288Y49344D02*
X32444Y49923D01*
X33556D02*
X33712Y49344D01*
X35077Y51444D02*
X35656Y51288D01*
X35077Y52556D02*
X35656Y52712D01*
X33556Y54077D02*
X33712Y54656D01*
X42712Y49344D02*
G03*
X44656Y51288I-712J2656D01*
G01*
X39344D02*
G03*
X41288Y49344I2656J712D01*
G01*
Y54656D02*
G03*
X39344Y52712I712J-2656D01*
G01*
X44656D02*
G03*
X42712Y54656I-2656J-712D01*
G01*
X42608Y49730D02*
G03*
X44270Y51392I-608J2270D01*
G01*
X39730D02*
G03*
X41392Y49730I2270J608D01*
G01*
Y54270D02*
G03*
X39730Y52608I608J-2270D01*
G01*
X44270D02*
G03*
X42608Y54270I-2270J-608D01*
G01*
X42660Y49537D02*
G03*
X44463Y51340I-660J2463D01*
G01*
Y52660D02*
G03*
X42660Y54463I-2463J-660D01*
G01*
X41340D02*
G03*
X39537Y52660I660J-2463D01*
G01*
Y51340D02*
G03*
X41340Y49537I2463J660D01*
G01*
X42556Y49923D02*
G03*
X44077Y51444I-556J2077D01*
G01*
X39923D02*
G03*
X41444Y49923I2077J556D01*
G01*
Y54077D02*
G03*
X39923Y52556I556J-2077D01*
G01*
X44077D02*
G03*
X42556Y54077I-2077J-556D01*
G01*
X64077Y52556D02*
G03*
X62556Y54077I-2077J-556D01*
G01*
X61444D02*
G03*
X59923Y52556I556J-2077D01*
G01*
Y51444D02*
G03*
X61444Y49923I2077J556D01*
G01*
X62556D02*
G03*
X64077Y51444I-556J2077D01*
G01*
X59537Y51340D02*
G03*
X61340Y49537I2463J660D01*
G01*
Y54463D02*
G03*
X59537Y52660I660J-2463D01*
G01*
X64463D02*
G03*
X62660Y54463I-2463J-660D01*
G01*
Y49537D02*
G03*
X64463Y51340I-660J2463D01*
G01*
X64270Y52608D02*
G03*
X62608Y54270I-2270J-608D01*
G01*
X61392D02*
G03*
X59730Y52608I608J-2270D01*
G01*
Y51392D02*
G03*
X61392Y49730I2270J608D01*
G01*
X62608D02*
G03*
X64270Y51392I-608J2270D01*
G01*
X64656Y52712D02*
G03*
X62712Y54656I-2656J-712D01*
G01*
X61288D02*
G03*
X59344Y52712I712J-2656D01*
G01*
Y51288D02*
G03*
X61288Y49344I2656J712D01*
G01*
X62712D02*
G03*
X64656Y51288I-712J2656D01*
G01*
X42556Y54077D02*
X42712Y54656D01*
X44077Y52556D02*
X44656Y52712D01*
X44077Y51444D02*
X44656Y51288D01*
X42556Y49923D02*
X42712Y49344D01*
X41288D02*
X41444Y49923D01*
X39344Y51288D02*
X39923Y51444D01*
X39344Y52712D02*
X39923Y52556D01*
X41288Y54656D02*
X41444Y54077D01*
X61288Y54656D02*
X61444Y54077D01*
X59344Y52712D02*
X59923Y52556D01*
X59344Y51288D02*
X59923Y51444D01*
X61288Y49344D02*
X61444Y49923D01*
X62556D02*
X62712Y49344D01*
X64077Y51444D02*
X64656Y51288D01*
X64077Y52556D02*
X64656Y52712D01*
X62556Y54077D02*
X62712Y54656D01*
X71712Y49344D02*
G03*
X73656Y51288I-712J2656D01*
G01*
X68344D02*
G03*
X70288Y49344I2656J712D01*
G01*
Y54656D02*
G03*
X68344Y52712I712J-2656D01*
G01*
X73656D02*
G03*
X71712Y54656I-2656J-712D01*
G01*
X71608Y49730D02*
G03*
X73270Y51392I-608J2270D01*
G01*
X68730D02*
G03*
X70392Y49730I2270J608D01*
G01*
Y54270D02*
G03*
X68730Y52608I608J-2270D01*
G01*
X73270D02*
G03*
X71608Y54270I-2270J-608D01*
G01*
X71660Y49537D02*
G03*
X73463Y51340I-660J2463D01*
G01*
Y52660D02*
G03*
X71660Y54463I-2463J-660D01*
G01*
X70340D02*
G03*
X68537Y52660I660J-2463D01*
G01*
Y51340D02*
G03*
X70340Y49537I2463J660D01*
G01*
X71556Y49923D02*
G03*
X73077Y51444I-556J2077D01*
G01*
X68923D02*
G03*
X70444Y49923I2077J556D01*
G01*
Y54077D02*
G03*
X68923Y52556I556J-2077D01*
G01*
X73077D02*
G03*
X71556Y54077I-2077J-556D01*
G01*
X93077Y52556D02*
G03*
X91556Y54077I-2077J-556D01*
G01*
X90444D02*
G03*
X88923Y52556I556J-2077D01*
G01*
Y51444D02*
G03*
X90444Y49923I2077J556D01*
G01*
X91556D02*
G03*
X93077Y51444I-556J2077D01*
G01*
X88537Y51340D02*
G03*
X90340Y49537I2463J660D01*
G01*
Y54463D02*
G03*
X88537Y52660I660J-2463D01*
G01*
X93463D02*
G03*
X91660Y54463I-2463J-660D01*
G01*
Y49537D02*
G03*
X93463Y51340I-660J2463D01*
G01*
X93270Y52608D02*
G03*
X91608Y54270I-2270J-608D01*
G01*
X90392D02*
G03*
X88730Y52608I608J-2270D01*
G01*
Y51392D02*
G03*
X90392Y49730I2270J608D01*
G01*
X91608D02*
G03*
X93270Y51392I-608J2270D01*
G01*
X93656Y52712D02*
G03*
X91712Y54656I-2656J-712D01*
G01*
X90288D02*
G03*
X88344Y52712I712J-2656D01*
G01*
Y51288D02*
G03*
X90288Y49344I2656J712D01*
G01*
X91712D02*
G03*
X93656Y51288I-712J2656D01*
G01*
X71556Y54077D02*
X71712Y54656D01*
X73077Y52556D02*
X73656Y52712D01*
X73077Y51444D02*
X73656Y51288D01*
X71556Y49923D02*
X71712Y49344D01*
X70288D02*
X70444Y49923D01*
X68344Y51288D02*
X68923Y51444D01*
X68344Y52712D02*
X68923Y52556D01*
X70288Y54656D02*
X70444Y54077D01*
X90288Y54656D02*
X90444Y54077D01*
X88344Y52712D02*
X88923Y52556D01*
X88344Y51288D02*
X88923Y51444D01*
X90288Y49344D02*
X90444Y49923D01*
X91556D02*
X91712Y49344D01*
X93077Y51444D02*
X93656Y51288D01*
X93077Y52556D02*
X93656Y52712D01*
X91556Y54077D02*
X91712Y54656D01*
X100712Y49344D02*
G03*
X102656Y51288I-712J2656D01*
G01*
X97344D02*
G03*
X99288Y49344I2656J712D01*
G01*
Y54656D02*
G03*
X97344Y52712I712J-2656D01*
G01*
X102656D02*
G03*
X100712Y54656I-2656J-712D01*
G01*
X100608Y49730D02*
G03*
X102270Y51392I-608J2270D01*
G01*
X97730D02*
G03*
X99392Y49730I2270J608D01*
G01*
Y54270D02*
G03*
X97730Y52608I608J-2270D01*
G01*
X102270D02*
G03*
X100608Y54270I-2270J-608D01*
G01*
X100660Y49537D02*
G03*
X102463Y51340I-660J2463D01*
G01*
Y52660D02*
G03*
X100660Y54463I-2463J-660D01*
G01*
X99340D02*
G03*
X97537Y52660I660J-2463D01*
G01*
Y51340D02*
G03*
X99340Y49537I2463J660D01*
G01*
X100556Y49923D02*
G03*
X102077Y51444I-556J2077D01*
G01*
X97923D02*
G03*
X99444Y49923I2077J556D01*
G01*
Y54077D02*
G03*
X97923Y52556I556J-2077D01*
G01*
X102077D02*
G03*
X100556Y54077I-2077J-556D01*
G01*
X122077Y52556D02*
G03*
X120556Y54077I-2077J-556D01*
G01*
X119444D02*
G03*
X117923Y52556I556J-2077D01*
G01*
Y51444D02*
G03*
X119444Y49923I2077J556D01*
G01*
X120556D02*
G03*
X122077Y51444I-556J2077D01*
G01*
X117537Y51340D02*
G03*
X119340Y49537I2463J660D01*
G01*
Y54463D02*
G03*
X117537Y52660I660J-2463D01*
G01*
X122463D02*
G03*
X120660Y54463I-2463J-660D01*
G01*
Y49537D02*
G03*
X122463Y51340I-660J2463D01*
G01*
X122270Y52608D02*
G03*
X120608Y54270I-2270J-608D01*
G01*
X119392D02*
G03*
X117730Y52608I608J-2270D01*
G01*
Y51392D02*
G03*
X119392Y49730I2270J608D01*
G01*
X120608D02*
G03*
X122270Y51392I-608J2270D01*
G01*
X122656Y52712D02*
G03*
X120712Y54656I-2656J-712D01*
G01*
X119288D02*
G03*
X117344Y52712I712J-2656D01*
G01*
Y51288D02*
G03*
X119288Y49344I2656J712D01*
G01*
X120712D02*
G03*
X122656Y51288I-712J2656D01*
G01*
X100556Y54077D02*
X100712Y54656D01*
X102077Y52556D02*
X102656Y52712D01*
X102077Y51444D02*
X102656Y51288D01*
X100556Y49923D02*
X100712Y49344D01*
X99288D02*
X99444Y49923D01*
X97344Y51288D02*
X97923Y51444D01*
X97344Y52712D02*
X97923Y52556D01*
X99288Y54656D02*
X99444Y54077D01*
X119288Y54656D02*
X119444Y54077D01*
X117344Y52712D02*
X117923Y52556D01*
X117344Y51288D02*
X117923Y51444D01*
X119288Y49344D02*
X119444Y49923D01*
X120556D02*
X120712Y49344D01*
X122077Y51444D02*
X122656Y51288D01*
X122077Y52556D02*
X122656Y52712D01*
X120556Y54077D02*
X120712Y54656D01*
X129712Y49344D02*
G03*
X131656Y51288I-712J2656D01*
G01*
X126344D02*
G03*
X128288Y49344I2656J712D01*
G01*
Y54656D02*
G03*
X126344Y52712I712J-2656D01*
G01*
X131656D02*
G03*
X129712Y54656I-2656J-712D01*
G01*
X129608Y49730D02*
G03*
X131270Y51392I-608J2270D01*
G01*
X126730D02*
G03*
X128392Y49730I2270J608D01*
G01*
Y54270D02*
G03*
X126730Y52608I608J-2270D01*
G01*
X131270D02*
G03*
X129608Y54270I-2270J-608D01*
G01*
X129660Y49537D02*
G03*
X131463Y51340I-660J2463D01*
G01*
Y52660D02*
G03*
X129660Y54463I-2463J-660D01*
G01*
X128340D02*
G03*
X126537Y52660I660J-2463D01*
G01*
Y51340D02*
G03*
X128340Y49537I2463J660D01*
G01*
X129556Y49923D02*
G03*
X131077Y51444I-556J2077D01*
G01*
X126923D02*
G03*
X128444Y49923I2077J556D01*
G01*
Y54077D02*
G03*
X126923Y52556I556J-2077D01*
G01*
X131077D02*
G03*
X129556Y54077I-2077J-556D01*
G01*
X151077Y52556D02*
G03*
X149556Y54077I-2077J-556D01*
G01*
X148444D02*
G03*
X146923Y52556I556J-2077D01*
G01*
Y51444D02*
G03*
X148444Y49923I2077J556D01*
G01*
X149556D02*
G03*
X151077Y51444I-556J2077D01*
G01*
X146537Y51340D02*
G03*
X148340Y49537I2463J660D01*
G01*
Y54463D02*
G03*
X146537Y52660I660J-2463D01*
G01*
X151463D02*
G03*
X149660Y54463I-2463J-660D01*
G01*
Y49537D02*
G03*
X151463Y51340I-660J2463D01*
G01*
X151270Y52608D02*
G03*
X149608Y54270I-2270J-608D01*
G01*
X148392D02*
G03*
X146730Y52608I608J-2270D01*
G01*
Y51392D02*
G03*
X148392Y49730I2270J608D01*
G01*
X149608D02*
G03*
X151270Y51392I-608J2270D01*
G01*
X151656Y52712D02*
G03*
X149712Y54656I-2656J-712D01*
G01*
X148288D02*
G03*
X146344Y52712I712J-2656D01*
G01*
Y51288D02*
G03*
X148288Y49344I2656J712D01*
G01*
X149712D02*
G03*
X151656Y51288I-712J2656D01*
G01*
X129556Y54077D02*
X129712Y54656D01*
X131077Y52556D02*
X131656Y52712D01*
X131077Y51444D02*
X131656Y51288D01*
X129556Y49923D02*
X129712Y49344D01*
X128288D02*
X128444Y49923D01*
X126344Y51288D02*
X126923Y51444D01*
X126344Y52712D02*
X126923Y52556D01*
X128288Y54656D02*
X128444Y54077D01*
X148288Y54656D02*
X148444Y54077D01*
X146344Y52712D02*
X146923Y52556D01*
X146344Y51288D02*
X146923Y51444D01*
X148288Y49344D02*
X148444Y49923D01*
X149556D02*
X149712Y49344D01*
X151077Y51444D02*
X151656Y51288D01*
X151077Y52556D02*
X151656Y52712D01*
X149556Y54077D02*
X149712Y54656D01*
X13712Y78344D02*
G03*
X15656Y80288I-712J2656D01*
G01*
X10344D02*
G03*
X12288Y78344I2656J712D01*
G01*
Y83656D02*
G03*
X10344Y81712I712J-2656D01*
G01*
X15656D02*
G03*
X13712Y83656I-2656J-712D01*
G01*
X13608Y78730D02*
G03*
X15270Y80392I-608J2270D01*
G01*
X10730D02*
G03*
X12392Y78730I2270J608D01*
G01*
Y83270D02*
G03*
X10730Y81608I608J-2270D01*
G01*
X15270D02*
G03*
X13608Y83270I-2270J-608D01*
G01*
X13660Y78537D02*
G03*
X15463Y80340I-660J2463D01*
G01*
Y81660D02*
G03*
X13660Y83463I-2463J-660D01*
G01*
X12340D02*
G03*
X10537Y81660I660J-2463D01*
G01*
Y80340D02*
G03*
X12340Y78537I2463J660D01*
G01*
X13556Y78923D02*
G03*
X15077Y80444I-556J2077D01*
G01*
X10923D02*
G03*
X12444Y78923I2077J556D01*
G01*
Y83077D02*
G03*
X10923Y81556I556J-2077D01*
G01*
X15077D02*
G03*
X13556Y83077I-2077J-556D01*
G01*
X35077Y81556D02*
G03*
X33556Y83077I-2077J-556D01*
G01*
X32444D02*
G03*
X30923Y81556I556J-2077D01*
G01*
Y80444D02*
G03*
X32444Y78923I2077J556D01*
G01*
X33556D02*
G03*
X35077Y80444I-556J2077D01*
G01*
X30537Y80340D02*
G03*
X32340Y78537I2463J660D01*
G01*
Y83463D02*
G03*
X30537Y81660I660J-2463D01*
G01*
X35463D02*
G03*
X33660Y83463I-2463J-660D01*
G01*
Y78537D02*
G03*
X35463Y80340I-660J2463D01*
G01*
X35270Y81608D02*
G03*
X33608Y83270I-2270J-608D01*
G01*
X32392D02*
G03*
X30730Y81608I608J-2270D01*
G01*
Y80392D02*
G03*
X32392Y78730I2270J608D01*
G01*
X33608D02*
G03*
X35270Y80392I-608J2270D01*
G01*
X35656Y81712D02*
G03*
X33712Y83656I-2656J-712D01*
G01*
X32288D02*
G03*
X30344Y81712I712J-2656D01*
G01*
Y80288D02*
G03*
X32288Y78344I2656J712D01*
G01*
X33712D02*
G03*
X35656Y80288I-712J2656D01*
G01*
X13556Y83077D02*
X13712Y83656D01*
X15077Y81556D02*
X15656Y81712D01*
X15077Y80444D02*
X15656Y80288D01*
X13556Y78923D02*
X13712Y78344D01*
X12288D02*
X12444Y78923D01*
X10344Y80288D02*
X10923Y80444D01*
X10344Y81712D02*
X10923Y81556D01*
X12288Y83656D02*
X12444Y83077D01*
X32288Y83656D02*
X32444Y83077D01*
X30344Y81712D02*
X30923Y81556D01*
X30344Y80288D02*
X30923Y80444D01*
X32288Y78344D02*
X32444Y78923D01*
X33556D02*
X33712Y78344D01*
X35077Y80444D02*
X35656Y80288D01*
X35077Y81556D02*
X35656Y81712D01*
X33556Y83077D02*
X33712Y83656D01*
X42712Y78344D02*
G03*
X44656Y80288I-712J2656D01*
G01*
X39344D02*
G03*
X41288Y78344I2656J712D01*
G01*
Y83656D02*
G03*
X39344Y81712I712J-2656D01*
G01*
X44656D02*
G03*
X42712Y83656I-2656J-712D01*
G01*
X42608Y78730D02*
G03*
X44270Y80392I-608J2270D01*
G01*
X39730D02*
G03*
X41392Y78730I2270J608D01*
G01*
Y83270D02*
G03*
X39730Y81608I608J-2270D01*
G01*
X44270D02*
G03*
X42608Y83270I-2270J-608D01*
G01*
X42660Y78537D02*
G03*
X44463Y80340I-660J2463D01*
G01*
Y81660D02*
G03*
X42660Y83463I-2463J-660D01*
G01*
X41340D02*
G03*
X39537Y81660I660J-2463D01*
G01*
Y80340D02*
G03*
X41340Y78537I2463J660D01*
G01*
X42556Y78923D02*
G03*
X44077Y80444I-556J2077D01*
G01*
X39923D02*
G03*
X41444Y78923I2077J556D01*
G01*
Y83077D02*
G03*
X39923Y81556I556J-2077D01*
G01*
X44077D02*
G03*
X42556Y83077I-2077J-556D01*
G01*
X64077Y81556D02*
G03*
X62556Y83077I-2077J-556D01*
G01*
X61444D02*
G03*
X59923Y81556I556J-2077D01*
G01*
Y80444D02*
G03*
X61444Y78923I2077J556D01*
G01*
X62556D02*
G03*
X64077Y80444I-556J2077D01*
G01*
X59537Y80340D02*
G03*
X61340Y78537I2463J660D01*
G01*
Y83463D02*
G03*
X59537Y81660I660J-2463D01*
G01*
X64463D02*
G03*
X62660Y83463I-2463J-660D01*
G01*
Y78537D02*
G03*
X64463Y80340I-660J2463D01*
G01*
X64270Y81608D02*
G03*
X62608Y83270I-2270J-608D01*
G01*
X61392D02*
G03*
X59730Y81608I608J-2270D01*
G01*
Y80392D02*
G03*
X61392Y78730I2270J608D01*
G01*
X62608D02*
G03*
X64270Y80392I-608J2270D01*
G01*
X64656Y81712D02*
G03*
X62712Y83656I-2656J-712D01*
G01*
X61288D02*
G03*
X59344Y81712I712J-2656D01*
G01*
Y80288D02*
G03*
X61288Y78344I2656J712D01*
G01*
X62712D02*
G03*
X64656Y80288I-712J2656D01*
G01*
X42556Y83077D02*
X42712Y83656D01*
X44077Y81556D02*
X44656Y81712D01*
X44077Y80444D02*
X44656Y80288D01*
X42556Y78923D02*
X42712Y78344D01*
X41288D02*
X41444Y78923D01*
X39344Y80288D02*
X39923Y80444D01*
X39344Y81712D02*
X39923Y81556D01*
X41288Y83656D02*
X41444Y83077D01*
X61288Y83656D02*
X61444Y83077D01*
X59344Y81712D02*
X59923Y81556D01*
X59344Y80288D02*
X59923Y80444D01*
X61288Y78344D02*
X61444Y78923D01*
X62556D02*
X62712Y78344D01*
X64077Y80444D02*
X64656Y80288D01*
X64077Y81556D02*
X64656Y81712D01*
X62556Y83077D02*
X62712Y83656D01*
X71712Y78344D02*
G03*
X73656Y80288I-712J2656D01*
G01*
X68344D02*
G03*
X70288Y78344I2656J712D01*
G01*
Y83656D02*
G03*
X68344Y81712I712J-2656D01*
G01*
X73656D02*
G03*
X71712Y83656I-2656J-712D01*
G01*
X71608Y78730D02*
G03*
X73270Y80392I-608J2270D01*
G01*
X68730D02*
G03*
X70392Y78730I2270J608D01*
G01*
Y83270D02*
G03*
X68730Y81608I608J-2270D01*
G01*
X73270D02*
G03*
X71608Y83270I-2270J-608D01*
G01*
X71660Y78537D02*
G03*
X73463Y80340I-660J2463D01*
G01*
Y81660D02*
G03*
X71660Y83463I-2463J-660D01*
G01*
X70340D02*
G03*
X68537Y81660I660J-2463D01*
G01*
Y80340D02*
G03*
X70340Y78537I2463J660D01*
G01*
X71556Y78923D02*
G03*
X73077Y80444I-556J2077D01*
G01*
X68923D02*
G03*
X70444Y78923I2077J556D01*
G01*
Y83077D02*
G03*
X68923Y81556I556J-2077D01*
G01*
X73077D02*
G03*
X71556Y83077I-2077J-556D01*
G01*
X93077Y81556D02*
G03*
X91556Y83077I-2077J-556D01*
G01*
X90444D02*
G03*
X88923Y81556I556J-2077D01*
G01*
Y80444D02*
G03*
X90444Y78923I2077J556D01*
G01*
X91556D02*
G03*
X93077Y80444I-556J2077D01*
G01*
X88537Y80340D02*
G03*
X90340Y78537I2463J660D01*
G01*
Y83463D02*
G03*
X88537Y81660I660J-2463D01*
G01*
X93463D02*
G03*
X91660Y83463I-2463J-660D01*
G01*
Y78537D02*
G03*
X93463Y80340I-660J2463D01*
G01*
X93270Y81608D02*
G03*
X91608Y83270I-2270J-608D01*
G01*
X90392D02*
G03*
X88730Y81608I608J-2270D01*
G01*
Y80392D02*
G03*
X90392Y78730I2270J608D01*
G01*
X91608D02*
G03*
X93270Y80392I-608J2270D01*
G01*
X93656Y81712D02*
G03*
X91712Y83656I-2656J-712D01*
G01*
X90288D02*
G03*
X88344Y81712I712J-2656D01*
G01*
Y80288D02*
G03*
X90288Y78344I2656J712D01*
G01*
X91712D02*
G03*
X93656Y80288I-712J2656D01*
G01*
X71556Y83077D02*
X71712Y83656D01*
X73077Y81556D02*
X73656Y81712D01*
X73077Y80444D02*
X73656Y80288D01*
X71556Y78923D02*
X71712Y78344D01*
X70288D02*
X70444Y78923D01*
X68344Y80288D02*
X68923Y80444D01*
X68344Y81712D02*
X68923Y81556D01*
X70288Y83656D02*
X70444Y83077D01*
X90288Y83656D02*
X90444Y83077D01*
X88344Y81712D02*
X88923Y81556D01*
X88344Y80288D02*
X88923Y80444D01*
X90288Y78344D02*
X90444Y78923D01*
X91556D02*
X91712Y78344D01*
X93077Y80444D02*
X93656Y80288D01*
X93077Y81556D02*
X93656Y81712D01*
X91556Y83077D02*
X91712Y83656D01*
X100712Y78344D02*
G03*
X102656Y80288I-712J2656D01*
G01*
X97344D02*
G03*
X99288Y78344I2656J712D01*
G01*
Y83656D02*
G03*
X97344Y81712I712J-2656D01*
G01*
X102656D02*
G03*
X100712Y83656I-2656J-712D01*
G01*
X100608Y78730D02*
G03*
X102270Y80392I-608J2270D01*
G01*
X97730D02*
G03*
X99392Y78730I2270J608D01*
G01*
Y83270D02*
G03*
X97730Y81608I608J-2270D01*
G01*
X102270D02*
G03*
X100608Y83270I-2270J-608D01*
G01*
X100660Y78537D02*
G03*
X102463Y80340I-660J2463D01*
G01*
Y81660D02*
G03*
X100660Y83463I-2463J-660D01*
G01*
X99340D02*
G03*
X97537Y81660I660J-2463D01*
G01*
Y80340D02*
G03*
X99340Y78537I2463J660D01*
G01*
X100556Y78923D02*
G03*
X102077Y80444I-556J2077D01*
G01*
X97923D02*
G03*
X99444Y78923I2077J556D01*
G01*
Y83077D02*
G03*
X97923Y81556I556J-2077D01*
G01*
X102077D02*
G03*
X100556Y83077I-2077J-556D01*
G01*
X122077Y81556D02*
G03*
X120556Y83077I-2077J-556D01*
G01*
X119444D02*
G03*
X117923Y81556I556J-2077D01*
G01*
Y80444D02*
G03*
X119444Y78923I2077J556D01*
G01*
X120556D02*
G03*
X122077Y80444I-556J2077D01*
G01*
X117537Y80340D02*
G03*
X119340Y78537I2463J660D01*
G01*
Y83463D02*
G03*
X117537Y81660I660J-2463D01*
G01*
X122463D02*
G03*
X120660Y83463I-2463J-660D01*
G01*
Y78537D02*
G03*
X122463Y80340I-660J2463D01*
G01*
X122270Y81608D02*
G03*
X120608Y83270I-2270J-608D01*
G01*
X119392D02*
G03*
X117730Y81608I608J-2270D01*
G01*
Y80392D02*
G03*
X119392Y78730I2270J608D01*
G01*
X120608D02*
G03*
X122270Y80392I-608J2270D01*
G01*
X122656Y81712D02*
G03*
X120712Y83656I-2656J-712D01*
G01*
X119288D02*
G03*
X117344Y81712I712J-2656D01*
G01*
Y80288D02*
G03*
X119288Y78344I2656J712D01*
G01*
X120712D02*
G03*
X122656Y80288I-712J2656D01*
G01*
X100556Y83077D02*
X100712Y83656D01*
X102077Y81556D02*
X102656Y81712D01*
X102077Y80444D02*
X102656Y80288D01*
X100556Y78923D02*
X100712Y78344D01*
X99288D02*
X99444Y78923D01*
X97344Y80288D02*
X97923Y80444D01*
X97344Y81712D02*
X97923Y81556D01*
X99288Y83656D02*
X99444Y83077D01*
X119288Y83656D02*
X119444Y83077D01*
X117344Y81712D02*
X117923Y81556D01*
X117344Y80288D02*
X117923Y80444D01*
X119288Y78344D02*
X119444Y78923D01*
X120556D02*
X120712Y78344D01*
X122077Y80444D02*
X122656Y80288D01*
X122077Y81556D02*
X122656Y81712D01*
X120556Y83077D02*
X120712Y83656D01*
X129712Y78344D02*
G03*
X131656Y80288I-712J2656D01*
G01*
X126344D02*
G03*
X128288Y78344I2656J712D01*
G01*
Y83656D02*
G03*
X126344Y81712I712J-2656D01*
G01*
X131656D02*
G03*
X129712Y83656I-2656J-712D01*
G01*
X129608Y78730D02*
G03*
X131270Y80392I-608J2270D01*
G01*
X126730D02*
G03*
X128392Y78730I2270J608D01*
G01*
Y83270D02*
G03*
X126730Y81608I608J-2270D01*
G01*
X131270D02*
G03*
X129608Y83270I-2270J-608D01*
G01*
X129660Y78537D02*
G03*
X131463Y80340I-660J2463D01*
G01*
Y81660D02*
G03*
X129660Y83463I-2463J-660D01*
G01*
X128340D02*
G03*
X126537Y81660I660J-2463D01*
G01*
Y80340D02*
G03*
X128340Y78537I2463J660D01*
G01*
X129556Y78923D02*
G03*
X131077Y80444I-556J2077D01*
G01*
X126923D02*
G03*
X128444Y78923I2077J556D01*
G01*
Y83077D02*
G03*
X126923Y81556I556J-2077D01*
G01*
X131077D02*
G03*
X129556Y83077I-2077J-556D01*
G01*
X151077Y81556D02*
G03*
X149556Y83077I-2077J-556D01*
G01*
X148444D02*
G03*
X146923Y81556I556J-2077D01*
G01*
Y80444D02*
G03*
X148444Y78923I2077J556D01*
G01*
X149556D02*
G03*
X151077Y80444I-556J2077D01*
G01*
X146537Y80340D02*
G03*
X148340Y78537I2463J660D01*
G01*
Y83463D02*
G03*
X146537Y81660I660J-2463D01*
G01*
X151463D02*
G03*
X149660Y83463I-2463J-660D01*
G01*
Y78537D02*
G03*
X151463Y80340I-660J2463D01*
G01*
X151270Y81608D02*
G03*
X149608Y83270I-2270J-608D01*
G01*
X148392D02*
G03*
X146730Y81608I608J-2270D01*
G01*
Y80392D02*
G03*
X148392Y78730I2270J608D01*
G01*
X149608D02*
G03*
X151270Y80392I-608J2270D01*
G01*
X151656Y81712D02*
G03*
X149712Y83656I-2656J-712D01*
G01*
X148288D02*
G03*
X146344Y81712I712J-2656D01*
G01*
Y80288D02*
G03*
X148288Y78344I2656J712D01*
G01*
X149712D02*
G03*
X151656Y80288I-712J2656D01*
G01*
X129556Y83077D02*
X129712Y83656D01*
X131077Y81556D02*
X131656Y81712D01*
X131077Y80444D02*
X131656Y80288D01*
X129556Y78923D02*
X129712Y78344D01*
X128288D02*
X128444Y78923D01*
X126344Y80288D02*
X126923Y80444D01*
X126344Y81712D02*
X126923Y81556D01*
X128288Y83656D02*
X128444Y83077D01*
X148288Y83656D02*
X148444Y83077D01*
X146344Y81712D02*
X146923Y81556D01*
X146344Y80288D02*
X146923Y80444D01*
X148288Y78344D02*
X148444Y78923D01*
X149556D02*
X149712Y78344D01*
X151077Y80444D02*
X151656Y80288D01*
X151077Y81556D02*
X151656Y81712D01*
X149556Y83077D02*
X149712Y83656D01*
M02*
