G04*
G04 #@! TF.GenerationSoftware,Altium Limited,Altium Designer,22.3.1 (43)*
G04*
G04 Layer_Physical_Order=1*
G04 Layer_Color=255*
%FSLAX43Y43*%
%MOMM*%
G71*
G04*
G04 #@! TF.SameCoordinates,F389CC65-E95C-4BCE-9A9B-47759D9C4056*
G04*
G04*
G04 #@! TF.FilePolarity,Positive*
G04*
G01*
G75*
%ADD10C,0.200*%
G04:AMPARAMS|DCode=12|XSize=1.01mm|YSize=1.73mm|CornerRadius=0.253mm|HoleSize=0mm|Usage=FLASHONLY|Rotation=180.000|XOffset=0mm|YOffset=0mm|HoleType=Round|Shape=RoundedRectangle|*
%AMROUNDEDRECTD12*
21,1,1.010,1.225,0,0,180.0*
21,1,0.505,1.730,0,0,180.0*
1,1,0.505,-0.253,0.613*
1,1,0.505,0.253,0.613*
1,1,0.505,0.253,-0.613*
1,1,0.505,-0.253,-0.613*
%
%ADD12ROUNDEDRECTD12*%
G04:AMPARAMS|DCode=13|XSize=1.9mm|YSize=0.6mm|CornerRadius=0.156mm|HoleSize=0mm|Usage=FLASHONLY|Rotation=270.000|XOffset=0mm|YOffset=0mm|HoleType=Round|Shape=RoundedRectangle|*
%AMROUNDEDRECTD13*
21,1,1.900,0.288,0,0,270.0*
21,1,1.588,0.600,0,0,270.0*
1,1,0.312,-0.144,-0.794*
1,1,0.312,-0.144,0.794*
1,1,0.312,0.144,0.794*
1,1,0.312,0.144,-0.794*
%
%ADD13ROUNDEDRECTD13*%
G04:AMPARAMS|DCode=14|XSize=2.8mm|YSize=2.1mm|CornerRadius=0.546mm|HoleSize=0mm|Usage=FLASHONLY|Rotation=270.000|XOffset=0mm|YOffset=0mm|HoleType=Round|Shape=RoundedRectangle|*
%AMROUNDEDRECTD14*
21,1,2.800,1.008,0,0,270.0*
21,1,1.708,2.100,0,0,270.0*
1,1,1.092,-0.504,-0.854*
1,1,1.092,-0.504,0.854*
1,1,1.092,0.504,0.854*
1,1,1.092,0.504,-0.854*
%
%ADD14ROUNDEDRECTD14*%
G04:AMPARAMS|DCode=15|XSize=0.68mm|YSize=0.7mm|CornerRadius=0.17mm|HoleSize=0mm|Usage=FLASHONLY|Rotation=0.000|XOffset=0mm|YOffset=0mm|HoleType=Round|Shape=RoundedRectangle|*
%AMROUNDEDRECTD15*
21,1,0.680,0.360,0,0,0.0*
21,1,0.340,0.700,0,0,0.0*
1,1,0.340,0.170,-0.180*
1,1,0.340,-0.170,-0.180*
1,1,0.340,-0.170,0.180*
1,1,0.340,0.170,0.180*
%
%ADD15ROUNDEDRECTD15*%
G04:AMPARAMS|DCode=16|XSize=0.95mm|YSize=1.02mm|CornerRadius=0.242mm|HoleSize=0mm|Usage=FLASHONLY|Rotation=270.000|XOffset=0mm|YOffset=0mm|HoleType=Round|Shape=RoundedRectangle|*
%AMROUNDEDRECTD16*
21,1,0.950,0.535,0,0,270.0*
21,1,0.466,1.020,0,0,270.0*
1,1,0.485,-0.268,-0.233*
1,1,0.485,-0.268,0.233*
1,1,0.485,0.268,0.233*
1,1,0.485,0.268,-0.233*
%
%ADD16ROUNDEDRECTD16*%
G04:AMPARAMS|DCode=17|XSize=0.95mm|YSize=1.02mm|CornerRadius=0.242mm|HoleSize=0mm|Usage=FLASHONLY|Rotation=0.000|XOffset=0mm|YOffset=0mm|HoleType=Round|Shape=RoundedRectangle|*
%AMROUNDEDRECTD17*
21,1,0.950,0.535,0,0,0.0*
21,1,0.466,1.020,0,0,0.0*
1,1,0.485,0.233,-0.268*
1,1,0.485,-0.233,-0.268*
1,1,0.485,-0.233,0.268*
1,1,0.485,0.233,0.268*
%
%ADD17ROUNDEDRECTD17*%
G04:AMPARAMS|DCode=18|XSize=0.57mm|YSize=0.58mm|CornerRadius=0.14mm|HoleSize=0mm|Usage=FLASHONLY|Rotation=90.000|XOffset=0mm|YOffset=0mm|HoleType=Round|Shape=RoundedRectangle|*
%AMROUNDEDRECTD18*
21,1,0.570,0.301,0,0,90.0*
21,1,0.291,0.580,0,0,90.0*
1,1,0.279,0.150,0.145*
1,1,0.279,0.150,-0.145*
1,1,0.279,-0.150,-0.145*
1,1,0.279,-0.150,0.145*
%
%ADD18ROUNDEDRECTD18*%
G04:AMPARAMS|DCode=19|XSize=0.68mm|YSize=0.7mm|CornerRadius=0.17mm|HoleSize=0mm|Usage=FLASHONLY|Rotation=270.000|XOffset=0mm|YOffset=0mm|HoleType=Round|Shape=RoundedRectangle|*
%AMROUNDEDRECTD19*
21,1,0.680,0.360,0,0,270.0*
21,1,0.340,0.700,0,0,270.0*
1,1,0.340,-0.180,-0.170*
1,1,0.340,-0.180,0.170*
1,1,0.340,0.180,0.170*
1,1,0.340,0.180,-0.170*
%
%ADD19ROUNDEDRECTD19*%
G04:AMPARAMS|DCode=20|XSize=0.61mm|YSize=0.28mm|CornerRadius=0.07mm|HoleSize=0mm|Usage=FLASHONLY|Rotation=270.000|XOffset=0mm|YOffset=0mm|HoleType=Round|Shape=RoundedRectangle|*
%AMROUNDEDRECTD20*
21,1,0.610,0.140,0,0,270.0*
21,1,0.470,0.280,0,0,270.0*
1,1,0.140,-0.070,-0.235*
1,1,0.140,-0.070,0.235*
1,1,0.140,0.070,0.235*
1,1,0.140,0.070,-0.235*
%
%ADD20ROUNDEDRECTD20*%
%ADD21R,1.600X0.900*%
G04:AMPARAMS|DCode=22|XSize=1.18mm|YSize=0.62mm|CornerRadius=0.161mm|HoleSize=0mm|Usage=FLASHONLY|Rotation=270.000|XOffset=0mm|YOffset=0mm|HoleType=Round|Shape=RoundedRectangle|*
%AMROUNDEDRECTD22*
21,1,1.180,0.298,0,0,270.0*
21,1,0.858,0.620,0,0,270.0*
1,1,0.322,-0.149,-0.429*
1,1,0.322,-0.149,0.429*
1,1,0.322,0.149,0.429*
1,1,0.322,0.149,-0.429*
%
%ADD22ROUNDEDRECTD22*%
%ADD36C,0.600*%
%ADD37C,2.000*%
%ADD38C,0.250*%
%ADD39C,0.650*%
%ADD40C,0.500*%
%ADD41C,6.000*%
G36*
X3235Y12073D02*
X4275Y11745D01*
X5282Y11328D01*
X6250Y10825D01*
X6544Y10637D01*
X6532Y10494D01*
X6433Y10427D01*
X6336Y10282D01*
X6333Y10269D01*
X6305Y10263D01*
X6173Y10175D01*
X6173Y10175D01*
X6156Y10158D01*
X6150Y10159D01*
X5993D01*
X5563Y10588D01*
X5431Y10677D01*
X5422Y10679D01*
Y10715D01*
X5394Y10859D01*
X5312Y10982D01*
X5189Y11064D01*
X5045Y11092D01*
X4905D01*
X4761Y11064D01*
X4638Y10982D01*
X4556Y10859D01*
X4528Y10715D01*
Y10275D01*
X3334D01*
X3334Y10275D01*
Y10471D01*
X3326Y10507D01*
X3325Y10544D01*
X3315Y10565D01*
X3310Y10588D01*
X3290Y10619D01*
X3274Y10652D01*
X3257Y10668D01*
X3244Y10687D01*
X3213Y10707D01*
X3186Y10733D01*
X3131Y10765D01*
X3093Y10779D01*
X3057Y10798D01*
X2984Y10818D01*
X2972Y10819D01*
X2960Y10824D01*
X2913D01*
X2865Y10828D01*
X2854Y10824D01*
X2841D01*
X2797Y10806D01*
X2752Y10791D01*
X2742Y10783D01*
X2731Y10778D01*
X2668Y10737D01*
X2580Y10754D01*
X2220D01*
X2132Y10737D01*
X2102Y10757D01*
X2065Y10811D01*
X2049Y10895D01*
X2045Y10903D01*
X2045Y10911D01*
X2023Y10958D01*
X2003Y11005D01*
X1997Y11011D01*
X1993Y11019D01*
X1955Y11053D01*
X1919Y11090D01*
X1911Y11093D01*
X1905Y11098D01*
X1783Y11170D01*
X1735Y11187D01*
X1687Y11207D01*
X1679D01*
X1671Y11210D01*
X1619Y11207D01*
X1568D01*
X1560Y11204D01*
X1552Y11203D01*
X1514Y11185D01*
X1363Y11155D01*
X887D01*
X765Y11180D01*
X687Y11232D01*
X635Y11310D01*
X610Y11432D01*
Y11492D01*
X587Y11609D01*
X521Y11708D01*
X421Y11775D01*
X304Y11798D01*
X-3081D01*
X-3081Y11798D01*
X-3198Y11775D01*
X-3297Y11708D01*
X-3297Y11708D01*
X-3480Y11526D01*
X-3498Y11515D01*
X-3740Y11273D01*
X-3751Y11255D01*
X-3945Y11061D01*
X-3967Y11028D01*
X-3993Y10998D01*
X-4000Y10979D01*
X-4011Y10962D01*
X-4019Y10923D01*
X-4032Y10885D01*
X-4030Y10865D01*
X-4034Y10845D01*
X-4026Y10806D01*
X-4024Y10766D01*
X-3996Y10662D01*
X-4000Y10646D01*
Y10304D01*
X-3996Y10288D01*
X-4038Y10132D01*
X-4040Y10092D01*
X-4048Y10053D01*
Y9394D01*
X-4042Y9364D01*
Y9334D01*
X-4031Y9306D01*
X-4025Y9277D01*
X-4008Y9252D01*
X-3996Y9224D01*
X-3975Y9203D01*
X-3958Y9177D01*
X-3933Y9161D01*
X-3912Y9139D01*
X-3884Y9128D01*
X-3859Y9111D01*
X-3830Y9105D01*
X-3802Y9094D01*
X-3785Y9090D01*
X-3707Y9038D01*
X-3655Y8960D01*
X-3630Y8838D01*
Y8391D01*
X-3630Y8391D01*
X-3607Y8274D01*
X-3541Y8175D01*
X-3541Y8175D01*
X-3409Y8043D01*
X-3371Y7987D01*
X-3354Y7900D01*
X-3342Y7872D01*
X-3337Y7842D01*
X-3320Y7817D01*
X-3308Y7789D01*
X-3287Y7768D01*
X-3270Y7743D01*
X-3245Y7726D01*
X-3224Y7705D01*
X-3196Y7693D01*
X-3171Y7677D01*
X-3141Y7671D01*
X-3114Y7659D01*
X-3110D01*
X-2986Y7635D01*
X-2932Y7598D01*
X-2912Y7568D01*
X-2929Y7480D01*
Y7120D01*
X-2906Y7003D01*
X-2907Y6998D01*
X-2908Y6995D01*
X-2908Y6965D01*
X-2914Y6935D01*
X-2908Y6906D01*
X-2908Y6875D01*
X-2897Y6848D01*
X-2891Y6818D01*
X-2874Y6793D01*
X-2862Y6765D01*
X-2841Y6744D01*
X-2824Y6719D01*
X-1028Y4923D01*
X-929Y4856D01*
X-879Y4846D01*
X-861Y4839D01*
X-741Y4815D01*
X-689Y4781D01*
X-655Y4729D01*
X-637Y4639D01*
Y4585D01*
X-631Y4555D01*
Y4525D01*
X-619Y4498D01*
X-614Y4468D01*
X-597Y4443D01*
X-585Y4415D01*
X-566Y4387D01*
X-553Y4320D01*
Y3005D01*
X-680Y2993D01*
X-687Y3028D01*
X-757Y3133D01*
Y3341D01*
X-780Y3458D01*
X-847Y3557D01*
X-946Y3624D01*
X-1063Y3647D01*
X-1069D01*
X-1159Y3665D01*
X-1211Y3699D01*
X-1245Y3751D01*
X-1263Y3841D01*
Y4639D01*
X-1257Y4671D01*
Y4701D01*
X-1251Y4730D01*
X-1257Y4760D01*
Y4790D01*
X-1268Y4818D01*
X-1274Y4847D01*
X-1291Y4872D01*
X-1302Y4900D01*
X-1324Y4922D01*
X-1340Y4947D01*
X-2360Y5966D01*
X-2459Y6033D01*
X-2576Y6056D01*
X-2576Y6056D01*
X-3750D01*
X-3803Y6099D01*
Y6265D01*
X-3850Y6499D01*
X-3982Y6698D01*
X-6813Y9529D01*
Y10466D01*
X-6250Y10825D01*
X-5282Y11328D01*
X-4275Y11745D01*
X-3235Y12073D01*
X-2449Y12248D01*
X2449D01*
X3235Y12073D01*
D02*
G37*
G36*
X304Y11402D02*
X346Y11191D01*
X466Y11011D01*
X646Y10891D01*
X857Y10849D01*
X1393D01*
X1604Y10891D01*
X1628Y10907D01*
X1749Y10835D01*
X1777Y10692D01*
X1881Y10536D01*
X2037Y10432D01*
X2220Y10396D01*
X2580D01*
X2763Y10432D01*
X2901Y10524D01*
X2973Y10503D01*
X3028Y10471D01*
Y10245D01*
X3056Y10101D01*
X3138Y9978D01*
X3261Y9896D01*
X3405Y9868D01*
X3545D01*
X3689Y9896D01*
X3725Y9920D01*
X3761Y9896D01*
X3905Y9868D01*
X4045D01*
X4189Y9896D01*
X4225Y9920D01*
X4261Y9896D01*
X4405Y9868D01*
X4545D01*
X4689Y9896D01*
X4725Y9920D01*
X4761Y9896D01*
X4905Y9868D01*
X5045D01*
X5116Y9882D01*
X5401Y9597D01*
Y9420D01*
X5436Y9248D01*
X5533Y9103D01*
X5678Y9006D01*
X5850Y8971D01*
X6150D01*
X6322Y9006D01*
X6467Y9103D01*
X6564Y9248D01*
X6595Y9402D01*
X6750Y9371D01*
X7050D01*
X7222Y9406D01*
X7367Y9503D01*
X7464Y9648D01*
X7499Y9820D01*
Y9842D01*
X7613Y9899D01*
X8034Y9575D01*
X8838Y8838D01*
X9492Y8125D01*
X9489Y8120D01*
X9399Y8033D01*
X9372Y8038D01*
X9346Y8049D01*
X9314Y8050D01*
X9282Y8056D01*
X6500D01*
X6500Y8056D01*
X6383Y8033D01*
X6284Y7966D01*
X6284Y7966D01*
X6178Y7861D01*
X6123Y7915D01*
X5827Y8086D01*
X5496Y8175D01*
X5154D01*
X4996Y8133D01*
X4903Y8239D01*
X4922Y8335D01*
Y8805D01*
X4894Y8949D01*
X4812Y9072D01*
X4689Y9154D01*
X4545Y9182D01*
X4405D01*
X4261Y9154D01*
X4225Y9130D01*
X4189Y9154D01*
X4045Y9182D01*
X3905D01*
X3761Y9154D01*
X3725Y9130D01*
X3689Y9154D01*
X3545Y9182D01*
X3405D01*
X3261Y9154D01*
X3138Y9072D01*
X3056Y8949D01*
X3028Y8805D01*
Y8335D01*
X3034Y8302D01*
X2930Y8175D01*
X2779D01*
X2501Y8100D01*
X2391Y8168D01*
X2375Y8191D01*
Y8446D01*
X2286Y8777D01*
X2115Y9073D01*
X1873Y9315D01*
X1577Y9486D01*
X1246Y9575D01*
X904D01*
X573Y9486D01*
X277Y9315D01*
X35Y9073D01*
X-136Y8777D01*
X-225Y8446D01*
Y8364D01*
X-233Y8325D01*
Y8037D01*
X-233Y8037D01*
X-202Y7880D01*
X-141Y7789D01*
X-136Y7773D01*
X35Y7477D01*
X277Y7235D01*
X542Y7082D01*
Y5050D01*
X469Y5001D01*
X367Y4849D01*
X331Y4669D01*
Y3811D01*
X367Y3631D01*
X469Y3479D01*
X473Y3436D01*
X367Y3330D01*
X278Y3197D01*
X247Y3041D01*
X247Y3041D01*
Y-3041D01*
X247Y-3041D01*
X278Y-3197D01*
X367Y-3330D01*
X542Y-3505D01*
Y-3750D01*
X542Y-3750D01*
X573Y-3906D01*
X642Y-4009D01*
X645Y-4017D01*
X635Y-4111D01*
X613Y-4170D01*
X527Y-4227D01*
X426Y-4378D01*
X391Y-4556D01*
Y-6144D01*
X426Y-6322D01*
X527Y-6473D01*
X592Y-6516D01*
Y-7050D01*
X592Y-7050D01*
X623Y-7206D01*
X712Y-7338D01*
X1262Y-7888D01*
X1262Y-7888D01*
X1394Y-7977D01*
X1550Y-8008D01*
X1550Y-8008D01*
X3650D01*
X3650Y-8008D01*
X3806Y-7977D01*
X3938Y-7888D01*
X4613Y-7213D01*
X4613Y-7213D01*
X4702Y-7081D01*
X4733Y-6925D01*
Y-3831D01*
X4850Y-3783D01*
X7034Y-5966D01*
X7133Y-6033D01*
X7250Y-6056D01*
X7250Y-6056D01*
X7657D01*
X7772Y-6133D01*
X7988Y-6176D01*
X8226D01*
X8274Y-6293D01*
X7291Y-7276D01*
X7225Y-7376D01*
X7201Y-7493D01*
X7201Y-7493D01*
Y-8534D01*
X7197Y-8570D01*
X7198Y-8590D01*
X7194Y-8609D01*
Y-10985D01*
X7203Y-11029D01*
X7207Y-11074D01*
X7214Y-11087D01*
X7217Y-11102D01*
X7242Y-11139D01*
X7264Y-11179D01*
X7239Y-11272D01*
X7217Y-11309D01*
X7013Y-11445D01*
X6094Y-11960D01*
X5137Y-12401D01*
X4148Y-12766D01*
X3133Y-13052D01*
X2330Y-13212D01*
X2330Y-13212D01*
X2330Y-13212D01*
X2203Y-13213D01*
X-2328D01*
X-2330Y-13212D01*
Y-13212D01*
X-2330Y-13212D01*
X-3133Y-13052D01*
X-4148Y-12766D01*
X-5137Y-12401D01*
X-6094Y-11960D01*
X-7013Y-11445D01*
X-7217Y-11309D01*
X-7239Y-11272D01*
X-7264Y-11179D01*
X-7242Y-11139D01*
X-7217Y-11102D01*
X-7214Y-11087D01*
X-7207Y-11074D01*
X-7203Y-11029D01*
X-7194Y-10985D01*
Y-8609D01*
X-7198Y-8590D01*
X-7197Y-8570D01*
X-7201Y-8534D01*
Y-7493D01*
X-7201Y-7493D01*
X-7225Y-7376D01*
X-7291Y-7276D01*
X-7507Y-7061D01*
X-5807Y-5362D01*
X-3612D01*
Y-5550D01*
X-3609Y-5564D01*
Y-6144D01*
X-3574Y-6322D01*
X-3473Y-6473D01*
X-3322Y-6574D01*
X-3144Y-6609D01*
X-2856D01*
X-2678Y-6574D01*
X-2527Y-6473D01*
X-2473D01*
X-2322Y-6574D01*
X-2144Y-6609D01*
X-1856D01*
X-1678Y-6574D01*
X-1595Y-6518D01*
X-1473Y-6473D01*
X-1322Y-6574D01*
X-1144Y-6609D01*
X-856D01*
X-678Y-6574D01*
X-527Y-6473D01*
X-426Y-6322D01*
X-391Y-6144D01*
Y-4556D01*
X-426Y-4378D01*
X-527Y-4227D01*
X-533Y-4076D01*
X-380Y-3923D01*
X-292Y-3791D01*
X-261Y-3635D01*
X-261Y-3635D01*
Y-3111D01*
X-247Y-3041D01*
X-247Y-3041D01*
Y4350D01*
X-247Y4350D01*
X-278Y4506D01*
X-331Y4585D01*
Y4669D01*
X-367Y4849D01*
X-469Y5001D01*
X-621Y5103D01*
X-801Y5139D01*
X-812D01*
X-2608Y6935D01*
X-2607Y6937D01*
X-2571Y7120D01*
Y7480D01*
X-2607Y7663D01*
X-2711Y7819D01*
X-2867Y7923D01*
X-3050Y7959D01*
X-3054D01*
X-3083Y8106D01*
X-3172Y8238D01*
X-3172Y8238D01*
X-3324Y8391D01*
Y8868D01*
X-3366Y9079D01*
X-3486Y9259D01*
X-3666Y9379D01*
X-3742Y9394D01*
Y10053D01*
X-3675Y10304D01*
Y10646D01*
X-3728Y10845D01*
X-3081Y11492D01*
X304D01*
Y11402D01*
D02*
G37*
G36*
X9303Y7736D02*
X9376Y7623D01*
X9344Y7463D01*
Y6238D01*
X9387Y6022D01*
X9425Y5965D01*
Y5535D01*
X9387Y5478D01*
X9344Y5262D01*
Y4188D01*
X9174Y4018D01*
X8729Y3911D01*
X8133Y3664D01*
X7583Y3327D01*
X7092Y2908D01*
X6673Y2417D01*
X6336Y1867D01*
X6089Y1271D01*
X5938Y643D01*
X5887Y0D01*
X5938Y-643D01*
X6089Y-1271D01*
X6336Y-1867D01*
X6673Y-2417D01*
X7092Y-2908D01*
X7583Y-3327D01*
X8133Y-3664D01*
X8729Y-3911D01*
X9357Y-4062D01*
X9425Y-4067D01*
Y-5269D01*
X9425Y-5269D01*
X9425Y-5269D01*
Y-5635D01*
X9310Y-5750D01*
X7250Y-5750D01*
X4750Y-3250D01*
X4750Y5572D01*
X4877Y5649D01*
X5154Y5575D01*
X5496D01*
X5827Y5664D01*
X6123Y5835D01*
X6365Y6077D01*
X6536Y6373D01*
X6625Y6704D01*
Y7046D01*
X6536Y7377D01*
X6386Y7636D01*
X6500Y7750D01*
X9282D01*
X9303Y7736D01*
D02*
G37*
G36*
X2448Y5664D02*
X2779Y5575D01*
X3121D01*
X3341Y5634D01*
X3442Y5557D01*
Y-3250D01*
X1341D01*
X1327Y-3180D01*
X1238Y-3048D01*
X1238Y-3048D01*
X1063Y-2872D01*
Y2872D01*
X1238Y3048D01*
X1238Y3048D01*
X1327Y3180D01*
X1358Y3336D01*
X1358Y3336D01*
Y3430D01*
X1431Y3479D01*
X1533Y3631D01*
X1569Y3811D01*
Y4669D01*
X1544Y4794D01*
X2426Y5676D01*
X2448Y5664D01*
D02*
G37*
G36*
X-1557Y4730D02*
X-1569Y4669D01*
Y3811D01*
X-1533Y3631D01*
X-1431Y3479D01*
X-1279Y3377D01*
X-1099Y3341D01*
X-1063D01*
Y-2986D01*
X-1077Y-3055D01*
X-1077Y-3055D01*
Y-3250D01*
X-2020D01*
X-2117Y-3185D01*
X-2351Y-3138D01*
X-3750D01*
Y5750D01*
X-2576D01*
X-1557Y4730D01*
D02*
G37*
G36*
X-5027Y6012D02*
Y-3399D01*
X-5005Y-3505D01*
X-5638Y-4138D01*
X-6061D01*
X-6295Y-4185D01*
X-6493Y-4317D01*
X-7926Y-5750D01*
X-8750Y-5750D01*
Y-3916D01*
X-8729Y-3911D01*
X-8133Y-3664D01*
X-7583Y-3327D01*
X-7092Y-2908D01*
X-6673Y-2417D01*
X-6336Y-1867D01*
X-6089Y-1271D01*
X-5938Y-643D01*
X-5887Y0D01*
X-5938Y643D01*
X-6089Y1271D01*
X-6336Y1867D01*
X-6673Y2417D01*
X-7092Y2908D01*
X-7583Y3327D01*
X-8133Y3664D01*
X-8729Y3911D01*
X-8750Y3916D01*
Y7750D01*
X-6765D01*
X-5027Y6012D01*
D02*
G37*
G36*
X12779Y-4101D02*
X12766Y-4148D01*
X12401Y-5137D01*
X11960Y-6094D01*
X11445Y-7013D01*
X10859Y-7890D01*
X10207Y-8717D01*
X9491Y-9491D01*
X8717Y-10207D01*
X7890Y-10859D01*
X7612Y-11045D01*
X7500Y-10985D01*
Y-8609D01*
X7507Y-8554D01*
Y-7493D01*
X8944Y-6056D01*
X9425D01*
X9542Y-6033D01*
X9641Y-5966D01*
X9708Y-5867D01*
X9731Y-5750D01*
Y-5269D01*
X11000Y-4000D01*
X12702D01*
X12779Y-4101D01*
D02*
G37*
G36*
X-567Y-3111D02*
Y-3605D01*
X-580Y-3672D01*
X-618Y-3728D01*
X-749Y-3860D01*
X-752Y-3865D01*
X-757Y-3868D01*
X-785Y-3914D01*
X-816Y-3959D01*
X-817Y-3965D01*
X-820Y-3970D01*
X-828Y-4023D01*
X-839Y-4076D01*
X-838Y-4082D01*
X-839Y-4087D01*
X-833Y-4239D01*
X-827Y-4262D01*
Y-4287D01*
X-814Y-4320D01*
X-805Y-4355D01*
X-791Y-4375D01*
X-782Y-4397D01*
X-715Y-4497D01*
X-697Y-4586D01*
Y-6114D01*
X-715Y-6203D01*
X-748Y-6252D01*
X-797Y-6285D01*
X-886Y-6303D01*
X-1114D01*
X-1203Y-6285D01*
X-1303Y-6218D01*
X-1325Y-6209D01*
X-1345Y-6195D01*
X-1380Y-6186D01*
X-1398Y-6179D01*
X-1391Y-6144D01*
Y-5564D01*
X-1388Y-5550D01*
Y-4101D01*
X-1435Y-3867D01*
X-1558Y-3683D01*
X-1533Y-3586D01*
X-1521Y-3556D01*
X-1077D01*
X-960Y-3533D01*
X-860Y-3466D01*
X-794Y-3367D01*
X-771Y-3250D01*
Y-3153D01*
X-732Y-3095D01*
X-580Y-3091D01*
X-567Y-3111D01*
D02*
G37*
G36*
X-7507Y-7493D02*
Y-8554D01*
X-7500Y-8609D01*
Y-10985D01*
X-7612Y-11045D01*
X-7890Y-10859D01*
X-8717Y-10207D01*
X-9491Y-9491D01*
X-10207Y-8717D01*
X-10859Y-7890D01*
X-11445Y-7013D01*
X-11960Y-6094D01*
X-12401Y-5137D01*
X-12766Y-4148D01*
X-12779Y-4101D01*
X-12702Y-4000D01*
X-11000D01*
X-7507Y-7493D01*
D02*
G37*
D10*
X860Y11900D02*
X1125Y11635D01*
X-4150Y11000D02*
X-3250Y11900D01*
X860D01*
X-4150Y10475D02*
Y11000D01*
X1125Y11725D02*
X1775D01*
X-4150Y8600D02*
Y10475D01*
X175Y8037D02*
X950Y7262D01*
X175Y8037D02*
Y8325D01*
X950Y4240D02*
Y7262D01*
X4015Y8185D02*
Y8530D01*
Y8185D02*
X5325Y6875D01*
X3975Y8570D02*
X4015Y8530D01*
X2890Y6850D02*
X3850Y5890D01*
X3475Y7887D02*
Y8570D01*
X2950Y7362D02*
X3475Y7887D01*
X2950Y6875D02*
Y7362D01*
X4325Y5875D02*
X5325Y6875D01*
X4475Y10500D02*
Y11105D01*
X3975Y10485D02*
Y11090D01*
X3475Y11085D02*
X5398D01*
X2490D02*
X3475D01*
Y10480D02*
Y11085D01*
X2450Y11125D02*
X2490Y11085D01*
X-887Y4582D02*
X-655Y4350D01*
Y-3041D02*
Y4350D01*
X-3250Y7000D02*
Y7350D01*
X1775Y11725D02*
X2425Y11075D01*
X5050Y10300D02*
X5275D01*
X-4110Y8600D02*
X-3460Y7950D01*
Y7485D02*
Y7950D01*
X-1000Y-5350D02*
Y-3966D01*
Y-5550D02*
Y-5350D01*
X-3250Y7000D02*
X-887Y4638D01*
Y4582D02*
Y4638D01*
X655Y-3041D02*
Y3041D01*
Y-3041D02*
X950Y-3336D01*
Y3336D02*
Y4237D01*
Y-3750D02*
X1100Y-3900D01*
X655Y3041D02*
X950Y3336D01*
Y-3750D02*
Y-3336D01*
X1100Y-3900D02*
X2600D01*
X5398Y11085D02*
X5988Y10495D01*
X6000D01*
X6821Y9886D02*
X6900Y9965D01*
X6461Y9886D02*
X6821D01*
X6300Y9725D02*
X6461Y9886D01*
X6000Y9565D02*
X6160Y9725D01*
X6300D01*
X1000Y-7050D02*
X1550Y-7600D01*
X3650D02*
X4325Y-6925D01*
X1550Y-7600D02*
X3650D01*
X3425Y-7050D02*
X3850Y-6625D01*
X2150Y-7050D02*
X3425D01*
X2000Y-6900D02*
X2150Y-7050D01*
X3850Y-6625D02*
Y5890D01*
X4325Y-6925D02*
Y5875D01*
X1000Y-7050D02*
Y-5550D01*
X2000Y-6900D02*
Y-5550D01*
X6000Y9565D02*
Y9575D01*
X5275Y10300D02*
X6000Y9575D01*
X3000Y-5550D02*
Y-4300D01*
X2600Y-3900D02*
X3000Y-4300D01*
X-669Y-3055D02*
X-655Y-3041D01*
X-669Y-3635D02*
Y-3055D01*
X-1000Y-3966D02*
X-669Y-3635D01*
D12*
X-11160Y-5000D02*
D03*
X-8240D02*
D03*
X-10160Y6850D02*
D03*
X-7240D02*
D03*
X-10160Y4650D02*
D03*
X-7240D02*
D03*
X-5810Y2300D02*
D03*
X-2890D02*
D03*
X-5810Y4600D02*
D03*
X-2890D02*
D03*
X-5810Y-2300D02*
D03*
X-2890D02*
D03*
X-1460Y2200D02*
D03*
X1460D02*
D03*
X-1460Y0D02*
D03*
X1460D02*
D03*
X-1460Y-2200D02*
D03*
X1460D02*
D03*
X7240Y4650D02*
D03*
X10160D02*
D03*
X2890Y-2300D02*
D03*
X5810D02*
D03*
X2890Y4600D02*
D03*
X5810D02*
D03*
X2890Y2300D02*
D03*
X5810D02*
D03*
X8240Y-5000D02*
D03*
X11160D02*
D03*
X7240Y6850D02*
D03*
X10160D02*
D03*
D13*
X-3000Y-5350D02*
D03*
X-2000D02*
D03*
X-1000Y-5350D02*
D03*
X0D02*
D03*
X1000D02*
D03*
X2000D02*
D03*
X3000Y-5350D02*
D03*
D14*
X-6150Y-7700D02*
D03*
X6150Y-7700D02*
D03*
D15*
X-2280Y7300D02*
D03*
X-3220D02*
D03*
D16*
X1125Y10165D02*
D03*
Y11635D02*
D03*
D17*
X-2640Y8600D02*
D03*
X-4110D02*
D03*
D18*
X6000Y10495D02*
D03*
Y9565D02*
D03*
X6900Y9965D02*
D03*
Y9035D02*
D03*
D19*
X2400Y10105D02*
D03*
Y11045D02*
D03*
D20*
X3475Y8570D02*
D03*
X3975D02*
D03*
X4475D02*
D03*
X4975D02*
D03*
Y10480D02*
D03*
X4475D02*
D03*
X3975D02*
D03*
X3475D02*
D03*
D21*
X4225Y9525D02*
D03*
D22*
X-950Y4240D02*
D03*
X950D02*
D03*
X0Y6310D02*
D03*
D36*
X9483Y3462D02*
G03*
X10269Y-3490I517J-3462D01*
G01*
X10160Y8269D02*
G03*
X2500Y12859I-10160J-8269D01*
G01*
X-2500D02*
G03*
X-7425Y10793I2500J-12859D01*
G01*
X-10269Y-3490D02*
G03*
X-9483Y3462I269J3490D01*
G01*
X11160Y-6798D02*
Y-5000D01*
X9314Y-7386D02*
X10573D01*
X9200Y-7500D02*
X9314Y-7386D01*
X10573D02*
X11160Y-6798D01*
X10997Y-5187D02*
Y-4218D01*
X-4415Y-3399D02*
Y6265D01*
X-2351Y-3750D02*
X-2000Y-4101D01*
X-4063Y-3750D02*
X-2351D01*
X-4415Y-3399D02*
X-4063Y-3750D01*
X-2000Y-5550D02*
Y-4101D01*
X-6061Y-4750D02*
X-3250D01*
X-9750Y-6750D02*
X-8061D01*
X-6061Y-4750D01*
X-3100Y-4900D02*
X-3000D01*
X-10997Y-5187D02*
Y-4218D01*
X-11160Y-5350D02*
X-10997Y-5187D01*
X-11250Y-5270D02*
X-10955Y-5565D01*
X-10935D01*
X-9750Y-6750D01*
X-11250Y-5270D02*
Y-5250D01*
X-3000Y-5550D02*
Y-4900D01*
X-3250Y-4750D02*
X-3100Y-4900D01*
X-10160Y4139D02*
X-9483Y3462D01*
X-10160Y4139D02*
Y4500D01*
X10160Y4139D02*
Y6850D01*
X9483Y3462D02*
X10160Y4139D01*
X10269Y-3490D02*
X10997Y-4218D01*
X10160Y6850D02*
Y8269D01*
X-2500Y12859D02*
X2500D01*
X-7425Y9275D02*
Y10793D01*
Y9275D02*
X-4415Y6265D01*
X-10997Y-4218D02*
X-10269Y-3490D01*
D37*
X-9200Y-7500D02*
D03*
X9200D02*
D03*
X-4975Y10475D02*
D03*
X5325Y6875D02*
D03*
X2950D02*
D03*
X1075Y8275D02*
D03*
X-2700Y10475D02*
D03*
D38*
X-1350Y7660D02*
Y9325D01*
X-500Y10175D01*
X-1350Y7660D02*
X0Y6310D01*
Y-6775D02*
Y-5350D01*
X-500Y10175D02*
X1125D01*
X-6150Y-7900D02*
X-5375Y-7125D01*
X0Y-5350D02*
Y6310D01*
X1325Y-8100D02*
X5950D01*
X6150Y-7900D01*
X0Y-6775D02*
X1325Y-8100D01*
X-5375Y-7125D02*
X-350D01*
X0Y-6775D01*
D39*
X-10160Y4650D02*
Y6850D01*
Y4590D02*
Y4650D01*
X-10250Y4500D02*
X-10160Y4590D01*
D40*
X-7425Y10793D02*
Y10850D01*
D41*
X-10000Y0D02*
D03*
X10000D02*
D03*
M02*
