G04*
G04 #@! TF.GenerationSoftware,Altium Limited,Altium Designer,22.3.1 (43)*
G04*
G04 Layer_Color=65535*
%FSLAX43Y43*%
%MOMM*%
G71*
G04*
G04 #@! TF.SameCoordinates,F389CC65-E95C-4BCE-9A9B-47759D9C4056*
G04*
G04*
G04 #@! TF.FilePolarity,Positive*
G04*
G01*
G75*
%ADD10C,0.200*%
G36*
X1292Y-3403D02*
X1297D01*
X1303Y-3403D01*
X1309Y-3404D01*
X1322Y-3405D01*
X1337Y-3407D01*
X1351Y-3409D01*
X1365Y-3413D01*
X1366D01*
X1367Y-3413D01*
X1369Y-3414D01*
X1372Y-3415D01*
X1375Y-3416D01*
X1379Y-3417D01*
X1387Y-3421D01*
X1397Y-3425D01*
X1408Y-3430D01*
X1418Y-3436D01*
X1428Y-3443D01*
X1429D01*
X1429Y-3444D01*
X1432Y-3446D01*
X1437Y-3451D01*
X1442Y-3456D01*
X1448Y-3463D01*
X1455Y-3471D01*
X1461Y-3480D01*
X1466Y-3490D01*
Y-3491D01*
X1467Y-3491D01*
X1467Y-3493D01*
X1468Y-3495D01*
X1469Y-3498D01*
X1470Y-3501D01*
X1473Y-3508D01*
X1475Y-3518D01*
X1477Y-3528D01*
X1479Y-3540D01*
X1479Y-3553D01*
Y-3553D01*
Y-3555D01*
Y-3558D01*
X1479Y-3562D01*
Y-3566D01*
X1478Y-3571D01*
X1477Y-3578D01*
X1476Y-3584D01*
X1473Y-3598D01*
X1469Y-3613D01*
X1466Y-3620D01*
X1463Y-3627D01*
X1458Y-3634D01*
X1454Y-3640D01*
X1453Y-3641D01*
X1453Y-3642D01*
X1451Y-3644D01*
X1449Y-3646D01*
X1447Y-3649D01*
X1444Y-3652D01*
X1440Y-3656D01*
X1436Y-3659D01*
X1431Y-3664D01*
X1426Y-3668D01*
X1420Y-3672D01*
X1414Y-3677D01*
X1400Y-3685D01*
X1384Y-3692D01*
X1386D01*
X1387Y-3693D01*
X1389Y-3693D01*
X1394Y-3694D01*
X1402Y-3696D01*
X1410Y-3698D01*
X1419Y-3701D01*
X1427Y-3704D01*
X1437Y-3708D01*
X1437D01*
X1438Y-3709D01*
X1441Y-3710D01*
X1445Y-3713D01*
X1450Y-3716D01*
X1456Y-3720D01*
X1463Y-3725D01*
X1470Y-3730D01*
X1476Y-3737D01*
X1477Y-3738D01*
X1479Y-3740D01*
X1482Y-3744D01*
X1486Y-3749D01*
X1490Y-3754D01*
X1494Y-3761D01*
X1499Y-3769D01*
X1502Y-3777D01*
X1503Y-3778D01*
X1504Y-3781D01*
X1505Y-3786D01*
X1507Y-3792D01*
X1508Y-3799D01*
X1510Y-3808D01*
X1511Y-3818D01*
X1511Y-3828D01*
Y-3828D01*
Y-3830D01*
Y-3832D01*
Y-3836D01*
X1511Y-3839D01*
X1510Y-3844D01*
X1510Y-3849D01*
X1509Y-3854D01*
X1507Y-3867D01*
X1504Y-3880D01*
X1500Y-3894D01*
X1495Y-3908D01*
Y-3908D01*
X1494Y-3909D01*
X1493Y-3911D01*
X1491Y-3914D01*
X1490Y-3917D01*
X1487Y-3920D01*
X1482Y-3929D01*
X1475Y-3938D01*
X1467Y-3948D01*
X1456Y-3958D01*
X1444Y-3968D01*
X1444Y-3969D01*
X1443Y-3969D01*
X1441Y-3971D01*
X1438Y-3972D01*
X1435Y-3974D01*
X1431Y-3977D01*
X1426Y-3979D01*
X1421Y-3982D01*
X1415Y-3985D01*
X1408Y-3988D01*
X1401Y-3992D01*
X1393Y-3995D01*
X1386Y-3998D01*
X1377Y-4001D01*
X1358Y-4006D01*
X1358D01*
X1356Y-4007D01*
X1353Y-4007D01*
X1349Y-4008D01*
X1344Y-4009D01*
X1338Y-4010D01*
X1331Y-4012D01*
X1324Y-4013D01*
X1315Y-4014D01*
X1306Y-4015D01*
X1296Y-4016D01*
X1285Y-4017D01*
X1274Y-4018D01*
X1262Y-4019D01*
X1249Y-4019D01*
X1227D01*
X1222Y-4019D01*
X1216D01*
X1204Y-4018D01*
X1201D01*
X1198Y-4018D01*
X1188D01*
X1182Y-4017D01*
X1170Y-4016D01*
X1167D01*
X1164Y-4016D01*
X1160D01*
X1155Y-4015D01*
X1149Y-4015D01*
X1137Y-4014D01*
X1136D01*
X1134Y-4013D01*
X1131D01*
X1127Y-4013D01*
X1123Y-4012D01*
X1118Y-4012D01*
X1108Y-4010D01*
Y-3913D01*
X1110D01*
X1112Y-3914D01*
X1114Y-3914D01*
X1116Y-3915D01*
X1119Y-3915D01*
X1127Y-3916D01*
X1137Y-3918D01*
X1148Y-3919D01*
X1160Y-3921D01*
X1173Y-3922D01*
X1174D01*
X1177Y-3923D01*
X1183D01*
X1187Y-3923D01*
X1191D01*
X1196Y-3924D01*
X1207Y-3924D01*
X1220Y-3925D01*
X1233Y-3925D01*
X1257D01*
X1261Y-3925D01*
X1270Y-3924D01*
X1280Y-3924D01*
X1291Y-3923D01*
X1303Y-3921D01*
X1313Y-3919D01*
X1314D01*
X1314Y-3919D01*
X1316D01*
X1318Y-3918D01*
X1323Y-3917D01*
X1329Y-3915D01*
X1336Y-3912D01*
X1344Y-3909D01*
X1351Y-3905D01*
X1358Y-3901D01*
X1359Y-3901D01*
X1361Y-3899D01*
X1364Y-3897D01*
X1369Y-3893D01*
X1373Y-3888D01*
X1377Y-3883D01*
X1381Y-3878D01*
X1385Y-3871D01*
X1385Y-3870D01*
X1386Y-3868D01*
X1387Y-3865D01*
X1389Y-3859D01*
X1391Y-3853D01*
X1392Y-3847D01*
X1393Y-3839D01*
X1393Y-3831D01*
Y-3830D01*
Y-3827D01*
X1393Y-3824D01*
X1392Y-3819D01*
X1391Y-3814D01*
X1389Y-3808D01*
X1387Y-3802D01*
X1384Y-3795D01*
X1384Y-3795D01*
X1383Y-3793D01*
X1381Y-3790D01*
X1378Y-3786D01*
X1374Y-3782D01*
X1370Y-3777D01*
X1364Y-3773D01*
X1358Y-3768D01*
X1357Y-3767D01*
X1355Y-3766D01*
X1351Y-3764D01*
X1346Y-3761D01*
X1339Y-3759D01*
X1331Y-3756D01*
X1322Y-3753D01*
X1312Y-3751D01*
X1312D01*
X1311Y-3750D01*
X1310D01*
X1307Y-3750D01*
X1305Y-3749D01*
X1301Y-3749D01*
X1294Y-3747D01*
X1284Y-3746D01*
X1273Y-3745D01*
X1260Y-3745D01*
X1247Y-3744D01*
X1181D01*
Y-3659D01*
X1250D01*
X1254Y-3658D01*
X1262Y-3658D01*
X1271Y-3657D01*
X1281Y-3656D01*
X1291Y-3654D01*
X1300Y-3652D01*
X1300D01*
X1301Y-3652D01*
X1304Y-3651D01*
X1308Y-3649D01*
X1314Y-3647D01*
X1320Y-3645D01*
X1326Y-3641D01*
X1332Y-3637D01*
X1338Y-3633D01*
X1338Y-3633D01*
X1340Y-3631D01*
X1343Y-3629D01*
X1346Y-3625D01*
X1349Y-3621D01*
X1352Y-3616D01*
X1355Y-3611D01*
X1358Y-3605D01*
X1358Y-3604D01*
X1359Y-3602D01*
X1360Y-3599D01*
X1361Y-3595D01*
X1362Y-3590D01*
X1363Y-3584D01*
X1364Y-3578D01*
Y-3571D01*
Y-3570D01*
Y-3569D01*
Y-3567D01*
X1363Y-3565D01*
Y-3562D01*
X1363Y-3558D01*
X1361Y-3550D01*
X1358Y-3541D01*
X1354Y-3532D01*
X1348Y-3523D01*
X1344Y-3519D01*
X1340Y-3516D01*
X1340D01*
X1339Y-3514D01*
X1338Y-3513D01*
X1336Y-3512D01*
X1333Y-3511D01*
X1330Y-3509D01*
X1326Y-3508D01*
X1322Y-3506D01*
X1317Y-3504D01*
X1312Y-3502D01*
X1306Y-3501D01*
X1299Y-3499D01*
X1292Y-3498D01*
X1284Y-3497D01*
X1276Y-3496D01*
X1257D01*
X1253Y-3497D01*
X1249D01*
X1244Y-3497D01*
X1233Y-3498D01*
X1222Y-3499D01*
X1209Y-3501D01*
X1196Y-3503D01*
X1195D01*
X1194Y-3504D01*
X1192D01*
X1190Y-3504D01*
X1187Y-3505D01*
X1183Y-3506D01*
X1179Y-3507D01*
X1174Y-3508D01*
X1163Y-3511D01*
X1151Y-3514D01*
X1138Y-3518D01*
X1125Y-3522D01*
Y-3428D01*
X1126Y-3427D01*
X1128Y-3427D01*
X1132Y-3425D01*
X1137Y-3424D01*
X1143Y-3422D01*
X1150Y-3420D01*
X1164Y-3416D01*
X1165D01*
X1167Y-3415D01*
X1171Y-3415D01*
X1176Y-3414D01*
X1181Y-3412D01*
X1188Y-3411D01*
X1201Y-3409D01*
X1202D01*
X1204Y-3408D01*
X1209Y-3408D01*
X1213Y-3407D01*
X1219Y-3406D01*
X1225Y-3405D01*
X1239Y-3404D01*
X1240D01*
X1243Y-3403D01*
X1246D01*
X1251Y-3403D01*
X1257D01*
X1264Y-3402D01*
X1287D01*
X1292Y-3403D01*
D02*
G37*
G36*
X3442Y-3911D02*
X3573D01*
Y-4010D01*
X3175D01*
Y-3911D01*
X3327D01*
Y-3527D01*
X3195Y-3600D01*
X3158Y-3509D01*
X3348Y-3408D01*
X3442D01*
Y-3911D01*
D02*
G37*
G36*
X790Y-3403D02*
X795D01*
X800Y-3403D01*
X806Y-3404D01*
X818Y-3405D01*
X831Y-3407D01*
X845Y-3410D01*
X859Y-3414D01*
X859D01*
X860Y-3414D01*
X862Y-3415D01*
X865Y-3416D01*
X868Y-3417D01*
X871Y-3418D01*
X880Y-3422D01*
X890Y-3427D01*
X900Y-3433D01*
X910Y-3439D01*
X920Y-3447D01*
X920D01*
X921Y-3448D01*
X924Y-3451D01*
X929Y-3456D01*
X934Y-3462D01*
X941Y-3470D01*
X947Y-3479D01*
X954Y-3490D01*
X959Y-3502D01*
Y-3502D01*
X960Y-3503D01*
X961Y-3505D01*
X961Y-3507D01*
X963Y-3511D01*
X964Y-3514D01*
X965Y-3519D01*
X966Y-3524D01*
X969Y-3535D01*
X971Y-3548D01*
X973Y-3562D01*
X973Y-3578D01*
Y-3578D01*
Y-3579D01*
Y-3581D01*
Y-3584D01*
X973Y-3587D01*
Y-3591D01*
X972Y-3599D01*
X971Y-3609D01*
X969Y-3621D01*
X967Y-3633D01*
X964Y-3645D01*
Y-3645D01*
X963Y-3646D01*
X963Y-3648D01*
X962Y-3650D01*
X961Y-3653D01*
X960Y-3656D01*
X957Y-3663D01*
X952Y-3672D01*
X948Y-3683D01*
X942Y-3693D01*
X936Y-3704D01*
Y-3705D01*
X935Y-3706D01*
X934Y-3708D01*
X933Y-3710D01*
X931Y-3712D01*
X929Y-3715D01*
X923Y-3723D01*
X916Y-3732D01*
X909Y-3742D01*
X900Y-3752D01*
X891Y-3763D01*
X890Y-3764D01*
X890Y-3765D01*
X888Y-3766D01*
X886Y-3769D01*
X883Y-3771D01*
X880Y-3774D01*
X873Y-3782D01*
X864Y-3791D01*
X853Y-3802D01*
X842Y-3813D01*
X830Y-3825D01*
X743Y-3907D01*
X995D01*
Y-4010D01*
X589D01*
Y-3928D01*
X730Y-3787D01*
X730Y-3786D01*
X732Y-3785D01*
X734Y-3783D01*
X737Y-3780D01*
X740Y-3777D01*
X744Y-3773D01*
X753Y-3763D01*
X763Y-3753D01*
X774Y-3741D01*
X784Y-3729D01*
X794Y-3718D01*
X794Y-3718D01*
X795Y-3717D01*
X796Y-3715D01*
X798Y-3713D01*
X802Y-3708D01*
X807Y-3701D01*
X813Y-3693D01*
X819Y-3684D01*
X826Y-3676D01*
X831Y-3667D01*
Y-3666D01*
X831Y-3666D01*
X833Y-3663D01*
X835Y-3659D01*
X838Y-3653D01*
X841Y-3647D01*
X843Y-3639D01*
X846Y-3632D01*
X848Y-3625D01*
Y-3624D01*
X848Y-3621D01*
X849Y-3618D01*
X850Y-3613D01*
X851Y-3606D01*
X852Y-3600D01*
X852Y-3593D01*
Y-3585D01*
Y-3584D01*
Y-3582D01*
X852Y-3579D01*
Y-3574D01*
X851Y-3569D01*
X850Y-3564D01*
X849Y-3558D01*
X847Y-3553D01*
Y-3552D01*
X846Y-3550D01*
X844Y-3547D01*
X843Y-3543D01*
X840Y-3539D01*
X838Y-3535D01*
X831Y-3526D01*
X830Y-3526D01*
X829Y-3524D01*
X827Y-3522D01*
X823Y-3520D01*
X819Y-3517D01*
X815Y-3514D01*
X809Y-3511D01*
X804Y-3508D01*
X803Y-3508D01*
X801Y-3507D01*
X798Y-3506D01*
X794Y-3505D01*
X788Y-3503D01*
X782Y-3502D01*
X775Y-3502D01*
X768Y-3501D01*
X761D01*
X758Y-3502D01*
X755Y-3502D01*
X746Y-3503D01*
X736Y-3505D01*
X725Y-3508D01*
X714Y-3512D01*
X702Y-3517D01*
X702D01*
X701Y-3518D01*
X699Y-3519D01*
X697Y-3520D01*
X694Y-3521D01*
X691Y-3523D01*
X684Y-3528D01*
X675Y-3534D01*
X665Y-3540D01*
X655Y-3549D01*
X645Y-3558D01*
X586Y-3482D01*
X587Y-3481D01*
X588Y-3480D01*
X590Y-3478D01*
X593Y-3476D01*
X597Y-3473D01*
X601Y-3469D01*
X606Y-3465D01*
X612Y-3461D01*
X618Y-3457D01*
X624Y-3452D01*
X640Y-3442D01*
X656Y-3433D01*
X674Y-3424D01*
X674Y-3424D01*
X676Y-3423D01*
X679Y-3422D01*
X682Y-3421D01*
X687Y-3419D01*
X692Y-3417D01*
X698Y-3415D01*
X705Y-3413D01*
X713Y-3411D01*
X721Y-3409D01*
X729Y-3407D01*
X739Y-3406D01*
X758Y-3403D01*
X769Y-3402D01*
X787D01*
X790Y-3403D01*
D02*
G37*
G36*
X-164Y-3911D02*
X-33D01*
Y-4010D01*
X-431D01*
Y-3911D01*
X-278D01*
Y-3527D01*
X-411Y-3600D01*
X-448Y-3509D01*
X-258Y-3408D01*
X-164D01*
Y-3911D01*
D02*
G37*
G36*
X-755Y-3403D02*
X-750D01*
X-745Y-3403D01*
X-740Y-3404D01*
X-727Y-3405D01*
X-714Y-3407D01*
X-701Y-3410D01*
X-687Y-3414D01*
X-686D01*
X-685Y-3414D01*
X-683Y-3415D01*
X-681Y-3416D01*
X-678Y-3417D01*
X-674Y-3418D01*
X-665Y-3422D01*
X-656Y-3427D01*
X-646Y-3433D01*
X-636Y-3439D01*
X-625Y-3447D01*
X-625D01*
X-624Y-3448D01*
X-621Y-3451D01*
X-617Y-3456D01*
X-611Y-3462D01*
X-605Y-3470D01*
X-598Y-3479D01*
X-592Y-3490D01*
X-586Y-3502D01*
Y-3502D01*
X-586Y-3503D01*
X-585Y-3505D01*
X-584Y-3507D01*
X-583Y-3511D01*
X-582Y-3514D01*
X-581Y-3519D01*
X-579Y-3524D01*
X-577Y-3535D01*
X-574Y-3548D01*
X-573Y-3562D01*
X-572Y-3578D01*
Y-3578D01*
Y-3579D01*
Y-3581D01*
Y-3584D01*
X-573Y-3587D01*
Y-3591D01*
X-573Y-3599D01*
X-575Y-3609D01*
X-576Y-3621D01*
X-579Y-3633D01*
X-582Y-3645D01*
Y-3645D01*
X-582Y-3646D01*
X-583Y-3648D01*
X-583Y-3650D01*
X-584Y-3653D01*
X-586Y-3656D01*
X-589Y-3663D01*
X-593Y-3672D01*
X-597Y-3683D01*
X-603Y-3693D01*
X-610Y-3704D01*
Y-3705D01*
X-611Y-3706D01*
X-612Y-3708D01*
X-613Y-3710D01*
X-615Y-3712D01*
X-617Y-3715D01*
X-622Y-3723D01*
X-629Y-3732D01*
X-637Y-3742D01*
X-645Y-3752D01*
X-655Y-3763D01*
X-655Y-3764D01*
X-656Y-3765D01*
X-657Y-3766D01*
X-659Y-3769D01*
X-662Y-3771D01*
X-665Y-3774D01*
X-673Y-3782D01*
X-682Y-3791D01*
X-692Y-3802D01*
X-704Y-3813D01*
X-716Y-3825D01*
X-803Y-3907D01*
X-551D01*
Y-4010D01*
X-957D01*
Y-3928D01*
X-815Y-3787D01*
X-815Y-3786D01*
X-814Y-3785D01*
X-811Y-3783D01*
X-809Y-3780D01*
X-805Y-3777D01*
X-802Y-3773D01*
X-792Y-3763D01*
X-782Y-3753D01*
X-772Y-3741D01*
X-761Y-3729D01*
X-752Y-3718D01*
X-751Y-3718D01*
X-751Y-3717D01*
X-749Y-3715D01*
X-748Y-3713D01*
X-743Y-3708D01*
X-738Y-3701D01*
X-732Y-3693D01*
X-726Y-3684D01*
X-720Y-3676D01*
X-715Y-3667D01*
Y-3666D01*
X-714Y-3666D01*
X-713Y-3663D01*
X-710Y-3659D01*
X-708Y-3653D01*
X-705Y-3647D01*
X-702Y-3639D01*
X-700Y-3632D01*
X-697Y-3625D01*
Y-3624D01*
X-697Y-3621D01*
X-696Y-3618D01*
X-695Y-3613D01*
X-694Y-3606D01*
X-693Y-3600D01*
X-693Y-3593D01*
Y-3585D01*
Y-3584D01*
Y-3582D01*
X-693Y-3579D01*
Y-3574D01*
X-694Y-3569D01*
X-695Y-3564D01*
X-696Y-3558D01*
X-698Y-3553D01*
Y-3552D01*
X-700Y-3550D01*
X-701Y-3547D01*
X-703Y-3543D01*
X-705Y-3539D01*
X-708Y-3535D01*
X-715Y-3526D01*
X-715Y-3526D01*
X-717Y-3524D01*
X-719Y-3522D01*
X-722Y-3520D01*
X-726Y-3517D01*
X-730Y-3514D01*
X-736Y-3511D01*
X-742Y-3508D01*
X-742Y-3508D01*
X-744Y-3507D01*
X-748Y-3506D01*
X-752Y-3505D01*
X-757Y-3503D01*
X-764Y-3502D01*
X-770Y-3502D01*
X-778Y-3501D01*
X-784D01*
X-787Y-3502D01*
X-790Y-3502D01*
X-799Y-3503D01*
X-809Y-3505D01*
X-820Y-3508D01*
X-832Y-3512D01*
X-843Y-3517D01*
X-844D01*
X-845Y-3518D01*
X-846Y-3519D01*
X-848Y-3520D01*
X-851Y-3521D01*
X-854Y-3523D01*
X-862Y-3528D01*
X-870Y-3534D01*
X-880Y-3540D01*
X-890Y-3549D01*
X-900Y-3558D01*
X-959Y-3482D01*
X-959Y-3481D01*
X-958Y-3480D01*
X-955Y-3478D01*
X-952Y-3476D01*
X-948Y-3473D01*
X-944Y-3469D01*
X-939Y-3465D01*
X-934Y-3461D01*
X-928Y-3457D01*
X-921Y-3452D01*
X-906Y-3442D01*
X-890Y-3433D01*
X-872Y-3424D01*
X-871Y-3424D01*
X-870Y-3423D01*
X-867Y-3422D01*
X-863Y-3421D01*
X-859Y-3419D01*
X-853Y-3417D01*
X-847Y-3415D01*
X-840Y-3413D01*
X-833Y-3411D01*
X-824Y-3409D01*
X-816Y-3407D01*
X-807Y-3406D01*
X-787Y-3403D01*
X-777Y-3402D01*
X-758D01*
X-755Y-3403D01*
D02*
G37*
G36*
X-1270D02*
X-1265D01*
X-1260Y-3403D01*
X-1255Y-3404D01*
X-1243Y-3405D01*
X-1229Y-3407D01*
X-1216Y-3410D01*
X-1202Y-3414D01*
X-1201D01*
X-1200Y-3414D01*
X-1198Y-3415D01*
X-1196Y-3416D01*
X-1193Y-3417D01*
X-1189Y-3418D01*
X-1181Y-3422D01*
X-1171Y-3427D01*
X-1161Y-3433D01*
X-1151Y-3439D01*
X-1140Y-3447D01*
X-1140D01*
X-1139Y-3448D01*
X-1136Y-3451D01*
X-1132Y-3456D01*
X-1126Y-3462D01*
X-1120Y-3470D01*
X-1113Y-3479D01*
X-1107Y-3490D01*
X-1101Y-3502D01*
Y-3502D01*
X-1101Y-3503D01*
X-1100Y-3505D01*
X-1099Y-3507D01*
X-1098Y-3511D01*
X-1097Y-3514D01*
X-1096Y-3519D01*
X-1094Y-3524D01*
X-1092Y-3535D01*
X-1089Y-3548D01*
X-1088Y-3562D01*
X-1087Y-3578D01*
Y-3578D01*
Y-3579D01*
Y-3581D01*
Y-3584D01*
X-1088Y-3587D01*
Y-3591D01*
X-1088Y-3599D01*
X-1090Y-3609D01*
X-1091Y-3621D01*
X-1094Y-3633D01*
X-1097Y-3645D01*
Y-3645D01*
X-1097Y-3646D01*
X-1098Y-3648D01*
X-1098Y-3650D01*
X-1099Y-3653D01*
X-1101Y-3656D01*
X-1104Y-3663D01*
X-1108Y-3672D01*
X-1113Y-3683D01*
X-1118Y-3693D01*
X-1125Y-3704D01*
Y-3705D01*
X-1126Y-3706D01*
X-1127Y-3708D01*
X-1128Y-3710D01*
X-1130Y-3712D01*
X-1132Y-3715D01*
X-1137Y-3723D01*
X-1144Y-3732D01*
X-1152Y-3742D01*
X-1160Y-3752D01*
X-1170Y-3763D01*
X-1170Y-3764D01*
X-1171Y-3765D01*
X-1172Y-3766D01*
X-1174Y-3769D01*
X-1177Y-3771D01*
X-1180Y-3774D01*
X-1188Y-3782D01*
X-1197Y-3791D01*
X-1207Y-3802D01*
X-1219Y-3813D01*
X-1231Y-3825D01*
X-1318Y-3907D01*
X-1066D01*
Y-4010D01*
X-1472D01*
Y-3928D01*
X-1330Y-3787D01*
X-1330Y-3786D01*
X-1329Y-3785D01*
X-1326Y-3783D01*
X-1324Y-3780D01*
X-1320Y-3777D01*
X-1317Y-3773D01*
X-1308Y-3763D01*
X-1297Y-3753D01*
X-1287Y-3741D01*
X-1277Y-3729D01*
X-1267Y-3718D01*
X-1266Y-3718D01*
X-1266Y-3717D01*
X-1264Y-3715D01*
X-1263Y-3713D01*
X-1258Y-3708D01*
X-1253Y-3701D01*
X-1247Y-3693D01*
X-1241Y-3684D01*
X-1235Y-3676D01*
X-1230Y-3667D01*
Y-3666D01*
X-1229Y-3666D01*
X-1228Y-3663D01*
X-1225Y-3659D01*
X-1223Y-3653D01*
X-1220Y-3647D01*
X-1217Y-3639D01*
X-1215Y-3632D01*
X-1213Y-3625D01*
Y-3624D01*
X-1212Y-3621D01*
X-1211Y-3618D01*
X-1210Y-3613D01*
X-1210Y-3606D01*
X-1209Y-3600D01*
X-1208Y-3593D01*
Y-3585D01*
Y-3584D01*
Y-3582D01*
X-1209Y-3579D01*
Y-3574D01*
X-1210Y-3569D01*
X-1211Y-3564D01*
X-1212Y-3558D01*
X-1214Y-3553D01*
Y-3552D01*
X-1215Y-3550D01*
X-1216Y-3547D01*
X-1218Y-3543D01*
X-1220Y-3539D01*
X-1223Y-3535D01*
X-1230Y-3526D01*
X-1230Y-3526D01*
X-1232Y-3524D01*
X-1234Y-3522D01*
X-1237Y-3520D01*
X-1241Y-3517D01*
X-1246Y-3514D01*
X-1251Y-3511D01*
X-1257Y-3508D01*
X-1257Y-3508D01*
X-1259Y-3507D01*
X-1263Y-3506D01*
X-1267Y-3505D01*
X-1273Y-3503D01*
X-1279Y-3502D01*
X-1285Y-3502D01*
X-1293Y-3501D01*
X-1299D01*
X-1302Y-3502D01*
X-1306Y-3502D01*
X-1314Y-3503D01*
X-1324Y-3505D01*
X-1335Y-3508D01*
X-1347Y-3512D01*
X-1358Y-3517D01*
X-1359D01*
X-1360Y-3518D01*
X-1361Y-3519D01*
X-1363Y-3520D01*
X-1366Y-3521D01*
X-1369Y-3523D01*
X-1377Y-3528D01*
X-1385Y-3534D01*
X-1395Y-3540D01*
X-1405Y-3549D01*
X-1415Y-3558D01*
X-1474Y-3482D01*
X-1474Y-3481D01*
X-1473Y-3480D01*
X-1470Y-3478D01*
X-1468Y-3476D01*
X-1464Y-3473D01*
X-1459Y-3469D01*
X-1454Y-3465D01*
X-1449Y-3461D01*
X-1443Y-3457D01*
X-1436Y-3452D01*
X-1421Y-3442D01*
X-1405Y-3433D01*
X-1387Y-3424D01*
X-1386Y-3424D01*
X-1385Y-3423D01*
X-1382Y-3422D01*
X-1378Y-3421D01*
X-1374Y-3419D01*
X-1369Y-3417D01*
X-1362Y-3415D01*
X-1355Y-3413D01*
X-1348Y-3411D01*
X-1340Y-3409D01*
X-1331Y-3407D01*
X-1322Y-3406D01*
X-1302Y-3403D01*
X-1292Y-3402D01*
X-1274D01*
X-1270Y-3403D01*
D02*
G37*
G36*
X-2300D02*
X-2296D01*
X-2291Y-3403D01*
X-2285Y-3404D01*
X-2273Y-3405D01*
X-2260Y-3407D01*
X-2246Y-3410D01*
X-2232Y-3414D01*
X-2232D01*
X-2231Y-3414D01*
X-2229Y-3415D01*
X-2226Y-3416D01*
X-2223Y-3417D01*
X-2219Y-3418D01*
X-2211Y-3422D01*
X-2201Y-3427D01*
X-2191Y-3433D01*
X-2181Y-3439D01*
X-2171Y-3447D01*
X-2170D01*
X-2170Y-3448D01*
X-2167Y-3451D01*
X-2162Y-3456D01*
X-2156Y-3462D01*
X-2150Y-3470D01*
X-2143Y-3479D01*
X-2137Y-3490D01*
X-2132Y-3502D01*
Y-3502D01*
X-2131Y-3503D01*
X-2130Y-3505D01*
X-2130Y-3507D01*
X-2128Y-3511D01*
X-2127Y-3514D01*
X-2126Y-3519D01*
X-2124Y-3524D01*
X-2122Y-3535D01*
X-2119Y-3548D01*
X-2118Y-3562D01*
X-2117Y-3578D01*
Y-3578D01*
Y-3579D01*
Y-3581D01*
Y-3584D01*
X-2118Y-3587D01*
Y-3591D01*
X-2118Y-3599D01*
X-2120Y-3609D01*
X-2121Y-3621D01*
X-2124Y-3633D01*
X-2127Y-3645D01*
Y-3645D01*
X-2128Y-3646D01*
X-2128Y-3648D01*
X-2129Y-3650D01*
X-2130Y-3653D01*
X-2131Y-3656D01*
X-2134Y-3663D01*
X-2138Y-3672D01*
X-2143Y-3683D01*
X-2148Y-3693D01*
X-2155Y-3704D01*
Y-3705D01*
X-2156Y-3706D01*
X-2157Y-3708D01*
X-2158Y-3710D01*
X-2160Y-3712D01*
X-2162Y-3715D01*
X-2168Y-3723D01*
X-2174Y-3732D01*
X-2182Y-3742D01*
X-2191Y-3752D01*
X-2200Y-3763D01*
X-2201Y-3764D01*
X-2201Y-3765D01*
X-2203Y-3766D01*
X-2205Y-3769D01*
X-2207Y-3771D01*
X-2210Y-3774D01*
X-2218Y-3782D01*
X-2227Y-3791D01*
X-2237Y-3802D01*
X-2249Y-3813D01*
X-2261Y-3825D01*
X-2348Y-3907D01*
X-2096D01*
Y-4010D01*
X-2502D01*
Y-3928D01*
X-2361Y-3787D01*
X-2360Y-3786D01*
X-2359Y-3785D01*
X-2357Y-3783D01*
X-2354Y-3780D01*
X-2351Y-3777D01*
X-2347Y-3773D01*
X-2338Y-3763D01*
X-2328Y-3753D01*
X-2317Y-3741D01*
X-2307Y-3729D01*
X-2297Y-3718D01*
X-2297Y-3718D01*
X-2296Y-3717D01*
X-2295Y-3715D01*
X-2293Y-3713D01*
X-2289Y-3708D01*
X-2283Y-3701D01*
X-2277Y-3693D01*
X-2271Y-3684D01*
X-2265Y-3676D01*
X-2260Y-3667D01*
Y-3666D01*
X-2260Y-3666D01*
X-2258Y-3663D01*
X-2256Y-3659D01*
X-2253Y-3653D01*
X-2250Y-3647D01*
X-2247Y-3639D01*
X-2245Y-3632D01*
X-2243Y-3625D01*
Y-3624D01*
X-2242Y-3621D01*
X-2241Y-3618D01*
X-2240Y-3613D01*
X-2240Y-3606D01*
X-2239Y-3600D01*
X-2238Y-3593D01*
Y-3585D01*
Y-3584D01*
Y-3582D01*
X-2239Y-3579D01*
Y-3574D01*
X-2240Y-3569D01*
X-2241Y-3564D01*
X-2242Y-3558D01*
X-2244Y-3553D01*
Y-3552D01*
X-2245Y-3550D01*
X-2246Y-3547D01*
X-2248Y-3543D01*
X-2250Y-3539D01*
X-2253Y-3535D01*
X-2260Y-3526D01*
X-2261Y-3526D01*
X-2262Y-3524D01*
X-2264Y-3522D01*
X-2267Y-3520D01*
X-2271Y-3517D01*
X-2276Y-3514D01*
X-2281Y-3511D01*
X-2287Y-3508D01*
X-2288Y-3508D01*
X-2290Y-3507D01*
X-2293Y-3506D01*
X-2297Y-3505D01*
X-2303Y-3503D01*
X-2309Y-3502D01*
X-2315Y-3502D01*
X-2323Y-3501D01*
X-2329D01*
X-2332Y-3502D01*
X-2336Y-3502D01*
X-2344Y-3503D01*
X-2355Y-3505D01*
X-2365Y-3508D01*
X-2377Y-3512D01*
X-2389Y-3517D01*
X-2389D01*
X-2390Y-3518D01*
X-2392Y-3519D01*
X-2394Y-3520D01*
X-2396Y-3521D01*
X-2399Y-3523D01*
X-2407Y-3528D01*
X-2416Y-3534D01*
X-2425Y-3540D01*
X-2435Y-3549D01*
X-2446Y-3558D01*
X-2504Y-3482D01*
X-2504Y-3481D01*
X-2503Y-3480D01*
X-2500Y-3478D01*
X-2498Y-3476D01*
X-2494Y-3473D01*
X-2490Y-3469D01*
X-2485Y-3465D01*
X-2479Y-3461D01*
X-2473Y-3457D01*
X-2466Y-3452D01*
X-2451Y-3442D01*
X-2435Y-3433D01*
X-2417Y-3424D01*
X-2417Y-3424D01*
X-2415Y-3423D01*
X-2412Y-3422D01*
X-2408Y-3421D01*
X-2404Y-3419D01*
X-2399Y-3417D01*
X-2393Y-3415D01*
X-2386Y-3413D01*
X-2378Y-3411D01*
X-2370Y-3409D01*
X-2361Y-3407D01*
X-2352Y-3406D01*
X-2332Y-3403D01*
X-2322Y-3402D01*
X-2304D01*
X-2300Y-3403D01*
D02*
G37*
G36*
X-3186Y-3790D02*
X-3095D01*
Y-3888D01*
X-3186D01*
Y-4010D01*
X-3295D01*
Y-3888D01*
X-3573D01*
Y-3793D01*
X-3340Y-3412D01*
X-3186D01*
Y-3790D01*
D02*
G37*
G36*
X2863Y-3403D02*
X2868D01*
X2873Y-3403D01*
X2878Y-3404D01*
X2885Y-3404D01*
X2899Y-3407D01*
X2914Y-3410D01*
X2930Y-3414D01*
X2946Y-3420D01*
X2946D01*
X2948Y-3421D01*
X2950Y-3422D01*
X2953Y-3423D01*
X2957Y-3425D01*
X2961Y-3428D01*
X2970Y-3433D01*
X2981Y-3441D01*
X2994Y-3450D01*
X3006Y-3461D01*
X3018Y-3474D01*
X3018Y-3475D01*
X3019Y-3476D01*
X3021Y-3478D01*
X3023Y-3481D01*
X3025Y-3485D01*
X3028Y-3489D01*
X3031Y-3494D01*
X3035Y-3500D01*
X3038Y-3507D01*
X3042Y-3514D01*
X3046Y-3522D01*
X3050Y-3530D01*
X3054Y-3539D01*
X3058Y-3549D01*
X3061Y-3559D01*
X3064Y-3570D01*
Y-3570D01*
X3065Y-3572D01*
X3066Y-3576D01*
X3067Y-3580D01*
X3068Y-3586D01*
X3070Y-3592D01*
X3071Y-3600D01*
X3073Y-3609D01*
X3074Y-3619D01*
X3076Y-3629D01*
X3077Y-3641D01*
X3079Y-3653D01*
X3080Y-3666D01*
X3081Y-3680D01*
X3082Y-3694D01*
Y-3709D01*
Y-3710D01*
Y-3712D01*
Y-3716D01*
Y-3721D01*
X3081Y-3728D01*
X3081Y-3735D01*
X3080Y-3744D01*
X3079Y-3753D01*
X3078Y-3763D01*
X3077Y-3774D01*
X3075Y-3796D01*
X3071Y-3819D01*
X3065Y-3841D01*
Y-3842D01*
X3065Y-3844D01*
X3064Y-3847D01*
X3062Y-3851D01*
X3061Y-3856D01*
X3059Y-3861D01*
X3056Y-3868D01*
X3053Y-3875D01*
X3046Y-3890D01*
X3038Y-3907D01*
X3029Y-3923D01*
X3018Y-3939D01*
X3018Y-3940D01*
X3016Y-3941D01*
X3015Y-3943D01*
X3012Y-3946D01*
X3009Y-3949D01*
X3006Y-3953D01*
X3002Y-3957D01*
X2997Y-3962D01*
X2992Y-3967D01*
X2987Y-3972D01*
X2973Y-3982D01*
X2959Y-3992D01*
X2943Y-4000D01*
X2942D01*
X2941Y-4001D01*
X2938Y-4002D01*
X2935Y-4003D01*
X2931Y-4005D01*
X2926Y-4007D01*
X2920Y-4009D01*
X2913Y-4010D01*
X2906Y-4012D01*
X2899Y-4014D01*
X2890Y-4016D01*
X2881Y-4018D01*
X2862Y-4020D01*
X2841Y-4021D01*
X2837D01*
X2833Y-4020D01*
X2829D01*
X2823Y-4020D01*
X2818Y-4019D01*
X2811Y-4019D01*
X2798Y-4017D01*
X2782Y-4014D01*
X2766Y-4009D01*
X2750Y-4004D01*
X2750D01*
X2748Y-4003D01*
X2746Y-4002D01*
X2743Y-4001D01*
X2740Y-3999D01*
X2736Y-3996D01*
X2731Y-3994D01*
X2726Y-3990D01*
X2714Y-3983D01*
X2703Y-3973D01*
X2690Y-3963D01*
X2678Y-3949D01*
X2678Y-3949D01*
X2677Y-3948D01*
X2675Y-3945D01*
X2673Y-3943D01*
X2671Y-3939D01*
X2668Y-3935D01*
X2664Y-3929D01*
X2661Y-3923D01*
X2657Y-3917D01*
X2654Y-3910D01*
X2650Y-3902D01*
X2646Y-3893D01*
X2642Y-3884D01*
X2638Y-3875D01*
X2635Y-3865D01*
X2631Y-3854D01*
Y-3853D01*
X2631Y-3851D01*
X2630Y-3848D01*
X2629Y-3844D01*
X2627Y-3838D01*
X2626Y-3831D01*
X2625Y-3823D01*
X2623Y-3815D01*
X2621Y-3805D01*
X2620Y-3794D01*
X2619Y-3783D01*
X2617Y-3771D01*
X2616Y-3757D01*
X2615Y-3744D01*
X2615Y-3729D01*
Y-3715D01*
Y-3714D01*
Y-3712D01*
Y-3708D01*
X2615Y-3702D01*
Y-3696D01*
X2616Y-3688D01*
X2616Y-3680D01*
X2617Y-3670D01*
X2618Y-3661D01*
X2619Y-3650D01*
X2621Y-3628D01*
X2625Y-3605D01*
X2630Y-3583D01*
Y-3583D01*
X2631Y-3581D01*
X2632Y-3578D01*
X2633Y-3573D01*
X2635Y-3568D01*
X2637Y-3562D01*
X2640Y-3556D01*
X2643Y-3549D01*
X2649Y-3533D01*
X2657Y-3517D01*
X2666Y-3500D01*
X2677Y-3485D01*
X2678Y-3484D01*
X2679Y-3483D01*
X2680Y-3480D01*
X2683Y-3478D01*
X2686Y-3474D01*
X2689Y-3471D01*
X2693Y-3466D01*
X2698Y-3462D01*
X2704Y-3457D01*
X2709Y-3452D01*
X2722Y-3442D01*
X2737Y-3432D01*
X2753Y-3424D01*
X2753Y-3423D01*
X2755Y-3423D01*
X2757Y-3422D01*
X2761Y-3420D01*
X2765Y-3418D01*
X2770Y-3417D01*
X2776Y-3415D01*
X2783Y-3413D01*
X2790Y-3411D01*
X2798Y-3409D01*
X2806Y-3407D01*
X2815Y-3406D01*
X2834Y-3403D01*
X2855Y-3402D01*
X2860D01*
X2863Y-3403D01*
D02*
G37*
G36*
X2348D02*
X2353D01*
X2358Y-3403D01*
X2363Y-3404D01*
X2370Y-3404D01*
X2384Y-3407D01*
X2399Y-3410D01*
X2415Y-3414D01*
X2431Y-3420D01*
X2431D01*
X2433Y-3421D01*
X2435Y-3422D01*
X2438Y-3423D01*
X2441Y-3425D01*
X2446Y-3428D01*
X2455Y-3433D01*
X2466Y-3441D01*
X2479Y-3450D01*
X2491Y-3461D01*
X2502Y-3474D01*
X2503Y-3475D01*
X2504Y-3476D01*
X2505Y-3478D01*
X2507Y-3481D01*
X2510Y-3485D01*
X2513Y-3489D01*
X2516Y-3494D01*
X2520Y-3500D01*
X2523Y-3507D01*
X2527Y-3514D01*
X2531Y-3522D01*
X2535Y-3530D01*
X2538Y-3539D01*
X2543Y-3549D01*
X2546Y-3559D01*
X2549Y-3570D01*
Y-3570D01*
X2550Y-3572D01*
X2551Y-3576D01*
X2552Y-3580D01*
X2553Y-3586D01*
X2555Y-3592D01*
X2556Y-3600D01*
X2558Y-3609D01*
X2559Y-3619D01*
X2561Y-3629D01*
X2562Y-3641D01*
X2564Y-3653D01*
X2565Y-3666D01*
X2566Y-3680D01*
X2566Y-3694D01*
Y-3709D01*
Y-3710D01*
Y-3712D01*
Y-3716D01*
Y-3721D01*
X2566Y-3728D01*
X2565Y-3735D01*
X2565Y-3744D01*
X2564Y-3753D01*
X2563Y-3763D01*
X2562Y-3774D01*
X2560Y-3796D01*
X2556Y-3819D01*
X2550Y-3841D01*
Y-3842D01*
X2550Y-3844D01*
X2549Y-3847D01*
X2547Y-3851D01*
X2546Y-3856D01*
X2544Y-3861D01*
X2541Y-3868D01*
X2538Y-3875D01*
X2531Y-3890D01*
X2523Y-3907D01*
X2514Y-3923D01*
X2503Y-3939D01*
X2502Y-3940D01*
X2501Y-3941D01*
X2500Y-3943D01*
X2497Y-3946D01*
X2494Y-3949D01*
X2491Y-3953D01*
X2487Y-3957D01*
X2482Y-3962D01*
X2477Y-3967D01*
X2471Y-3972D01*
X2458Y-3982D01*
X2444Y-3992D01*
X2428Y-4000D01*
X2427D01*
X2426Y-4001D01*
X2423Y-4002D01*
X2420Y-4003D01*
X2416Y-4005D01*
X2411Y-4007D01*
X2405Y-4009D01*
X2398Y-4010D01*
X2391Y-4012D01*
X2384Y-4014D01*
X2375Y-4016D01*
X2366Y-4018D01*
X2347Y-4020D01*
X2326Y-4021D01*
X2322D01*
X2318Y-4020D01*
X2313D01*
X2308Y-4020D01*
X2303Y-4019D01*
X2296Y-4019D01*
X2282Y-4017D01*
X2267Y-4014D01*
X2251Y-4009D01*
X2235Y-4004D01*
X2235D01*
X2233Y-4003D01*
X2231Y-4002D01*
X2228Y-4001D01*
X2225Y-3999D01*
X2220Y-3996D01*
X2216Y-3994D01*
X2211Y-3990D01*
X2199Y-3983D01*
X2187Y-3973D01*
X2175Y-3963D01*
X2163Y-3949D01*
X2163Y-3949D01*
X2162Y-3948D01*
X2160Y-3945D01*
X2158Y-3943D01*
X2155Y-3939D01*
X2153Y-3935D01*
X2149Y-3929D01*
X2146Y-3923D01*
X2142Y-3917D01*
X2139Y-3910D01*
X2135Y-3902D01*
X2131Y-3893D01*
X2127Y-3884D01*
X2123Y-3875D01*
X2120Y-3865D01*
X2116Y-3854D01*
Y-3853D01*
X2116Y-3851D01*
X2115Y-3848D01*
X2114Y-3844D01*
X2112Y-3838D01*
X2111Y-3831D01*
X2110Y-3823D01*
X2108Y-3815D01*
X2106Y-3805D01*
X2105Y-3794D01*
X2104Y-3783D01*
X2102Y-3771D01*
X2101Y-3757D01*
X2100Y-3744D01*
X2100Y-3729D01*
Y-3715D01*
Y-3714D01*
Y-3712D01*
Y-3708D01*
X2100Y-3702D01*
Y-3696D01*
X2101Y-3688D01*
X2101Y-3680D01*
X2102Y-3670D01*
X2103Y-3661D01*
X2104Y-3650D01*
X2106Y-3628D01*
X2110Y-3605D01*
X2115Y-3583D01*
Y-3583D01*
X2116Y-3581D01*
X2117Y-3578D01*
X2118Y-3573D01*
X2120Y-3568D01*
X2122Y-3562D01*
X2124Y-3556D01*
X2128Y-3549D01*
X2134Y-3533D01*
X2142Y-3517D01*
X2151Y-3500D01*
X2162Y-3485D01*
X2163Y-3484D01*
X2164Y-3483D01*
X2165Y-3480D01*
X2168Y-3478D01*
X2171Y-3474D01*
X2174Y-3471D01*
X2178Y-3466D01*
X2183Y-3462D01*
X2188Y-3457D01*
X2194Y-3452D01*
X2207Y-3442D01*
X2221Y-3432D01*
X2238Y-3424D01*
X2238Y-3423D01*
X2240Y-3423D01*
X2242Y-3422D01*
X2246Y-3420D01*
X2250Y-3418D01*
X2255Y-3417D01*
X2261Y-3415D01*
X2268Y-3413D01*
X2275Y-3411D01*
X2282Y-3409D01*
X2291Y-3407D01*
X2300Y-3406D01*
X2319Y-3403D01*
X2340Y-3402D01*
X2345D01*
X2348Y-3403D01*
D02*
G37*
G36*
X288D02*
X292D01*
X297Y-3403D01*
X303Y-3404D01*
X309Y-3404D01*
X323Y-3407D01*
X338Y-3410D01*
X355Y-3414D01*
X370Y-3420D01*
X371D01*
X372Y-3421D01*
X374Y-3422D01*
X377Y-3423D01*
X381Y-3425D01*
X385Y-3428D01*
X395Y-3433D01*
X406Y-3441D01*
X418Y-3450D01*
X430Y-3461D01*
X442Y-3474D01*
X442Y-3475D01*
X443Y-3476D01*
X445Y-3478D01*
X447Y-3481D01*
X450Y-3485D01*
X452Y-3489D01*
X456Y-3494D01*
X459Y-3500D01*
X463Y-3507D01*
X466Y-3514D01*
X470Y-3522D01*
X474Y-3530D01*
X478Y-3539D01*
X482Y-3549D01*
X486Y-3559D01*
X489Y-3570D01*
Y-3570D01*
X489Y-3572D01*
X490Y-3576D01*
X491Y-3580D01*
X493Y-3586D01*
X494Y-3592D01*
X496Y-3600D01*
X497Y-3609D01*
X499Y-3619D01*
X500Y-3629D01*
X502Y-3641D01*
X503Y-3653D01*
X504Y-3666D01*
X505Y-3680D01*
X506Y-3694D01*
Y-3709D01*
Y-3710D01*
Y-3712D01*
Y-3716D01*
Y-3721D01*
X505Y-3728D01*
X505Y-3735D01*
X504Y-3744D01*
X504Y-3753D01*
X503Y-3763D01*
X502Y-3774D01*
X499Y-3796D01*
X495Y-3819D01*
X490Y-3841D01*
Y-3842D01*
X489Y-3844D01*
X488Y-3847D01*
X487Y-3851D01*
X485Y-3856D01*
X483Y-3861D01*
X481Y-3868D01*
X478Y-3875D01*
X471Y-3890D01*
X463Y-3907D01*
X454Y-3923D01*
X442Y-3939D01*
X442Y-3940D01*
X441Y-3941D01*
X439Y-3943D01*
X437Y-3946D01*
X434Y-3949D01*
X430Y-3953D01*
X426Y-3957D01*
X422Y-3962D01*
X417Y-3967D01*
X411Y-3972D01*
X398Y-3982D01*
X384Y-3992D01*
X367Y-4000D01*
X367D01*
X365Y-4001D01*
X363Y-4002D01*
X360Y-4003D01*
X355Y-4005D01*
X351Y-4007D01*
X344Y-4009D01*
X338Y-4010D01*
X331Y-4012D01*
X323Y-4014D01*
X314Y-4016D01*
X306Y-4018D01*
X287Y-4020D01*
X266Y-4021D01*
X261D01*
X258Y-4020D01*
X253D01*
X248Y-4020D01*
X242Y-4019D01*
X236Y-4019D01*
X222Y-4017D01*
X207Y-4014D01*
X191Y-4009D01*
X175Y-4004D01*
X174D01*
X173Y-4003D01*
X171Y-4002D01*
X168Y-4001D01*
X164Y-3999D01*
X160Y-3996D01*
X155Y-3994D01*
X150Y-3990D01*
X139Y-3983D01*
X127Y-3973D01*
X114Y-3963D01*
X103Y-3949D01*
X102Y-3949D01*
X101Y-3948D01*
X100Y-3945D01*
X98Y-3943D01*
X95Y-3939D01*
X92Y-3935D01*
X89Y-3929D01*
X85Y-3923D01*
X82Y-3917D01*
X78Y-3910D01*
X74Y-3902D01*
X70Y-3893D01*
X67Y-3884D01*
X62Y-3875D01*
X59Y-3865D01*
X56Y-3854D01*
Y-3853D01*
X55Y-3851D01*
X54Y-3848D01*
X53Y-3844D01*
X52Y-3838D01*
X51Y-3831D01*
X49Y-3823D01*
X48Y-3815D01*
X46Y-3805D01*
X44Y-3794D01*
X43Y-3783D01*
X42Y-3771D01*
X41Y-3757D01*
X40Y-3744D01*
X39Y-3729D01*
Y-3715D01*
Y-3714D01*
Y-3712D01*
Y-3708D01*
X40Y-3702D01*
Y-3696D01*
X40Y-3688D01*
X41Y-3680D01*
X41Y-3670D01*
X42Y-3661D01*
X43Y-3650D01*
X46Y-3628D01*
X50Y-3605D01*
X55Y-3583D01*
Y-3583D01*
X56Y-3581D01*
X56Y-3578D01*
X58Y-3573D01*
X59Y-3568D01*
X61Y-3562D01*
X64Y-3556D01*
X67Y-3549D01*
X74Y-3533D01*
X81Y-3517D01*
X91Y-3500D01*
X102Y-3485D01*
X102Y-3484D01*
X103Y-3483D01*
X105Y-3480D01*
X107Y-3478D01*
X110Y-3474D01*
X114Y-3471D01*
X118Y-3466D01*
X123Y-3462D01*
X128Y-3457D01*
X134Y-3452D01*
X147Y-3442D01*
X161Y-3432D01*
X177Y-3424D01*
X178Y-3423D01*
X179Y-3423D01*
X182Y-3422D01*
X185Y-3420D01*
X189Y-3418D01*
X195Y-3417D01*
X201Y-3415D01*
X207Y-3413D01*
X214Y-3411D01*
X222Y-3409D01*
X231Y-3407D01*
X239Y-3406D01*
X259Y-3403D01*
X279Y-3402D01*
X284D01*
X288Y-3403D01*
D02*
G37*
G36*
X-1773D02*
X-1768D01*
X-1763Y-3403D01*
X-1758Y-3404D01*
X-1751Y-3404D01*
X-1737Y-3407D01*
X-1722Y-3410D01*
X-1706Y-3414D01*
X-1690Y-3420D01*
X-1690D01*
X-1688Y-3421D01*
X-1686Y-3422D01*
X-1683Y-3423D01*
X-1679Y-3425D01*
X-1675Y-3428D01*
X-1666Y-3433D01*
X-1655Y-3441D01*
X-1642Y-3450D01*
X-1630Y-3461D01*
X-1618Y-3474D01*
X-1618Y-3475D01*
X-1617Y-3476D01*
X-1615Y-3478D01*
X-1613Y-3481D01*
X-1611Y-3485D01*
X-1608Y-3489D01*
X-1605Y-3494D01*
X-1601Y-3500D01*
X-1598Y-3507D01*
X-1594Y-3514D01*
X-1590Y-3522D01*
X-1586Y-3530D01*
X-1582Y-3539D01*
X-1578Y-3549D01*
X-1575Y-3559D01*
X-1572Y-3570D01*
Y-3570D01*
X-1571Y-3572D01*
X-1570Y-3576D01*
X-1569Y-3580D01*
X-1568Y-3586D01*
X-1566Y-3592D01*
X-1565Y-3600D01*
X-1563Y-3609D01*
X-1562Y-3619D01*
X-1560Y-3629D01*
X-1559Y-3641D01*
X-1557Y-3653D01*
X-1556Y-3666D01*
X-1555Y-3680D01*
X-1554Y-3694D01*
Y-3709D01*
Y-3710D01*
Y-3712D01*
Y-3716D01*
Y-3721D01*
X-1555Y-3728D01*
X-1556Y-3735D01*
X-1556Y-3744D01*
X-1557Y-3753D01*
X-1558Y-3763D01*
X-1559Y-3774D01*
X-1561Y-3796D01*
X-1565Y-3819D01*
X-1571Y-3841D01*
Y-3842D01*
X-1571Y-3844D01*
X-1572Y-3847D01*
X-1574Y-3851D01*
X-1575Y-3856D01*
X-1577Y-3861D01*
X-1580Y-3868D01*
X-1583Y-3875D01*
X-1590Y-3890D01*
X-1598Y-3907D01*
X-1607Y-3923D01*
X-1618Y-3939D01*
X-1618Y-3940D01*
X-1620Y-3941D01*
X-1621Y-3943D01*
X-1624Y-3946D01*
X-1627Y-3949D01*
X-1630Y-3953D01*
X-1634Y-3957D01*
X-1639Y-3962D01*
X-1644Y-3967D01*
X-1649Y-3972D01*
X-1663Y-3982D01*
X-1677Y-3992D01*
X-1693Y-4000D01*
X-1694D01*
X-1695Y-4001D01*
X-1698Y-4002D01*
X-1701Y-4003D01*
X-1705Y-4005D01*
X-1710Y-4007D01*
X-1716Y-4009D01*
X-1723Y-4010D01*
X-1730Y-4012D01*
X-1737Y-4014D01*
X-1746Y-4016D01*
X-1755Y-4018D01*
X-1774Y-4020D01*
X-1795Y-4021D01*
X-1799D01*
X-1803Y-4020D01*
X-1807D01*
X-1813Y-4020D01*
X-1818Y-4019D01*
X-1825Y-4019D01*
X-1838Y-4017D01*
X-1854Y-4014D01*
X-1870Y-4009D01*
X-1886Y-4004D01*
X-1886D01*
X-1888Y-4003D01*
X-1890Y-4002D01*
X-1893Y-4001D01*
X-1896Y-3999D01*
X-1900Y-3996D01*
X-1905Y-3994D01*
X-1910Y-3990D01*
X-1922Y-3983D01*
X-1933Y-3973D01*
X-1946Y-3963D01*
X-1958Y-3949D01*
X-1958Y-3949D01*
X-1959Y-3948D01*
X-1961Y-3945D01*
X-1963Y-3943D01*
X-1965Y-3939D01*
X-1968Y-3935D01*
X-1972Y-3929D01*
X-1975Y-3923D01*
X-1979Y-3917D01*
X-1982Y-3910D01*
X-1986Y-3902D01*
X-1990Y-3893D01*
X-1994Y-3884D01*
X-1998Y-3875D01*
X-2001Y-3865D01*
X-2005Y-3854D01*
Y-3853D01*
X-2005Y-3851D01*
X-2006Y-3848D01*
X-2007Y-3844D01*
X-2009Y-3838D01*
X-2010Y-3831D01*
X-2011Y-3823D01*
X-2013Y-3815D01*
X-2015Y-3805D01*
X-2016Y-3794D01*
X-2017Y-3783D01*
X-2019Y-3771D01*
X-2020Y-3757D01*
X-2021Y-3744D01*
X-2021Y-3729D01*
Y-3715D01*
Y-3714D01*
Y-3712D01*
Y-3708D01*
X-2021Y-3702D01*
Y-3696D01*
X-2020Y-3688D01*
X-2020Y-3680D01*
X-2019Y-3670D01*
X-2018Y-3661D01*
X-2017Y-3650D01*
X-2015Y-3628D01*
X-2011Y-3605D01*
X-2006Y-3583D01*
Y-3583D01*
X-2005Y-3581D01*
X-2004Y-3578D01*
X-2003Y-3573D01*
X-2001Y-3568D01*
X-1999Y-3562D01*
X-1996Y-3556D01*
X-1993Y-3549D01*
X-1987Y-3533D01*
X-1979Y-3517D01*
X-1970Y-3500D01*
X-1959Y-3485D01*
X-1958Y-3484D01*
X-1957Y-3483D01*
X-1956Y-3480D01*
X-1953Y-3478D01*
X-1950Y-3474D01*
X-1947Y-3471D01*
X-1943Y-3466D01*
X-1938Y-3462D01*
X-1932Y-3457D01*
X-1927Y-3452D01*
X-1914Y-3442D01*
X-1899Y-3432D01*
X-1883Y-3424D01*
X-1883Y-3423D01*
X-1881Y-3423D01*
X-1879Y-3422D01*
X-1875Y-3420D01*
X-1871Y-3418D01*
X-1866Y-3417D01*
X-1860Y-3415D01*
X-1853Y-3413D01*
X-1846Y-3411D01*
X-1838Y-3409D01*
X-1830Y-3407D01*
X-1821Y-3406D01*
X-1802Y-3403D01*
X-1781Y-3402D01*
X-1776D01*
X-1773Y-3403D01*
D02*
G37*
G36*
X2075Y-4198D02*
X1560D01*
Y-4109D01*
X2075D01*
Y-4198D01*
D02*
G37*
G36*
X-2561D02*
X-3076D01*
Y-4109D01*
X-2561D01*
Y-4198D01*
D02*
G37*
%LPC*%
G36*
X-3293Y-3521D02*
X-3464Y-3790D01*
X-3293D01*
Y-3521D01*
D02*
G37*
G36*
X2854Y-3493D02*
X2844D01*
X2839Y-3494D01*
X2833Y-3495D01*
X2825Y-3496D01*
X2817Y-3499D01*
X2809Y-3502D01*
X2800Y-3506D01*
X2799Y-3507D01*
X2797Y-3509D01*
X2792Y-3512D01*
X2787Y-3517D01*
X2781Y-3522D01*
X2775Y-3529D01*
X2768Y-3537D01*
X2762Y-3547D01*
Y-3547D01*
X2761Y-3548D01*
X2760Y-3549D01*
X2759Y-3552D01*
X2758Y-3554D01*
X2756Y-3557D01*
X2755Y-3561D01*
X2753Y-3565D01*
X2749Y-3575D01*
X2744Y-3587D01*
X2740Y-3600D01*
X2737Y-3615D01*
Y-3615D01*
X2736Y-3617D01*
X2736Y-3619D01*
X2735Y-3622D01*
X2735Y-3626D01*
X2734Y-3630D01*
X2733Y-3636D01*
X2732Y-3642D01*
X2731Y-3649D01*
X2730Y-3656D01*
X2729Y-3664D01*
X2729Y-3672D01*
X2728Y-3691D01*
X2727Y-3711D01*
Y-3712D01*
Y-3713D01*
Y-3715D01*
Y-3717D01*
Y-3722D01*
Y-3728D01*
Y-3729D01*
Y-3730D01*
Y-3731D01*
Y-3733D01*
Y-3738D01*
X2728Y-3744D01*
X2952Y-3582D01*
Y-3582D01*
X2951Y-3580D01*
X2950Y-3578D01*
X2949Y-3574D01*
X2947Y-3571D01*
X2945Y-3567D01*
X2941Y-3557D01*
X2935Y-3546D01*
X2928Y-3535D01*
X2919Y-3524D01*
X2915Y-3520D01*
X2910Y-3515D01*
X2909Y-3514D01*
X2909Y-3514D01*
X2907Y-3513D01*
X2905Y-3511D01*
X2903Y-3510D01*
X2900Y-3508D01*
X2892Y-3504D01*
X2883Y-3500D01*
X2873Y-3497D01*
X2861Y-3494D01*
X2854Y-3493D01*
D02*
G37*
G36*
X2968Y-3681D02*
X2745Y-3843D01*
Y-3843D01*
X2746Y-3845D01*
X2747Y-3847D01*
X2748Y-3850D01*
X2749Y-3854D01*
X2751Y-3858D01*
X2756Y-3868D01*
X2761Y-3878D01*
X2769Y-3889D01*
X2777Y-3900D01*
X2781Y-3905D01*
X2786Y-3909D01*
X2786D01*
X2787Y-3910D01*
X2788Y-3911D01*
X2790Y-3912D01*
X2793Y-3914D01*
X2796Y-3915D01*
X2804Y-3919D01*
X2813Y-3923D01*
X2823Y-3926D01*
X2835Y-3929D01*
X2848Y-3930D01*
X2852D01*
X2857Y-3930D01*
X2864Y-3929D01*
X2871Y-3927D01*
X2879Y-3924D01*
X2887Y-3921D01*
X2896Y-3917D01*
X2896D01*
X2897Y-3916D01*
X2899Y-3914D01*
X2904Y-3911D01*
X2909Y-3907D01*
X2915Y-3901D01*
X2922Y-3894D01*
X2928Y-3886D01*
X2934Y-3877D01*
Y-3877D01*
X2935Y-3876D01*
X2936Y-3875D01*
X2937Y-3872D01*
X2938Y-3870D01*
X2940Y-3867D01*
X2942Y-3863D01*
X2943Y-3858D01*
X2947Y-3849D01*
X2952Y-3837D01*
X2956Y-3824D01*
X2960Y-3809D01*
Y-3809D01*
X2960Y-3807D01*
X2961Y-3805D01*
X2961Y-3802D01*
X2962Y-3798D01*
X2963Y-3793D01*
X2963Y-3788D01*
X2964Y-3782D01*
X2965Y-3775D01*
X2966Y-3767D01*
X2967Y-3759D01*
X2967Y-3751D01*
X2968Y-3732D01*
X2969Y-3713D01*
Y-3712D01*
Y-3711D01*
Y-3710D01*
Y-3708D01*
Y-3703D01*
X2968Y-3697D01*
Y-3696D01*
Y-3695D01*
Y-3694D01*
Y-3692D01*
X2968Y-3687D01*
Y-3681D01*
D02*
G37*
G36*
X2339Y-3493D02*
X2329D01*
X2324Y-3494D01*
X2318Y-3495D01*
X2310Y-3496D01*
X2302Y-3499D01*
X2294Y-3502D01*
X2285Y-3506D01*
X2284Y-3507D01*
X2281Y-3509D01*
X2277Y-3512D01*
X2272Y-3517D01*
X2266Y-3522D01*
X2260Y-3529D01*
X2253Y-3537D01*
X2247Y-3547D01*
Y-3547D01*
X2246Y-3548D01*
X2245Y-3549D01*
X2244Y-3552D01*
X2243Y-3554D01*
X2241Y-3557D01*
X2240Y-3561D01*
X2238Y-3565D01*
X2234Y-3575D01*
X2229Y-3587D01*
X2225Y-3600D01*
X2221Y-3615D01*
Y-3615D01*
X2221Y-3617D01*
X2220Y-3619D01*
X2220Y-3622D01*
X2219Y-3626D01*
X2218Y-3630D01*
X2218Y-3636D01*
X2217Y-3642D01*
X2216Y-3649D01*
X2215Y-3656D01*
X2214Y-3664D01*
X2214Y-3672D01*
X2213Y-3691D01*
X2212Y-3711D01*
Y-3712D01*
Y-3713D01*
Y-3715D01*
Y-3717D01*
Y-3722D01*
Y-3728D01*
Y-3729D01*
Y-3730D01*
Y-3731D01*
Y-3733D01*
Y-3738D01*
X2213Y-3744D01*
X2437Y-3582D01*
Y-3582D01*
X2436Y-3580D01*
X2435Y-3578D01*
X2434Y-3574D01*
X2432Y-3571D01*
X2430Y-3567D01*
X2426Y-3557D01*
X2420Y-3546D01*
X2412Y-3535D01*
X2404Y-3524D01*
X2400Y-3520D01*
X2395Y-3515D01*
X2394Y-3514D01*
X2394Y-3514D01*
X2392Y-3513D01*
X2390Y-3511D01*
X2388Y-3510D01*
X2385Y-3508D01*
X2377Y-3504D01*
X2368Y-3500D01*
X2358Y-3497D01*
X2345Y-3494D01*
X2339Y-3493D01*
D02*
G37*
G36*
X2453Y-3681D02*
X2230Y-3843D01*
Y-3843D01*
X2231Y-3845D01*
X2232Y-3847D01*
X2233Y-3850D01*
X2234Y-3854D01*
X2236Y-3858D01*
X2241Y-3868D01*
X2246Y-3878D01*
X2253Y-3889D01*
X2262Y-3900D01*
X2266Y-3905D01*
X2271Y-3909D01*
X2271D01*
X2272Y-3910D01*
X2273Y-3911D01*
X2275Y-3912D01*
X2278Y-3914D01*
X2281Y-3915D01*
X2289Y-3919D01*
X2298Y-3923D01*
X2308Y-3926D01*
X2320Y-3929D01*
X2333Y-3930D01*
X2337D01*
X2342Y-3930D01*
X2348Y-3929D01*
X2356Y-3927D01*
X2364Y-3924D01*
X2372Y-3921D01*
X2380Y-3917D01*
X2381D01*
X2382Y-3916D01*
X2384Y-3914D01*
X2389Y-3911D01*
X2394Y-3907D01*
X2400Y-3901D01*
X2406Y-3894D01*
X2413Y-3886D01*
X2419Y-3877D01*
Y-3877D01*
X2420Y-3876D01*
X2421Y-3875D01*
X2422Y-3872D01*
X2423Y-3870D01*
X2425Y-3867D01*
X2427Y-3863D01*
X2428Y-3858D01*
X2432Y-3849D01*
X2437Y-3837D01*
X2441Y-3824D01*
X2444Y-3809D01*
Y-3809D01*
X2445Y-3807D01*
X2446Y-3805D01*
X2446Y-3802D01*
X2447Y-3798D01*
X2448Y-3793D01*
X2448Y-3788D01*
X2449Y-3782D01*
X2450Y-3775D01*
X2451Y-3767D01*
X2452Y-3759D01*
X2452Y-3751D01*
X2453Y-3732D01*
X2454Y-3713D01*
Y-3712D01*
Y-3711D01*
Y-3710D01*
Y-3708D01*
Y-3703D01*
X2453Y-3697D01*
Y-3696D01*
Y-3695D01*
Y-3694D01*
Y-3692D01*
X2453Y-3687D01*
Y-3681D01*
D02*
G37*
G36*
X279Y-3493D02*
X268D01*
X263Y-3494D01*
X257Y-3495D01*
X249Y-3496D01*
X241Y-3499D01*
X233Y-3502D01*
X225Y-3506D01*
X224Y-3507D01*
X221Y-3509D01*
X217Y-3512D01*
X212Y-3517D01*
X206Y-3522D01*
X199Y-3529D01*
X193Y-3537D01*
X186Y-3547D01*
Y-3547D01*
X186Y-3548D01*
X185Y-3549D01*
X184Y-3552D01*
X182Y-3554D01*
X181Y-3557D01*
X179Y-3561D01*
X177Y-3565D01*
X173Y-3575D01*
X169Y-3587D01*
X165Y-3600D01*
X161Y-3615D01*
Y-3615D01*
X161Y-3617D01*
X160Y-3619D01*
X160Y-3622D01*
X159Y-3626D01*
X158Y-3630D01*
X157Y-3636D01*
X156Y-3642D01*
X155Y-3649D01*
X155Y-3656D01*
X154Y-3664D01*
X153Y-3672D01*
X152Y-3691D01*
X152Y-3711D01*
Y-3712D01*
Y-3713D01*
Y-3715D01*
Y-3717D01*
Y-3722D01*
Y-3728D01*
Y-3729D01*
Y-3730D01*
Y-3731D01*
Y-3733D01*
Y-3738D01*
X152Y-3744D01*
X376Y-3582D01*
Y-3582D01*
X376Y-3580D01*
X375Y-3578D01*
X373Y-3574D01*
X372Y-3571D01*
X370Y-3567D01*
X365Y-3557D01*
X359Y-3546D01*
X352Y-3535D01*
X344Y-3524D01*
X339Y-3520D01*
X334Y-3515D01*
X334Y-3514D01*
X333Y-3514D01*
X332Y-3513D01*
X330Y-3511D01*
X327Y-3510D01*
X324Y-3508D01*
X316Y-3504D01*
X307Y-3500D01*
X297Y-3497D01*
X285Y-3494D01*
X279Y-3493D01*
D02*
G37*
G36*
X392Y-3681D02*
X170Y-3843D01*
Y-3843D01*
X170Y-3845D01*
X171Y-3847D01*
X172Y-3850D01*
X174Y-3854D01*
X176Y-3858D01*
X180Y-3868D01*
X186Y-3878D01*
X193Y-3889D01*
X201Y-3900D01*
X206Y-3905D01*
X210Y-3909D01*
X211D01*
X211Y-3910D01*
X213Y-3911D01*
X215Y-3912D01*
X217Y-3914D01*
X220Y-3915D01*
X228Y-3919D01*
X237Y-3923D01*
X248Y-3926D01*
X260Y-3929D01*
X272Y-3930D01*
X277D01*
X281Y-3930D01*
X288Y-3929D01*
X295Y-3927D01*
X303Y-3924D01*
X311Y-3921D01*
X320Y-3917D01*
X321D01*
X321Y-3916D01*
X324Y-3914D01*
X328Y-3911D01*
X333Y-3907D01*
X339Y-3901D01*
X346Y-3894D01*
X353Y-3886D01*
X359Y-3877D01*
Y-3877D01*
X359Y-3876D01*
X360Y-3875D01*
X361Y-3872D01*
X363Y-3870D01*
X364Y-3867D01*
X366Y-3863D01*
X368Y-3858D01*
X372Y-3849D01*
X376Y-3837D01*
X380Y-3824D01*
X384Y-3809D01*
Y-3809D01*
X385Y-3807D01*
X385Y-3805D01*
X386Y-3802D01*
X386Y-3798D01*
X387Y-3793D01*
X388Y-3788D01*
X389Y-3782D01*
X390Y-3775D01*
X390Y-3767D01*
X391Y-3759D01*
X392Y-3751D01*
X393Y-3732D01*
X393Y-3713D01*
Y-3712D01*
Y-3711D01*
Y-3710D01*
Y-3708D01*
Y-3703D01*
X393Y-3697D01*
Y-3696D01*
Y-3695D01*
Y-3694D01*
Y-3692D01*
X392Y-3687D01*
Y-3681D01*
D02*
G37*
G36*
X-1782Y-3493D02*
X-1792D01*
X-1797Y-3494D01*
X-1803Y-3495D01*
X-1811Y-3496D01*
X-1819Y-3499D01*
X-1827Y-3502D01*
X-1836Y-3506D01*
X-1837Y-3507D01*
X-1839Y-3509D01*
X-1844Y-3512D01*
X-1849Y-3517D01*
X-1855Y-3522D01*
X-1861Y-3529D01*
X-1868Y-3537D01*
X-1874Y-3547D01*
Y-3547D01*
X-1875Y-3548D01*
X-1876Y-3549D01*
X-1877Y-3552D01*
X-1878Y-3554D01*
X-1880Y-3557D01*
X-1881Y-3561D01*
X-1883Y-3565D01*
X-1887Y-3575D01*
X-1892Y-3587D01*
X-1896Y-3600D01*
X-1899Y-3615D01*
Y-3615D01*
X-1900Y-3617D01*
X-1900Y-3619D01*
X-1901Y-3622D01*
X-1901Y-3626D01*
X-1902Y-3630D01*
X-1903Y-3636D01*
X-1904Y-3642D01*
X-1905Y-3649D01*
X-1906Y-3656D01*
X-1907Y-3664D01*
X-1907Y-3672D01*
X-1908Y-3691D01*
X-1909Y-3711D01*
Y-3712D01*
Y-3713D01*
Y-3715D01*
Y-3717D01*
Y-3722D01*
Y-3728D01*
Y-3729D01*
Y-3730D01*
Y-3731D01*
Y-3733D01*
Y-3738D01*
X-1908Y-3744D01*
X-1684Y-3582D01*
Y-3582D01*
X-1685Y-3580D01*
X-1686Y-3578D01*
X-1687Y-3574D01*
X-1689Y-3571D01*
X-1691Y-3567D01*
X-1695Y-3557D01*
X-1701Y-3546D01*
X-1708Y-3535D01*
X-1717Y-3524D01*
X-1721Y-3520D01*
X-1726Y-3515D01*
X-1727Y-3514D01*
X-1727Y-3514D01*
X-1729Y-3513D01*
X-1731Y-3511D01*
X-1733Y-3510D01*
X-1736Y-3508D01*
X-1744Y-3504D01*
X-1753Y-3500D01*
X-1763Y-3497D01*
X-1775Y-3494D01*
X-1782Y-3493D01*
D02*
G37*
G36*
X-1668Y-3681D02*
X-1891Y-3843D01*
Y-3843D01*
X-1890Y-3845D01*
X-1889Y-3847D01*
X-1888Y-3850D01*
X-1887Y-3854D01*
X-1885Y-3858D01*
X-1880Y-3868D01*
X-1875Y-3878D01*
X-1867Y-3889D01*
X-1859Y-3900D01*
X-1855Y-3905D01*
X-1850Y-3909D01*
X-1850D01*
X-1849Y-3910D01*
X-1848Y-3911D01*
X-1846Y-3912D01*
X-1843Y-3914D01*
X-1840Y-3915D01*
X-1832Y-3919D01*
X-1823Y-3923D01*
X-1813Y-3926D01*
X-1801Y-3929D01*
X-1788Y-3930D01*
X-1784D01*
X-1779Y-3930D01*
X-1772Y-3929D01*
X-1765Y-3927D01*
X-1757Y-3924D01*
X-1749Y-3921D01*
X-1740Y-3917D01*
X-1740D01*
X-1739Y-3916D01*
X-1737Y-3914D01*
X-1732Y-3911D01*
X-1727Y-3907D01*
X-1721Y-3901D01*
X-1714Y-3894D01*
X-1708Y-3886D01*
X-1702Y-3877D01*
Y-3877D01*
X-1701Y-3876D01*
X-1700Y-3875D01*
X-1699Y-3872D01*
X-1698Y-3870D01*
X-1696Y-3867D01*
X-1694Y-3863D01*
X-1693Y-3858D01*
X-1689Y-3849D01*
X-1684Y-3837D01*
X-1680Y-3824D01*
X-1676Y-3809D01*
Y-3809D01*
X-1676Y-3807D01*
X-1675Y-3805D01*
X-1675Y-3802D01*
X-1674Y-3798D01*
X-1673Y-3793D01*
X-1673Y-3788D01*
X-1672Y-3782D01*
X-1671Y-3775D01*
X-1670Y-3767D01*
X-1669Y-3759D01*
X-1669Y-3751D01*
X-1668Y-3732D01*
X-1667Y-3713D01*
Y-3712D01*
Y-3711D01*
Y-3710D01*
Y-3708D01*
Y-3703D01*
X-1668Y-3697D01*
Y-3696D01*
Y-3695D01*
Y-3694D01*
Y-3692D01*
X-1668Y-3687D01*
Y-3681D01*
D02*
G37*
%LPD*%
D10*
X-10455Y-4100D02*
X-8945D01*
X-10455Y-5900D02*
X-8945D01*
X-9455Y7750D02*
X-7945D01*
X-9455Y5950D02*
X-7945D01*
X-9455Y5550D02*
X-7945D01*
X-9455Y3750D02*
X-7945D01*
X7500Y-5850D02*
X7500Y-7550D01*
X7000Y-5850D02*
X7500D01*
X-7500Y-7550D02*
X-7500Y-5850D01*
X-7000D01*
X-5105Y3200D02*
X-3595D01*
X-5105Y1400D02*
X-3595D01*
X-5105Y5500D02*
X-3595D01*
X-5105Y3700D02*
X-3595D01*
X-5105Y-1400D02*
X-3595D01*
X-5105Y-3200D02*
X-3595D01*
X-755Y3100D02*
X755D01*
X-755Y1300D02*
X755D01*
X-755Y900D02*
X755D01*
X-755Y-900D02*
X755D01*
X-755Y-1300D02*
X755D01*
X-755Y-3100D02*
X755D01*
X7945Y5550D02*
X9455D01*
X7945Y3750D02*
X9455D01*
X3595Y-1400D02*
X5105D01*
X3595Y-3200D02*
X5105D01*
X3595Y5500D02*
X5105D01*
X3595Y3700D02*
X5105D01*
X3595Y3200D02*
X5105D01*
X3595Y1400D02*
X5105D01*
X8945Y-4100D02*
X10455D01*
X8945Y-5900D02*
X10455D01*
X7945Y7750D02*
X9455D01*
X7945Y5950D02*
X9455D01*
X3125Y8425D02*
X3125Y10025D01*
X5325Y9025D02*
Y10025D01*
X3125Y8375D02*
Y8425D01*
X-1500Y4575D02*
Y5975D01*
X-550D01*
X1500D02*
X1500Y4575D01*
X550Y5975D02*
X1500D01*
X-1500Y3725D02*
X-1500Y4575D01*
M02*
