M48
;GenerationSoftware,Autodesk,EAGLE,9.7.0*%
;CreationDate,2024-05-03T18:30:29Z*%
FMAT,2
ICI,OFF
METRIC,TZ,000.000
T4C0.350
T3C1.000
T2C1.020
T1C2.750
%
G90
M71
T1
X61500Y52500
X61500Y3500
X3500Y3500
X3500Y52500
T2
X56630Y50991
X56630Y53531
X31230Y50991
X8370Y50991
X8370Y53531
X10910Y50991
X10910Y53531
X13450Y50991
X13450Y53531
X15990Y50991
X15990Y53531
X18530Y50991
X18530Y53531
X21070Y50991
X21070Y53531
X23610Y50991
X23610Y53531
X26150Y50991
X26150Y53531
X28690Y50991
X28690Y53531
X54090Y53531
X31230Y53531
X33770Y50991
X33770Y53531
X36310Y50991
X36310Y53531
X38850Y50991
X38850Y53531
X41390Y50991
X41390Y53531
X43930Y50991
X43930Y53531
X46470Y50991
X46470Y53531
X49010Y50991
X49010Y53531
X51550Y50991
X51550Y53531
X54090Y50991
T3
X37186Y9877
X32186Y9877
X34686Y9877
T4
X40379Y46497
X36036Y21630
X30620Y28520
M30