G04 EAGLE Gerber RS-274X export*
G75*
%MOMM*%
%FSLAX34Y34*%
%LPD*%
%INTop Copper*%
%IPPOS*%
%AMOC8*
5,1,8,0,0,1.08239X$1,22.5*%
G01*
G04 Define Apertures*
%ADD10R,1.500000X1.240000*%
%ADD11R,1.240000X1.500000*%
%ADD12R,0.350000X0.950000*%
%ADD13R,0.950000X0.350000*%
%ADD14R,3.250000X3.250000*%
%ADD15R,1.530000X1.530000*%
%ADD16C,1.530000*%
%ADD17C,1.508000*%
%ADD18C,0.200000*%
%ADD19C,0.152900*%
%ADD20C,0.756400*%
%ADD21C,0.508000*%
%ADD22C,0.254000*%
D10*
X364836Y268252D03*
X364836Y287252D03*
X332298Y267780D03*
X332298Y286780D03*
D11*
X350208Y148700D03*
X369208Y148700D03*
D10*
X295248Y213124D03*
X295248Y232124D03*
D12*
X373414Y240175D03*
X366914Y240175D03*
X360414Y240175D03*
X353914Y240175D03*
X347414Y240175D03*
D13*
X337014Y229775D03*
X337014Y223275D03*
X337014Y216775D03*
X337014Y210275D03*
X337014Y203775D03*
D12*
X347414Y193375D03*
X353914Y193375D03*
X360414Y193375D03*
X366914Y193375D03*
X373414Y193375D03*
D13*
X383814Y203775D03*
X383814Y210275D03*
X383814Y216775D03*
X383814Y223275D03*
X383814Y229775D03*
D14*
X360414Y216775D03*
D15*
X83700Y509907D03*
D16*
X83700Y535307D03*
X109100Y509907D03*
X109100Y535307D03*
X134500Y509907D03*
X134500Y535307D03*
X159900Y509907D03*
X159900Y535307D03*
X185300Y509907D03*
X185300Y535307D03*
X210700Y509907D03*
X210700Y535307D03*
X236100Y509907D03*
X236100Y535307D03*
X261500Y509907D03*
X261500Y535307D03*
X286900Y509907D03*
X286900Y535307D03*
X312300Y509907D03*
X312300Y535307D03*
X337700Y509907D03*
X337700Y535307D03*
X363100Y509907D03*
X363100Y535307D03*
X388500Y509907D03*
X388500Y535307D03*
X413900Y509907D03*
X413900Y535307D03*
X439300Y509907D03*
X439300Y535307D03*
X464700Y509907D03*
X464700Y535307D03*
X490100Y509907D03*
X490100Y535307D03*
X515500Y509907D03*
X515500Y535307D03*
X540900Y509907D03*
X540900Y535307D03*
X566300Y509907D03*
X566300Y535307D03*
D17*
X321858Y98766D03*
X346858Y98766D03*
X371858Y98766D03*
D18*
X373414Y193375D02*
X373414Y203424D01*
D19*
X331149Y286136D02*
X332298Y286780D01*
D20*
X306200Y285204D03*
D18*
X306319Y285324D02*
X331149Y285324D01*
X306319Y285324D02*
X306200Y285204D01*
X331149Y285324D02*
X331149Y286136D01*
X371194Y229775D02*
X371194Y226366D01*
D19*
X371669Y226366D02*
X360414Y216775D01*
X371194Y226366D02*
X371669Y226366D01*
X360962Y215660D02*
X373198Y203424D01*
X360962Y215660D02*
X360414Y216775D01*
X373198Y203424D02*
X373414Y203424D01*
D18*
X373522Y229775D02*
X383814Y229775D01*
X373522Y229775D02*
X371194Y229775D01*
X373414Y240175D02*
X373522Y240175D01*
X373522Y229775D01*
D20*
X360360Y216305D03*
D19*
X370139Y279899D02*
X370139Y284487D01*
X370139Y279899D02*
X374728Y275310D01*
X374728Y241661D01*
X370139Y284487D02*
X364836Y287252D01*
X374728Y241661D02*
X373414Y240175D01*
X360962Y217189D02*
X360414Y216775D01*
X360360Y216305D02*
X360962Y217189D01*
X332678Y266252D02*
X332425Y267269D01*
X332298Y267780D01*
D21*
X331229Y318545D02*
X331229Y469863D01*
X286900Y509907D01*
D18*
X364836Y268252D02*
X364836Y266644D01*
D22*
X332639Y266252D02*
X332639Y254951D01*
D18*
X332639Y266252D02*
X332678Y266252D01*
D22*
X332639Y254951D02*
X347414Y240175D01*
D21*
X348187Y301586D02*
X331229Y318545D01*
X348187Y301586D02*
X348187Y283294D01*
D18*
X348187Y283031D01*
D22*
X332425Y267269D01*
X348187Y283294D02*
X364836Y266644D01*
X355864Y246085D02*
X355864Y242125D01*
X353914Y240175D01*
X364836Y255057D02*
X364836Y266644D01*
X364836Y255057D02*
X355864Y246085D01*
D19*
X325073Y230955D02*
X296723Y230955D01*
X325073Y230955D02*
X336490Y230955D01*
X337014Y229775D01*
X296723Y230955D02*
X295248Y232124D01*
D18*
X325073Y230955D02*
X332753Y223275D01*
X337014Y223275D01*
D19*
X326209Y211071D02*
X298253Y211071D01*
X326209Y211071D02*
X336490Y211071D01*
X298253Y211071D02*
X296723Y212601D01*
X336490Y211071D02*
X337014Y210275D01*
X296723Y212601D02*
X295248Y213124D01*
D18*
X331913Y216775D02*
X337014Y216775D01*
X331913Y216775D02*
X326209Y211071D01*
D19*
X353315Y192717D02*
X353315Y152950D01*
X350256Y149891D01*
X353315Y192717D02*
X353914Y193375D01*
X350256Y149891D02*
X350208Y148700D01*
X348726Y148362D02*
X348726Y100947D01*
X347197Y99418D01*
X348726Y148362D02*
X350208Y148700D01*
X347197Y99418D02*
X346858Y98766D01*
X347197Y163657D02*
X347197Y181287D01*
X347197Y192717D01*
X347197Y163657D02*
X322725Y139185D01*
X322725Y99418D01*
X347197Y192717D02*
X347414Y193375D01*
X322725Y99418D02*
X321858Y98766D01*
D18*
X334474Y201235D02*
X337014Y203775D01*
X334474Y201235D02*
X334474Y187960D01*
X341147Y181287D01*
X347197Y181287D01*
D19*
X367080Y183210D02*
X367080Y192717D01*
X367080Y183210D02*
X367080Y151421D01*
X368610Y149891D01*
X367080Y192717D02*
X366914Y193375D01*
X368610Y149891D02*
X369208Y148700D01*
X370139Y148362D02*
X370139Y100947D01*
X371669Y99418D01*
X370139Y148362D02*
X369208Y148700D01*
X371669Y99418D02*
X371858Y98766D01*
D18*
X367080Y183210D02*
X360414Y189876D01*
X360414Y193375D01*
D19*
X383905Y204953D02*
X388493Y204953D01*
X383905Y204953D02*
X383814Y203775D01*
X388493Y204953D02*
X452213Y268673D01*
X452213Y515182D01*
X444825Y522570D01*
X325265Y522570D01*
X313548Y510853D01*
X388493Y204953D02*
X383814Y203775D01*
X312300Y509907D02*
X313548Y510853D01*
X383905Y211071D02*
X388493Y211071D01*
X383905Y211071D02*
X383814Y210275D01*
X388493Y211071D02*
X403788Y226366D01*
X403788Y464968D01*
X388493Y211071D02*
X383814Y210275D01*
D20*
X403788Y464968D03*
D19*
X384228Y217189D02*
X383814Y216775D01*
X384228Y217189D02*
X386964Y217189D01*
X388493Y217189D01*
X397670Y226366D01*
X397670Y475647D01*
X431930Y509907D02*
X439300Y509907D01*
X431930Y509907D02*
X397670Y475647D01*
X386964Y217189D02*
X383814Y216775D01*
X383814Y223275D02*
X383905Y223307D01*
X386964Y223307D02*
X387091Y223307D01*
X386964Y223307D02*
X383905Y223307D01*
X387091Y223307D02*
X388493Y223307D01*
X391552Y226366D01*
X391552Y455791D01*
X338020Y509324D01*
X383814Y223275D02*
X386964Y223307D01*
X338020Y509324D02*
X337700Y509907D01*
M02*
