G04 EAGLE Gerber RS-274X export*
G75*
%MOMM*%
%FSLAX34Y34*%
%LPD*%
%INBottom Copper*%
%IPPOS*%
%AMOC8*
5,1,8,0,0,1.08239X$1,22.5*%
G01*
G04 Define Apertures*
%ADD10R,1.530000X1.530000*%
%ADD11C,1.530000*%
%ADD12C,1.508000*%
%ADD13C,0.756400*%
%ADD14C,0.152900*%
G36*
X608956Y10220D02*
X608658Y10160D01*
X41342Y10160D01*
X41084Y10205D01*
X40825Y10362D01*
X40647Y10608D01*
X40580Y10904D01*
X40633Y11202D01*
X40799Y11457D01*
X41050Y11626D01*
X48544Y14730D01*
X55270Y21456D01*
X58910Y30244D01*
X58910Y39756D01*
X55270Y48544D01*
X48544Y55270D01*
X39756Y58910D01*
X30244Y58910D01*
X21456Y55270D01*
X14730Y48544D01*
X11626Y41050D01*
X11486Y40829D01*
X11241Y40650D01*
X10946Y40580D01*
X10647Y40631D01*
X10392Y40794D01*
X10220Y41044D01*
X10160Y41342D01*
X10160Y59921D01*
X10218Y60213D01*
X10541Y60993D01*
X10541Y88743D01*
X10556Y88892D01*
X11218Y92220D01*
X11331Y92495D01*
X13217Y95316D01*
X13311Y95432D01*
X14901Y97021D01*
X14901Y97021D01*
X77110Y159230D01*
X78700Y160820D01*
X81543Y163663D01*
X85564Y170627D01*
X87645Y178395D01*
X87645Y418575D01*
X85564Y426343D01*
X81543Y433307D01*
X78700Y436150D01*
X14614Y500237D01*
X13024Y501826D01*
X12929Y501942D01*
X11257Y504445D01*
X11143Y504720D01*
X10556Y507672D01*
X10541Y507821D01*
X10541Y509917D01*
X10218Y510697D01*
X10160Y510989D01*
X10160Y518658D01*
X10205Y518916D01*
X10362Y519175D01*
X10608Y519353D01*
X10904Y519420D01*
X11202Y519367D01*
X11457Y519202D01*
X11626Y518950D01*
X14730Y511456D01*
X21456Y504730D01*
X30244Y501090D01*
X39756Y501090D01*
X48544Y504730D01*
X55270Y511456D01*
X58910Y520244D01*
X58910Y529756D01*
X55270Y538544D01*
X48544Y545270D01*
X41050Y548374D01*
X40829Y548514D01*
X40650Y548759D01*
X40580Y549054D01*
X40631Y549353D01*
X40794Y549608D01*
X41044Y549780D01*
X41342Y549840D01*
X608658Y549840D01*
X608916Y549795D01*
X609175Y549638D01*
X609353Y549392D01*
X609420Y549096D01*
X609367Y548798D01*
X609202Y548544D01*
X608950Y548374D01*
X601456Y545270D01*
X594730Y538544D01*
X591090Y529756D01*
X591090Y520244D01*
X594730Y511456D01*
X601456Y504730D01*
X610244Y501090D01*
X619756Y501090D01*
X628544Y504730D01*
X635270Y511456D01*
X638374Y518950D01*
X638514Y519171D01*
X638759Y519350D01*
X639054Y519420D01*
X639353Y519369D01*
X639608Y519206D01*
X639780Y518956D01*
X639840Y518658D01*
X639840Y41342D01*
X639795Y41084D01*
X639638Y40825D01*
X639392Y40647D01*
X639096Y40580D01*
X638798Y40633D01*
X638544Y40799D01*
X638374Y41050D01*
X635270Y48544D01*
X628544Y55270D01*
X619756Y58910D01*
X610244Y58910D01*
X601456Y55270D01*
X594730Y48544D01*
X591090Y39756D01*
X591090Y30244D01*
X594730Y21456D01*
X601456Y14730D01*
X608950Y11626D01*
X609171Y11486D01*
X609350Y11241D01*
X609420Y10946D01*
X609369Y10647D01*
X609206Y10392D01*
X608956Y10220D01*
G37*
%LPC*%
G36*
X124310Y536069D02*
X133738Y536069D01*
X133738Y545497D01*
X132473Y545497D01*
X128728Y543946D01*
X125861Y541079D01*
X124310Y537334D01*
X124310Y536069D01*
G37*
G36*
X225910Y536069D02*
X235338Y536069D01*
X235338Y545497D01*
X234073Y545497D01*
X230328Y543946D01*
X227461Y541079D01*
X225910Y537334D01*
X225910Y536069D01*
G37*
G36*
X302110Y536069D02*
X311538Y536069D01*
X311538Y545497D01*
X310273Y545497D01*
X306528Y543946D01*
X303661Y541079D01*
X302110Y537334D01*
X302110Y536069D01*
G37*
G36*
X429110Y536069D02*
X438538Y536069D01*
X438538Y545497D01*
X437273Y545497D01*
X433528Y543946D01*
X430661Y541079D01*
X429110Y537334D01*
X429110Y536069D01*
G37*
G36*
X479910Y536069D02*
X489338Y536069D01*
X489338Y545497D01*
X488073Y545497D01*
X484328Y543946D01*
X481461Y541079D01*
X479910Y537334D01*
X479910Y536069D01*
G37*
G36*
X490862Y536069D02*
X500290Y536069D01*
X500290Y537334D01*
X498739Y541079D01*
X495872Y543946D01*
X492127Y545497D01*
X490862Y545497D01*
X490862Y536069D01*
G37*
G36*
X440062Y536069D02*
X449490Y536069D01*
X449490Y537334D01*
X447939Y541079D01*
X445072Y543946D01*
X441327Y545497D01*
X440062Y545497D01*
X440062Y536069D01*
G37*
G36*
X313062Y536069D02*
X322490Y536069D01*
X322490Y537334D01*
X320939Y541079D01*
X318072Y543946D01*
X314327Y545497D01*
X313062Y545497D01*
X313062Y536069D01*
G37*
G36*
X236862Y536069D02*
X246290Y536069D01*
X246290Y537334D01*
X244739Y541079D01*
X241872Y543946D01*
X238127Y545497D01*
X236862Y545497D01*
X236862Y536069D01*
G37*
G36*
X135262Y536069D02*
X144690Y536069D01*
X144690Y537334D01*
X143139Y541079D01*
X140272Y543946D01*
X136527Y545497D01*
X135262Y545497D01*
X135262Y536069D01*
G37*
G36*
X158074Y526127D02*
X161726Y526127D01*
X165100Y527525D01*
X167682Y530107D01*
X169080Y533481D01*
X169080Y537133D01*
X167682Y540507D01*
X165100Y543089D01*
X161726Y544487D01*
X158074Y544487D01*
X154700Y543089D01*
X152118Y540507D01*
X150720Y537133D01*
X150720Y533481D01*
X152118Y530107D01*
X154700Y527525D01*
X158074Y526127D01*
G37*
G36*
X107274Y526127D02*
X110926Y526127D01*
X114300Y527525D01*
X116882Y530107D01*
X118280Y533481D01*
X118280Y537133D01*
X116882Y540507D01*
X114300Y543089D01*
X110926Y544487D01*
X107274Y544487D01*
X103900Y543089D01*
X101318Y540507D01*
X99920Y537133D01*
X99920Y533481D01*
X101318Y530107D01*
X103900Y527525D01*
X107274Y526127D01*
G37*
G36*
X183474Y526127D02*
X187126Y526127D01*
X190500Y527525D01*
X193082Y530107D01*
X194480Y533481D01*
X194480Y537133D01*
X193082Y540507D01*
X190500Y543089D01*
X187126Y544487D01*
X183474Y544487D01*
X180100Y543089D01*
X177518Y540507D01*
X176120Y537133D01*
X176120Y533481D01*
X177518Y530107D01*
X180100Y527525D01*
X183474Y526127D01*
G37*
G36*
X208874Y526127D02*
X212526Y526127D01*
X215900Y527525D01*
X218482Y530107D01*
X219880Y533481D01*
X219880Y537133D01*
X218482Y540507D01*
X215900Y543089D01*
X212526Y544487D01*
X208874Y544487D01*
X205500Y543089D01*
X202918Y540507D01*
X201520Y537133D01*
X201520Y533481D01*
X202918Y530107D01*
X205500Y527525D01*
X208874Y526127D01*
G37*
G36*
X81874Y526127D02*
X85526Y526127D01*
X88900Y527525D01*
X91482Y530107D01*
X92880Y533481D01*
X92880Y537133D01*
X91482Y540507D01*
X88900Y543089D01*
X85526Y544487D01*
X81874Y544487D01*
X78500Y543089D01*
X75918Y540507D01*
X74520Y537133D01*
X74520Y533481D01*
X75918Y530107D01*
X78500Y527525D01*
X81874Y526127D01*
G37*
G36*
X564474Y526127D02*
X568126Y526127D01*
X571500Y527525D01*
X574082Y530107D01*
X575480Y533481D01*
X575480Y537133D01*
X574082Y540507D01*
X571500Y543089D01*
X568126Y544487D01*
X564474Y544487D01*
X561100Y543089D01*
X558518Y540507D01*
X557120Y537133D01*
X557120Y533481D01*
X558518Y530107D01*
X561100Y527525D01*
X564474Y526127D01*
G37*
G36*
X539074Y526127D02*
X542726Y526127D01*
X546100Y527525D01*
X548682Y530107D01*
X550080Y533481D01*
X550080Y537133D01*
X548682Y540507D01*
X546100Y543089D01*
X542726Y544487D01*
X539074Y544487D01*
X535700Y543089D01*
X533118Y540507D01*
X531720Y537133D01*
X531720Y533481D01*
X533118Y530107D01*
X535700Y527525D01*
X539074Y526127D01*
G37*
G36*
X513674Y526127D02*
X517326Y526127D01*
X520700Y527525D01*
X523282Y530107D01*
X524680Y533481D01*
X524680Y537133D01*
X523282Y540507D01*
X520700Y543089D01*
X517326Y544487D01*
X513674Y544487D01*
X510300Y543089D01*
X507718Y540507D01*
X506320Y537133D01*
X506320Y533481D01*
X507718Y530107D01*
X510300Y527525D01*
X513674Y526127D01*
G37*
G36*
X462874Y526127D02*
X466526Y526127D01*
X469900Y527525D01*
X472482Y530107D01*
X473880Y533481D01*
X473880Y537133D01*
X472482Y540507D01*
X469900Y543089D01*
X466526Y544487D01*
X462874Y544487D01*
X459500Y543089D01*
X456918Y540507D01*
X455520Y537133D01*
X455520Y533481D01*
X456918Y530107D01*
X459500Y527525D01*
X462874Y526127D01*
G37*
G36*
X412074Y526127D02*
X415726Y526127D01*
X419100Y527525D01*
X421682Y530107D01*
X423080Y533481D01*
X423080Y537133D01*
X421682Y540507D01*
X419100Y543089D01*
X415726Y544487D01*
X412074Y544487D01*
X408700Y543089D01*
X406118Y540507D01*
X404720Y537133D01*
X404720Y533481D01*
X406118Y530107D01*
X408700Y527525D01*
X412074Y526127D01*
G37*
G36*
X386674Y526127D02*
X390326Y526127D01*
X393700Y527525D01*
X396282Y530107D01*
X397680Y533481D01*
X397680Y537133D01*
X396282Y540507D01*
X393700Y543089D01*
X390326Y544487D01*
X386674Y544487D01*
X383300Y543089D01*
X380718Y540507D01*
X379320Y537133D01*
X379320Y533481D01*
X380718Y530107D01*
X383300Y527525D01*
X386674Y526127D01*
G37*
G36*
X361274Y526127D02*
X364926Y526127D01*
X368300Y527525D01*
X370882Y530107D01*
X372280Y533481D01*
X372280Y537133D01*
X370882Y540507D01*
X368300Y543089D01*
X364926Y544487D01*
X361274Y544487D01*
X357900Y543089D01*
X355318Y540507D01*
X353920Y537133D01*
X353920Y533481D01*
X355318Y530107D01*
X357900Y527525D01*
X361274Y526127D01*
G37*
G36*
X335874Y526127D02*
X339526Y526127D01*
X342900Y527525D01*
X345482Y530107D01*
X346880Y533481D01*
X346880Y537133D01*
X345482Y540507D01*
X342900Y543089D01*
X339526Y544487D01*
X335874Y544487D01*
X332500Y543089D01*
X329918Y540507D01*
X328520Y537133D01*
X328520Y533481D01*
X329918Y530107D01*
X332500Y527525D01*
X335874Y526127D01*
G37*
G36*
X285074Y526127D02*
X288726Y526127D01*
X292100Y527525D01*
X294682Y530107D01*
X296080Y533481D01*
X296080Y537133D01*
X294682Y540507D01*
X292100Y543089D01*
X288726Y544487D01*
X285074Y544487D01*
X281700Y543089D01*
X279118Y540507D01*
X277720Y537133D01*
X277720Y533481D01*
X279118Y530107D01*
X281700Y527525D01*
X285074Y526127D01*
G37*
G36*
X259674Y526127D02*
X263326Y526127D01*
X266700Y527525D01*
X269282Y530107D01*
X270680Y533481D01*
X270680Y537133D01*
X269282Y540507D01*
X266700Y543089D01*
X263326Y544487D01*
X259674Y544487D01*
X256300Y543089D01*
X253718Y540507D01*
X252320Y537133D01*
X252320Y533481D01*
X253718Y530107D01*
X256300Y527525D01*
X259674Y526127D01*
G37*
G36*
X313062Y525117D02*
X314327Y525117D01*
X318072Y526668D01*
X320939Y529535D01*
X322490Y533280D01*
X322490Y534545D01*
X313062Y534545D01*
X313062Y525117D01*
G37*
G36*
X236862Y525117D02*
X238127Y525117D01*
X241872Y526668D01*
X244739Y529535D01*
X246290Y533280D01*
X246290Y534545D01*
X236862Y534545D01*
X236862Y525117D01*
G37*
G36*
X490862Y525117D02*
X492127Y525117D01*
X495872Y526668D01*
X498739Y529535D01*
X500290Y533280D01*
X500290Y534545D01*
X490862Y534545D01*
X490862Y525117D01*
G37*
G36*
X488073Y525117D02*
X489338Y525117D01*
X489338Y534545D01*
X479910Y534545D01*
X479910Y533280D01*
X481461Y529535D01*
X484328Y526668D01*
X488073Y525117D01*
G37*
G36*
X440062Y525117D02*
X441327Y525117D01*
X445072Y526668D01*
X447939Y529535D01*
X449490Y533280D01*
X449490Y534545D01*
X440062Y534545D01*
X440062Y525117D01*
G37*
G36*
X437273Y525117D02*
X438538Y525117D01*
X438538Y534545D01*
X429110Y534545D01*
X429110Y533280D01*
X430661Y529535D01*
X433528Y526668D01*
X437273Y525117D01*
G37*
G36*
X310273Y525117D02*
X311538Y525117D01*
X311538Y534545D01*
X302110Y534545D01*
X302110Y533280D01*
X303661Y529535D01*
X306528Y526668D01*
X310273Y525117D01*
G37*
G36*
X234073Y525117D02*
X235338Y525117D01*
X235338Y534545D01*
X225910Y534545D01*
X225910Y533280D01*
X227461Y529535D01*
X230328Y526668D01*
X234073Y525117D01*
G37*
G36*
X135262Y525117D02*
X136527Y525117D01*
X140272Y526668D01*
X143139Y529535D01*
X144690Y533280D01*
X144690Y534545D01*
X135262Y534545D01*
X135262Y525117D01*
G37*
G36*
X132473Y525117D02*
X133738Y525117D01*
X133738Y534545D01*
X124310Y534545D01*
X124310Y533280D01*
X125861Y529535D01*
X128728Y526668D01*
X132473Y525117D01*
G37*
G36*
X186062Y510669D02*
X195490Y510669D01*
X195490Y511934D01*
X193939Y515679D01*
X191072Y518546D01*
X187327Y520097D01*
X186062Y520097D01*
X186062Y510669D01*
G37*
G36*
X389262Y510669D02*
X398690Y510669D01*
X398690Y511934D01*
X397139Y515679D01*
X394272Y518546D01*
X390527Y520097D01*
X389262Y520097D01*
X389262Y510669D01*
G37*
G36*
X175110Y510669D02*
X184538Y510669D01*
X184538Y520097D01*
X183273Y520097D01*
X179528Y518546D01*
X176661Y515679D01*
X175110Y511934D01*
X175110Y510669D01*
G37*
G36*
X378310Y510669D02*
X387738Y510669D01*
X387738Y520097D01*
X386473Y520097D01*
X382728Y518546D01*
X379861Y515679D01*
X378310Y511934D01*
X378310Y510669D01*
G37*
G36*
X556110Y510669D02*
X565538Y510669D01*
X565538Y520097D01*
X564273Y520097D01*
X560528Y518546D01*
X557661Y515679D01*
X556110Y511934D01*
X556110Y510669D01*
G37*
G36*
X567062Y510669D02*
X576490Y510669D01*
X576490Y511934D01*
X574939Y515679D01*
X572072Y518546D01*
X568327Y520097D01*
X567062Y520097D01*
X567062Y510669D01*
G37*
G36*
X335874Y500727D02*
X339526Y500727D01*
X342900Y502125D01*
X345482Y504707D01*
X346880Y508081D01*
X346880Y511733D01*
X345482Y515107D01*
X342900Y517689D01*
X339526Y519087D01*
X335874Y519087D01*
X332500Y517689D01*
X329918Y515107D01*
X328520Y511733D01*
X328520Y508081D01*
X329918Y504707D01*
X332500Y502125D01*
X335874Y500727D01*
G37*
G36*
X539074Y500727D02*
X542726Y500727D01*
X546100Y502125D01*
X548682Y504707D01*
X550080Y508081D01*
X550080Y511733D01*
X548682Y515107D01*
X546100Y517689D01*
X542726Y519087D01*
X539074Y519087D01*
X535700Y517689D01*
X533118Y515107D01*
X531720Y511733D01*
X531720Y508081D01*
X533118Y504707D01*
X535700Y502125D01*
X539074Y500727D01*
G37*
G36*
X401590Y459662D02*
X405986Y459662D01*
X409094Y462770D01*
X409094Y467166D01*
X405986Y470274D01*
X402043Y470274D01*
X401757Y470330D01*
X401504Y470497D01*
X392540Y479461D01*
X392377Y479702D01*
X392317Y480000D01*
X392317Y480632D01*
X392357Y480875D01*
X392374Y480905D01*
X392318Y481838D01*
X392317Y481884D01*
X392317Y482812D01*
X392313Y482828D01*
X391613Y483449D01*
X391580Y483480D01*
X390924Y484136D01*
X390677Y484279D01*
X390647Y484306D01*
X390614Y484337D01*
X371055Y503895D01*
X370895Y504132D01*
X370832Y504428D01*
X370890Y504726D01*
X372280Y508081D01*
X372280Y511733D01*
X370882Y515107D01*
X368300Y517689D01*
X364926Y519087D01*
X361274Y519087D01*
X357900Y517689D01*
X355318Y515107D01*
X353920Y511733D01*
X353920Y508081D01*
X355318Y504707D01*
X357900Y502125D01*
X361274Y500727D01*
X364926Y500727D01*
X366441Y501355D01*
X366721Y501413D01*
X367019Y501357D01*
X367272Y501189D01*
X386527Y481934D01*
X386530Y481930D01*
X386602Y481858D01*
X386746Y481658D01*
X386755Y481624D01*
X387454Y481004D01*
X387487Y480972D01*
X387505Y480955D01*
X387668Y480713D01*
X387728Y480416D01*
X387728Y477783D01*
X398259Y467252D01*
X398422Y467011D01*
X398482Y466713D01*
X398482Y462770D01*
X401590Y459662D01*
G37*
G36*
X310474Y500727D02*
X314126Y500727D01*
X317500Y502125D01*
X320082Y504707D01*
X321480Y508081D01*
X321480Y511733D01*
X320082Y515107D01*
X317500Y517689D01*
X314126Y519087D01*
X310474Y519087D01*
X307100Y517689D01*
X304518Y515107D01*
X303120Y511733D01*
X303120Y508081D01*
X304518Y504707D01*
X307100Y502125D01*
X310474Y500727D01*
G37*
G36*
X285074Y500727D02*
X288726Y500727D01*
X292100Y502125D01*
X294682Y504707D01*
X296080Y508081D01*
X296080Y511733D01*
X294682Y515107D01*
X292100Y517689D01*
X288726Y519087D01*
X285074Y519087D01*
X281700Y517689D01*
X279118Y515107D01*
X277720Y511733D01*
X277720Y508081D01*
X279118Y504707D01*
X281700Y502125D01*
X285074Y500727D01*
G37*
G36*
X259674Y500727D02*
X263326Y500727D01*
X266700Y502125D01*
X269282Y504707D01*
X270680Y508081D01*
X270680Y511733D01*
X269282Y515107D01*
X266700Y517689D01*
X263326Y519087D01*
X259674Y519087D01*
X256300Y517689D01*
X253718Y515107D01*
X252320Y511733D01*
X252320Y508081D01*
X253718Y504707D01*
X256300Y502125D01*
X259674Y500727D01*
G37*
G36*
X234274Y500727D02*
X237926Y500727D01*
X241300Y502125D01*
X243882Y504707D01*
X245280Y508081D01*
X245280Y511733D01*
X243882Y515107D01*
X241300Y517689D01*
X237926Y519087D01*
X234274Y519087D01*
X230900Y517689D01*
X228318Y515107D01*
X226920Y511733D01*
X226920Y508081D01*
X228318Y504707D01*
X230900Y502125D01*
X234274Y500727D01*
G37*
G36*
X208874Y500727D02*
X212526Y500727D01*
X215900Y502125D01*
X218482Y504707D01*
X219880Y508081D01*
X219880Y511733D01*
X218482Y515107D01*
X215900Y517689D01*
X212526Y519087D01*
X208874Y519087D01*
X205500Y517689D01*
X202918Y515107D01*
X201520Y511733D01*
X201520Y508081D01*
X202918Y504707D01*
X205500Y502125D01*
X208874Y500727D01*
G37*
G36*
X158074Y500727D02*
X161726Y500727D01*
X165100Y502125D01*
X167682Y504707D01*
X169080Y508081D01*
X169080Y511733D01*
X167682Y515107D01*
X165100Y517689D01*
X161726Y519087D01*
X158074Y519087D01*
X154700Y517689D01*
X152118Y515107D01*
X150720Y511733D01*
X150720Y508081D01*
X152118Y504707D01*
X154700Y502125D01*
X158074Y500727D01*
G37*
G36*
X132674Y500727D02*
X136326Y500727D01*
X139700Y502125D01*
X142282Y504707D01*
X143680Y508081D01*
X143680Y511733D01*
X142282Y515107D01*
X139700Y517689D01*
X136326Y519087D01*
X132674Y519087D01*
X129300Y517689D01*
X126718Y515107D01*
X125320Y511733D01*
X125320Y508081D01*
X126718Y504707D01*
X129300Y502125D01*
X132674Y500727D01*
G37*
G36*
X107274Y500727D02*
X110926Y500727D01*
X114300Y502125D01*
X116882Y504707D01*
X118280Y508081D01*
X118280Y511733D01*
X116882Y515107D01*
X114300Y517689D01*
X110926Y519087D01*
X107274Y519087D01*
X103900Y517689D01*
X101318Y515107D01*
X99920Y511733D01*
X99920Y508081D01*
X101318Y504707D01*
X103900Y502125D01*
X107274Y500727D01*
G37*
G36*
X75416Y500727D02*
X91984Y500727D01*
X92880Y501623D01*
X92880Y518191D01*
X91984Y519087D01*
X75416Y519087D01*
X74520Y518191D01*
X74520Y501623D01*
X75416Y500727D01*
G37*
G36*
X412074Y500727D02*
X415726Y500727D01*
X419100Y502125D01*
X421682Y504707D01*
X423080Y508081D01*
X423080Y511733D01*
X421682Y515107D01*
X419100Y517689D01*
X415726Y519087D01*
X412074Y519087D01*
X408700Y517689D01*
X406118Y515107D01*
X404720Y511733D01*
X404720Y508081D01*
X406118Y504707D01*
X408700Y502125D01*
X412074Y500727D01*
G37*
G36*
X437474Y500727D02*
X441126Y500727D01*
X444500Y502125D01*
X447082Y504707D01*
X448480Y508081D01*
X448480Y511733D01*
X447082Y515107D01*
X444500Y517689D01*
X441126Y519087D01*
X437474Y519087D01*
X434100Y517689D01*
X431518Y515107D01*
X430120Y511733D01*
X430120Y508081D01*
X431518Y504707D01*
X434100Y502125D01*
X437474Y500727D01*
G37*
G36*
X462874Y500727D02*
X466526Y500727D01*
X469900Y502125D01*
X472482Y504707D01*
X473880Y508081D01*
X473880Y511733D01*
X472482Y515107D01*
X469900Y517689D01*
X466526Y519087D01*
X462874Y519087D01*
X459500Y517689D01*
X456918Y515107D01*
X455520Y511733D01*
X455520Y508081D01*
X456918Y504707D01*
X459500Y502125D01*
X462874Y500727D01*
G37*
G36*
X488274Y500727D02*
X491926Y500727D01*
X495300Y502125D01*
X497882Y504707D01*
X499280Y508081D01*
X499280Y511733D01*
X497882Y515107D01*
X495300Y517689D01*
X491926Y519087D01*
X488274Y519087D01*
X484900Y517689D01*
X482318Y515107D01*
X480920Y511733D01*
X480920Y508081D01*
X482318Y504707D01*
X484900Y502125D01*
X488274Y500727D01*
G37*
G36*
X513674Y500727D02*
X517326Y500727D01*
X520700Y502125D01*
X523282Y504707D01*
X524680Y508081D01*
X524680Y511733D01*
X523282Y515107D01*
X520700Y517689D01*
X517326Y519087D01*
X513674Y519087D01*
X510300Y517689D01*
X507718Y515107D01*
X506320Y511733D01*
X506320Y508081D01*
X507718Y504707D01*
X510300Y502125D01*
X513674Y500727D01*
G37*
G36*
X567062Y499717D02*
X568327Y499717D01*
X572072Y501268D01*
X574939Y504135D01*
X576490Y507880D01*
X576490Y509145D01*
X567062Y509145D01*
X567062Y499717D01*
G37*
G36*
X564273Y499717D02*
X565538Y499717D01*
X565538Y509145D01*
X556110Y509145D01*
X556110Y507880D01*
X557661Y504135D01*
X560528Y501268D01*
X564273Y499717D01*
G37*
G36*
X389262Y499717D02*
X390527Y499717D01*
X394272Y501268D01*
X397139Y504135D01*
X398690Y507880D01*
X398690Y509145D01*
X389262Y509145D01*
X389262Y499717D01*
G37*
G36*
X386473Y499717D02*
X387738Y499717D01*
X387738Y509145D01*
X378310Y509145D01*
X378310Y507880D01*
X379861Y504135D01*
X382728Y501268D01*
X386473Y499717D01*
G37*
G36*
X186062Y499717D02*
X187327Y499717D01*
X191072Y501268D01*
X193939Y504135D01*
X195490Y507880D01*
X195490Y509145D01*
X186062Y509145D01*
X186062Y499717D01*
G37*
G36*
X183273Y499717D02*
X184538Y499717D01*
X184538Y509145D01*
X175110Y509145D01*
X175110Y507880D01*
X176661Y504135D01*
X179528Y501268D01*
X183273Y499717D01*
G37*
G36*
X370054Y89696D02*
X373662Y89696D01*
X376996Y91077D01*
X379547Y93628D01*
X380928Y96962D01*
X380928Y100570D01*
X379547Y103904D01*
X376996Y106455D01*
X373662Y107836D01*
X370054Y107836D01*
X366720Y106455D01*
X364169Y103904D01*
X362788Y100570D01*
X362788Y96962D01*
X364169Y93628D01*
X366720Y91077D01*
X370054Y89696D01*
G37*
G36*
X345054Y89696D02*
X348662Y89696D01*
X351996Y91077D01*
X354547Y93628D01*
X355928Y96962D01*
X355928Y100570D01*
X354547Y103904D01*
X351996Y106455D01*
X348662Y107836D01*
X345054Y107836D01*
X341720Y106455D01*
X339169Y103904D01*
X337788Y100570D01*
X337788Y96962D01*
X339169Y93628D01*
X341720Y91077D01*
X345054Y89696D01*
G37*
G36*
X320054Y89696D02*
X323662Y89696D01*
X326996Y91077D01*
X329547Y93628D01*
X330928Y96962D01*
X330928Y100570D01*
X329547Y103904D01*
X326996Y106455D01*
X323662Y107836D01*
X320054Y107836D01*
X316720Y106455D01*
X314169Y103904D01*
X312788Y100570D01*
X312788Y96962D01*
X314169Y93628D01*
X316720Y91077D01*
X320054Y89696D01*
G37*
%LPD*%
D10*
X83700Y509907D03*
D11*
X83700Y535307D03*
X109100Y509907D03*
X109100Y535307D03*
X134500Y509907D03*
X134500Y535307D03*
X159900Y509907D03*
X159900Y535307D03*
X185300Y509907D03*
X185300Y535307D03*
X210700Y509907D03*
X210700Y535307D03*
X236100Y509907D03*
X236100Y535307D03*
X261500Y509907D03*
X261500Y535307D03*
X286900Y509907D03*
X286900Y535307D03*
X312300Y509907D03*
X312300Y535307D03*
X337700Y509907D03*
X337700Y535307D03*
X363100Y509907D03*
X363100Y535307D03*
X388500Y509907D03*
X388500Y535307D03*
X413900Y509907D03*
X413900Y535307D03*
X439300Y509907D03*
X439300Y535307D03*
X464700Y509907D03*
X464700Y535307D03*
X490100Y509907D03*
X490100Y535307D03*
X515500Y509907D03*
X515500Y535307D03*
X540900Y509907D03*
X540900Y535307D03*
X566300Y509907D03*
X566300Y535307D03*
D12*
X321858Y98766D03*
X346858Y98766D03*
X371858Y98766D03*
D13*
X306200Y285204D03*
X360360Y216305D03*
D14*
X389045Y482660D02*
X389045Y482661D01*
X362436Y509270D01*
X363100Y509907D01*
X390023Y478734D02*
X403788Y464968D01*
X390023Y478734D02*
X390023Y481793D01*
X389045Y482660D01*
D13*
X403788Y464968D03*
M02*
