G04 EAGLE Gerber RS-274X export*
G75*
%MOMM*%
%FSLAX34Y34*%
%LPD*%
%INSilkscreen Top*%
%IPPOS*%
%AMOC8*
5,1,8,0,0,1.08239X$1,22.5*%
G01*
G04 Define Apertures*
%ADD10C,0.812800*%
%ADD11C,0.304800*%
%ADD12C,0.127000*%
%ADD13C,0.406400*%
%ADD14C,0.152400*%
G36*
X177983Y322166D02*
X156303Y322166D01*
X156303Y324760D01*
X158309Y324760D01*
X158026Y324928D01*
X157761Y325109D01*
X157514Y325304D01*
X157283Y325512D01*
X157070Y325733D01*
X156874Y325968D01*
X156696Y326216D01*
X156535Y326478D01*
X156392Y326751D01*
X156268Y327035D01*
X156163Y327329D01*
X156077Y327633D01*
X156010Y327947D01*
X155963Y328272D01*
X155934Y328607D01*
X155925Y328953D01*
X155933Y329304D01*
X155959Y329645D01*
X156002Y329977D01*
X156062Y330299D01*
X156140Y330612D01*
X156234Y330915D01*
X156346Y331209D01*
X156475Y331493D01*
X156621Y331767D01*
X156785Y332032D01*
X156965Y332287D01*
X157163Y332532D01*
X157378Y332768D01*
X157610Y332995D01*
X157860Y333212D01*
X158126Y333419D01*
X158408Y333615D01*
X158703Y333799D01*
X159011Y333969D01*
X159333Y334127D01*
X159668Y334273D01*
X160016Y334406D01*
X160377Y334526D01*
X160752Y334634D01*
X161140Y334729D01*
X161541Y334811D01*
X161955Y334880D01*
X162383Y334937D01*
X162824Y334982D01*
X163278Y335013D01*
X163746Y335032D01*
X164226Y335039D01*
X164698Y335032D01*
X165157Y335013D01*
X165604Y334981D01*
X166037Y334937D01*
X166458Y334880D01*
X166866Y334810D01*
X167261Y334727D01*
X167642Y334632D01*
X168012Y334524D01*
X168368Y334403D01*
X168711Y334270D01*
X169042Y334124D01*
X169359Y333965D01*
X169664Y333793D01*
X169956Y333609D01*
X170235Y333412D01*
X170499Y333204D01*
X170746Y332986D01*
X170976Y332760D01*
X171189Y332523D01*
X171385Y332277D01*
X171564Y332022D01*
X171726Y331758D01*
X171870Y331484D01*
X171998Y331200D01*
X172109Y330908D01*
X172203Y330605D01*
X172279Y330294D01*
X172339Y329972D01*
X172381Y329642D01*
X172407Y329302D01*
X172415Y328953D01*
X172406Y328601D01*
X172377Y328260D01*
X172330Y327930D01*
X172263Y327612D01*
X172177Y327304D01*
X172072Y327008D01*
X171948Y326723D01*
X171806Y326450D01*
X171644Y326188D01*
X171466Y325942D01*
X171270Y325709D01*
X171057Y325491D01*
X170827Y325287D01*
X170579Y325097D01*
X170314Y324921D01*
X170032Y324760D01*
X177983Y324760D01*
X177983Y322166D01*
G37*
%LPC*%
G36*
X164170Y324760D02*
X164891Y324775D01*
X165567Y324820D01*
X166199Y324896D01*
X166785Y325002D01*
X167327Y325138D01*
X167825Y325304D01*
X168277Y325501D01*
X168685Y325727D01*
X169047Y325984D01*
X169069Y326003D01*
X169360Y326268D01*
X169625Y326581D01*
X169842Y326923D01*
X170011Y327293D01*
X170132Y327691D01*
X170204Y328118D01*
X170222Y328343D01*
X170228Y328574D01*
X170204Y329026D01*
X170132Y329449D01*
X170013Y329844D01*
X169846Y330209D01*
X169631Y330547D01*
X169368Y330855D01*
X169058Y331135D01*
X168699Y331386D01*
X168294Y331607D01*
X167843Y331800D01*
X167346Y331962D01*
X166803Y332096D01*
X166214Y332199D01*
X165579Y332273D01*
X164897Y332317D01*
X164170Y332332D01*
X163443Y332317D01*
X162762Y332273D01*
X162126Y332199D01*
X161537Y332096D01*
X160994Y331962D01*
X160497Y331800D01*
X160046Y331607D01*
X159641Y331386D01*
X159282Y331135D01*
X158972Y330855D01*
X158709Y330547D01*
X158494Y330209D01*
X158327Y329844D01*
X158208Y329449D01*
X158136Y329026D01*
X158112Y328574D01*
X158118Y328343D01*
X158136Y328118D01*
X158208Y327691D01*
X158328Y327293D01*
X158496Y326923D01*
X158712Y326581D01*
X158976Y326268D01*
X159288Y325984D01*
X159648Y325727D01*
X160054Y325501D01*
X160506Y325304D01*
X161003Y325138D01*
X161546Y325002D01*
X162134Y324896D01*
X162767Y324820D01*
X163446Y324775D01*
X164170Y324760D01*
G37*
%LPD*%
G36*
X206634Y114697D02*
X184954Y114697D01*
X184954Y117291D01*
X186960Y117291D01*
X186677Y117459D01*
X186412Y117640D01*
X186165Y117835D01*
X185934Y118043D01*
X185721Y118264D01*
X185525Y118499D01*
X185347Y118747D01*
X185186Y119009D01*
X185043Y119282D01*
X184919Y119566D01*
X184814Y119860D01*
X184728Y120164D01*
X184662Y120479D01*
X184614Y120803D01*
X184585Y121138D01*
X184576Y121484D01*
X184584Y121835D01*
X184610Y122176D01*
X184653Y122508D01*
X184713Y122831D01*
X184791Y123143D01*
X184885Y123446D01*
X184997Y123740D01*
X185126Y124024D01*
X185272Y124298D01*
X185436Y124563D01*
X185616Y124818D01*
X185814Y125064D01*
X186029Y125300D01*
X186261Y125526D01*
X186511Y125743D01*
X186777Y125950D01*
X187059Y126146D01*
X187354Y126330D01*
X187663Y126501D01*
X187984Y126659D01*
X188319Y126804D01*
X188667Y126937D01*
X189029Y127057D01*
X189403Y127165D01*
X189791Y127260D01*
X190192Y127342D01*
X190607Y127412D01*
X191034Y127469D01*
X191475Y127513D01*
X191929Y127544D01*
X192397Y127563D01*
X192877Y127570D01*
X193349Y127563D01*
X193809Y127544D01*
X194255Y127513D01*
X194688Y127468D01*
X195109Y127411D01*
X195517Y127341D01*
X195912Y127258D01*
X196294Y127163D01*
X196663Y127055D01*
X197019Y126934D01*
X197362Y126801D01*
X197693Y126655D01*
X198011Y126496D01*
X198315Y126324D01*
X198607Y126140D01*
X198886Y125943D01*
X199150Y125735D01*
X199397Y125518D01*
X199627Y125291D01*
X199840Y125054D01*
X200036Y124809D01*
X200215Y124554D01*
X200377Y124289D01*
X200522Y124015D01*
X200649Y123732D01*
X200760Y123439D01*
X200854Y123136D01*
X200930Y122825D01*
X200990Y122504D01*
X201033Y122173D01*
X201058Y121833D01*
X201067Y121484D01*
X201057Y121132D01*
X201029Y120791D01*
X200981Y120461D01*
X200914Y120143D01*
X200828Y119836D01*
X200724Y119540D01*
X200600Y119255D01*
X200457Y118981D01*
X200296Y118720D01*
X200117Y118473D01*
X199921Y118240D01*
X199708Y118022D01*
X199478Y117818D01*
X199230Y117628D01*
X198965Y117452D01*
X198683Y117291D01*
X206634Y117291D01*
X206634Y114697D01*
G37*
%LPC*%
G36*
X192821Y117291D02*
X193542Y117306D01*
X194218Y117352D01*
X194850Y117427D01*
X195437Y117533D01*
X195979Y117669D01*
X196476Y117835D01*
X196929Y118032D01*
X197337Y118259D01*
X197698Y118515D01*
X197720Y118535D01*
X198011Y118799D01*
X198277Y119112D01*
X198494Y119454D01*
X198662Y119824D01*
X198783Y120223D01*
X198855Y120650D01*
X198873Y120874D01*
X198879Y121105D01*
X198855Y121557D01*
X198784Y121980D01*
X198664Y122375D01*
X198497Y122741D01*
X198282Y123078D01*
X198019Y123386D01*
X197709Y123666D01*
X197351Y123917D01*
X196946Y124139D01*
X196494Y124331D01*
X195997Y124494D01*
X195454Y124627D01*
X194865Y124730D01*
X194230Y124804D01*
X193548Y124849D01*
X192821Y124863D01*
X192094Y124849D01*
X191413Y124804D01*
X190778Y124730D01*
X190188Y124627D01*
X189645Y124494D01*
X189148Y124331D01*
X188697Y124139D01*
X188292Y123917D01*
X187934Y123666D01*
X187623Y123386D01*
X187360Y123078D01*
X187146Y122741D01*
X186978Y122375D01*
X186859Y121980D01*
X186787Y121557D01*
X186763Y121105D01*
X186769Y120874D01*
X186787Y120650D01*
X186859Y120223D01*
X186979Y119824D01*
X187147Y119454D01*
X187363Y119112D01*
X187627Y118799D01*
X187939Y118515D01*
X188299Y118259D01*
X188705Y118032D01*
X189157Y117835D01*
X189655Y117669D01*
X190197Y117533D01*
X190785Y117427D01*
X191419Y117352D01*
X192097Y117306D01*
X192821Y117291D01*
G37*
%LPD*%
G36*
X164170Y113954D02*
X163676Y113960D01*
X163197Y113981D01*
X162733Y114014D01*
X162283Y114061D01*
X161848Y114122D01*
X161428Y114196D01*
X161023Y114284D01*
X160633Y114385D01*
X160257Y114499D01*
X159896Y114627D01*
X159550Y114769D01*
X159219Y114924D01*
X158903Y115092D01*
X158601Y115274D01*
X158314Y115470D01*
X158042Y115678D01*
X157786Y115900D01*
X157546Y116134D01*
X157323Y116379D01*
X157116Y116637D01*
X156925Y116907D01*
X156752Y117189D01*
X156595Y117483D01*
X156454Y117789D01*
X156330Y118107D01*
X156222Y118437D01*
X156131Y118779D01*
X156057Y119133D01*
X155999Y119500D01*
X155958Y119878D01*
X155933Y120268D01*
X155925Y120671D01*
X155933Y121073D01*
X155958Y121463D01*
X155999Y121842D01*
X156057Y122208D01*
X156131Y122563D01*
X156222Y122905D01*
X156330Y123236D01*
X156454Y123554D01*
X156595Y123860D01*
X156752Y124155D01*
X156925Y124437D01*
X157116Y124708D01*
X157323Y124966D01*
X157546Y125213D01*
X157786Y125447D01*
X158042Y125670D01*
X158314Y125879D01*
X158601Y126076D01*
X158903Y126258D01*
X159219Y126427D01*
X159550Y126583D01*
X159896Y126725D01*
X160257Y126854D01*
X160633Y126969D01*
X161023Y127070D01*
X161428Y127158D01*
X161848Y127232D01*
X162283Y127293D01*
X162733Y127341D01*
X163197Y127374D01*
X163676Y127395D01*
X164170Y127402D01*
X164666Y127395D01*
X165146Y127375D01*
X165612Y127341D01*
X166063Y127294D01*
X166499Y127233D01*
X166919Y127159D01*
X167325Y127071D01*
X167716Y126970D01*
X168092Y126856D01*
X168453Y126728D01*
X168799Y126586D01*
X169130Y126431D01*
X169446Y126263D01*
X169748Y126081D01*
X170034Y125886D01*
X170305Y125677D01*
X170561Y125455D01*
X170800Y125221D01*
X171022Y124975D01*
X171228Y124717D01*
X171418Y124447D01*
X171591Y124164D01*
X171748Y123870D01*
X171888Y123563D01*
X172012Y123244D01*
X172119Y122913D01*
X172209Y122569D01*
X172284Y122214D01*
X172341Y121846D01*
X172382Y121467D01*
X172407Y121075D01*
X172415Y120671D01*
X172407Y120268D01*
X172382Y119878D01*
X172341Y119500D01*
X172284Y119133D01*
X172209Y118779D01*
X172119Y118437D01*
X172012Y118107D01*
X171888Y117789D01*
X171748Y117483D01*
X171591Y117189D01*
X171418Y116907D01*
X171228Y116637D01*
X171022Y116379D01*
X170800Y116134D01*
X170561Y115900D01*
X170305Y115678D01*
X170034Y115470D01*
X169748Y115274D01*
X169446Y115092D01*
X169130Y114924D01*
X168799Y114769D01*
X168453Y114627D01*
X168092Y114499D01*
X167716Y114385D01*
X167325Y114284D01*
X166919Y114196D01*
X166499Y114122D01*
X166063Y114061D01*
X165612Y114014D01*
X165146Y113981D01*
X164666Y113960D01*
X164170Y113954D01*
G37*
%LPC*%
G36*
X164170Y116688D02*
X164894Y116704D01*
X165573Y116751D01*
X166206Y116830D01*
X166794Y116940D01*
X167337Y117082D01*
X167834Y117256D01*
X168286Y117461D01*
X168692Y117698D01*
X169052Y117965D01*
X169364Y118262D01*
X169628Y118589D01*
X169844Y118946D01*
X170012Y119332D01*
X170132Y119749D01*
X170204Y120195D01*
X170222Y120429D01*
X170228Y120671D01*
X170222Y120914D01*
X170204Y121150D01*
X170132Y121599D01*
X170012Y122017D01*
X169844Y122406D01*
X169628Y122764D01*
X169364Y123092D01*
X169052Y123390D01*
X168692Y123657D01*
X168286Y123894D01*
X167834Y124099D01*
X167337Y124273D01*
X166794Y124415D01*
X166206Y124525D01*
X165573Y124604D01*
X164894Y124651D01*
X164170Y124667D01*
X163443Y124651D01*
X162762Y124604D01*
X162126Y124525D01*
X161537Y124415D01*
X160994Y124273D01*
X160497Y124099D01*
X160046Y123894D01*
X159641Y123657D01*
X159282Y123390D01*
X158972Y123092D01*
X158709Y122764D01*
X158494Y122406D01*
X158327Y122017D01*
X158208Y121599D01*
X158136Y121150D01*
X158118Y120914D01*
X158112Y120671D01*
X158118Y120429D01*
X158136Y120195D01*
X158208Y119749D01*
X158327Y119332D01*
X158494Y118946D01*
X158709Y118589D01*
X158972Y118262D01*
X159282Y117965D01*
X159641Y117698D01*
X160046Y117461D01*
X160497Y117256D01*
X160994Y117082D01*
X161537Y116940D01*
X162126Y116830D01*
X162762Y116751D01*
X163443Y116704D01*
X164170Y116688D01*
G37*
%LPD*%
G36*
X164170Y217704D02*
X163676Y217710D01*
X163197Y217731D01*
X162733Y217764D01*
X162283Y217811D01*
X161848Y217872D01*
X161428Y217946D01*
X161023Y218034D01*
X160633Y218135D01*
X160257Y218249D01*
X159896Y218377D01*
X159550Y218519D01*
X159219Y218674D01*
X158903Y218842D01*
X158601Y219024D01*
X158314Y219220D01*
X158042Y219428D01*
X157786Y219650D01*
X157546Y219884D01*
X157323Y220129D01*
X157116Y220387D01*
X156925Y220657D01*
X156752Y220939D01*
X156595Y221233D01*
X156454Y221539D01*
X156330Y221857D01*
X156222Y222187D01*
X156131Y222529D01*
X156057Y222883D01*
X155999Y223250D01*
X155958Y223628D01*
X155933Y224018D01*
X155925Y224421D01*
X155933Y224823D01*
X155958Y225213D01*
X155999Y225592D01*
X156057Y225958D01*
X156131Y226313D01*
X156222Y226655D01*
X156330Y226986D01*
X156454Y227304D01*
X156595Y227610D01*
X156752Y227905D01*
X156925Y228187D01*
X157116Y228458D01*
X157323Y228716D01*
X157546Y228963D01*
X157786Y229197D01*
X158042Y229420D01*
X158314Y229629D01*
X158601Y229826D01*
X158903Y230008D01*
X159219Y230177D01*
X159550Y230333D01*
X159896Y230475D01*
X160257Y230604D01*
X160633Y230719D01*
X161023Y230820D01*
X161428Y230908D01*
X161848Y230982D01*
X162283Y231043D01*
X162733Y231091D01*
X163197Y231124D01*
X163676Y231145D01*
X164170Y231152D01*
X164666Y231145D01*
X165146Y231125D01*
X165612Y231091D01*
X166063Y231044D01*
X166499Y230983D01*
X166919Y230909D01*
X167325Y230821D01*
X167716Y230720D01*
X168092Y230606D01*
X168453Y230478D01*
X168799Y230336D01*
X169130Y230181D01*
X169446Y230013D01*
X169748Y229831D01*
X170034Y229636D01*
X170305Y229427D01*
X170561Y229205D01*
X170800Y228971D01*
X171022Y228725D01*
X171228Y228467D01*
X171418Y228197D01*
X171591Y227914D01*
X171748Y227620D01*
X171888Y227313D01*
X172012Y226994D01*
X172119Y226663D01*
X172209Y226319D01*
X172284Y225964D01*
X172341Y225596D01*
X172382Y225217D01*
X172407Y224825D01*
X172415Y224421D01*
X172407Y224018D01*
X172382Y223628D01*
X172341Y223250D01*
X172284Y222883D01*
X172209Y222529D01*
X172119Y222187D01*
X172012Y221857D01*
X171888Y221539D01*
X171748Y221233D01*
X171591Y220939D01*
X171418Y220657D01*
X171228Y220387D01*
X171022Y220129D01*
X170800Y219884D01*
X170561Y219650D01*
X170305Y219428D01*
X170034Y219220D01*
X169748Y219024D01*
X169446Y218842D01*
X169130Y218674D01*
X168799Y218519D01*
X168453Y218377D01*
X168092Y218249D01*
X167716Y218135D01*
X167325Y218034D01*
X166919Y217946D01*
X166499Y217872D01*
X166063Y217811D01*
X165612Y217764D01*
X165146Y217731D01*
X164666Y217710D01*
X164170Y217704D01*
G37*
%LPC*%
G36*
X164170Y220438D02*
X164894Y220454D01*
X165573Y220501D01*
X166206Y220580D01*
X166794Y220690D01*
X167337Y220832D01*
X167834Y221006D01*
X168286Y221211D01*
X168692Y221448D01*
X169052Y221715D01*
X169364Y222012D01*
X169628Y222339D01*
X169844Y222696D01*
X170012Y223082D01*
X170132Y223499D01*
X170204Y223945D01*
X170222Y224179D01*
X170228Y224421D01*
X170222Y224664D01*
X170204Y224900D01*
X170132Y225349D01*
X170012Y225767D01*
X169844Y226156D01*
X169628Y226514D01*
X169364Y226842D01*
X169052Y227140D01*
X168692Y227407D01*
X168286Y227644D01*
X167834Y227849D01*
X167337Y228023D01*
X166794Y228165D01*
X166206Y228275D01*
X165573Y228354D01*
X164894Y228401D01*
X164170Y228417D01*
X163443Y228401D01*
X162762Y228354D01*
X162126Y228275D01*
X161537Y228165D01*
X160994Y228023D01*
X160497Y227849D01*
X160046Y227644D01*
X159641Y227407D01*
X159282Y227140D01*
X158972Y226842D01*
X158709Y226514D01*
X158494Y226156D01*
X158327Y225767D01*
X158208Y225349D01*
X158136Y224900D01*
X158118Y224664D01*
X158112Y224421D01*
X158118Y224179D01*
X158136Y223945D01*
X158208Y223499D01*
X158327Y223082D01*
X158494Y222696D01*
X158709Y222339D01*
X158972Y222012D01*
X159282Y221715D01*
X159641Y221448D01*
X160046Y221211D01*
X160497Y221006D01*
X160994Y220832D01*
X161537Y220690D01*
X162126Y220580D01*
X162762Y220501D01*
X163443Y220454D01*
X164170Y220438D01*
G37*
%LPD*%
G36*
X192821Y200391D02*
X192327Y200398D01*
X191848Y200418D01*
X191384Y200452D01*
X190934Y200499D01*
X190500Y200560D01*
X190080Y200634D01*
X189674Y200721D01*
X189284Y200822D01*
X188908Y200937D01*
X188548Y201065D01*
X188202Y201206D01*
X187870Y201361D01*
X187554Y201530D01*
X187252Y201712D01*
X186965Y201907D01*
X186693Y202116D01*
X186437Y202338D01*
X186197Y202571D01*
X185974Y202817D01*
X185767Y203075D01*
X185577Y203345D01*
X185403Y203626D01*
X185246Y203920D01*
X185105Y204226D01*
X184981Y204544D01*
X184874Y204874D01*
X184783Y205217D01*
X184708Y205571D01*
X184650Y205937D01*
X184609Y206315D01*
X184584Y206706D01*
X184576Y207108D01*
X184584Y207510D01*
X184609Y207901D01*
X184650Y208279D01*
X184708Y208646D01*
X184783Y209000D01*
X184874Y209343D01*
X184981Y209673D01*
X185105Y209992D01*
X185246Y210298D01*
X185403Y210592D01*
X185577Y210875D01*
X185767Y211145D01*
X185974Y211404D01*
X186197Y211650D01*
X186437Y211885D01*
X186693Y212107D01*
X186965Y212317D01*
X187252Y212513D01*
X187554Y212696D01*
X187870Y212865D01*
X188202Y213020D01*
X188548Y213163D01*
X188908Y213291D01*
X189284Y213406D01*
X189674Y213508D01*
X190080Y213595D01*
X190500Y213670D01*
X190934Y213731D01*
X191384Y213778D01*
X191848Y213812D01*
X192327Y213832D01*
X192821Y213839D01*
X193317Y213832D01*
X193798Y213812D01*
X194263Y213778D01*
X194714Y213731D01*
X195150Y213671D01*
X195571Y213596D01*
X195976Y213509D01*
X196367Y213408D01*
X196743Y213293D01*
X197104Y213165D01*
X197450Y213024D01*
X197781Y212869D01*
X198098Y212700D01*
X198399Y212518D01*
X198685Y212323D01*
X198956Y212114D01*
X199212Y211893D01*
X199451Y211659D01*
X199673Y211413D01*
X199880Y211155D01*
X200069Y210884D01*
X200242Y210602D01*
X200399Y210307D01*
X200539Y210000D01*
X200663Y209681D01*
X200770Y209350D01*
X200861Y209007D01*
X200935Y208651D01*
X200992Y208284D01*
X201034Y207904D01*
X201058Y207512D01*
X201067Y207108D01*
X201058Y206706D01*
X201034Y206315D01*
X200992Y205937D01*
X200935Y205571D01*
X200861Y205217D01*
X200770Y204874D01*
X200663Y204544D01*
X200539Y204226D01*
X200399Y203920D01*
X200242Y203626D01*
X200069Y203345D01*
X199880Y203075D01*
X199673Y202817D01*
X199451Y202571D01*
X199212Y202338D01*
X198956Y202116D01*
X198685Y201907D01*
X198399Y201712D01*
X198098Y201530D01*
X197781Y201361D01*
X197450Y201206D01*
X197104Y201065D01*
X196743Y200937D01*
X196367Y200822D01*
X195976Y200721D01*
X195571Y200634D01*
X195150Y200560D01*
X194714Y200499D01*
X194263Y200452D01*
X193798Y200418D01*
X193317Y200398D01*
X192821Y200391D01*
G37*
%LPC*%
G36*
X192821Y203126D02*
X193545Y203141D01*
X194224Y203189D01*
X194857Y203268D01*
X195445Y203378D01*
X195988Y203520D01*
X196485Y203694D01*
X196937Y203899D01*
X197344Y204135D01*
X197704Y204403D01*
X198015Y204700D01*
X198279Y205027D01*
X198495Y205383D01*
X198663Y205770D01*
X198783Y206186D01*
X198855Y206632D01*
X198873Y206866D01*
X198879Y207108D01*
X198873Y207351D01*
X198855Y207587D01*
X198783Y208036D01*
X198663Y208455D01*
X198495Y208843D01*
X198279Y209202D01*
X198015Y209530D01*
X197704Y209827D01*
X197344Y210095D01*
X196937Y210332D01*
X196485Y210537D01*
X195988Y210710D01*
X195445Y210852D01*
X194857Y210963D01*
X194224Y211041D01*
X193545Y211089D01*
X192821Y211105D01*
X192094Y211089D01*
X191413Y211041D01*
X190778Y210963D01*
X190188Y210852D01*
X189645Y210710D01*
X189148Y210537D01*
X188697Y210332D01*
X188292Y210095D01*
X187934Y209827D01*
X187623Y209530D01*
X187360Y209202D01*
X187146Y208843D01*
X186978Y208455D01*
X186859Y208036D01*
X186787Y207587D01*
X186769Y207351D01*
X186763Y207108D01*
X186769Y206866D01*
X186787Y206632D01*
X186859Y206186D01*
X186978Y205770D01*
X187146Y205383D01*
X187360Y205027D01*
X187623Y204700D01*
X187934Y204403D01*
X188292Y204135D01*
X188697Y203899D01*
X189148Y203694D01*
X189645Y203520D01*
X190188Y203378D01*
X190778Y203268D01*
X191413Y203189D01*
X192094Y203141D01*
X192821Y203126D01*
G37*
%LPD*%
G36*
X172009Y80232D02*
X151073Y80232D01*
X151073Y86346D01*
X151079Y86778D01*
X151098Y87196D01*
X151129Y87601D01*
X151172Y87993D01*
X151228Y88372D01*
X151297Y88737D01*
X151377Y89089D01*
X151471Y89428D01*
X151576Y89754D01*
X151694Y90066D01*
X151825Y90365D01*
X151968Y90651D01*
X152123Y90923D01*
X152291Y91182D01*
X152472Y91428D01*
X152664Y91661D01*
X152869Y91880D01*
X153085Y92085D01*
X153313Y92276D01*
X153553Y92453D01*
X153804Y92615D01*
X154066Y92763D01*
X154340Y92898D01*
X154626Y93018D01*
X154923Y93124D01*
X155232Y93216D01*
X155552Y93293D01*
X155884Y93357D01*
X156227Y93406D01*
X156582Y93442D01*
X156949Y93463D01*
X157327Y93470D01*
X157708Y93463D01*
X158078Y93442D01*
X158436Y93407D01*
X158782Y93357D01*
X159116Y93294D01*
X159438Y93217D01*
X159749Y93125D01*
X160047Y93020D01*
X160334Y92900D01*
X160609Y92766D01*
X160872Y92618D01*
X161124Y92456D01*
X161363Y92280D01*
X161591Y92090D01*
X161807Y91886D01*
X162011Y91668D01*
X162202Y91436D01*
X162382Y91191D01*
X162549Y90932D01*
X162704Y90660D01*
X162846Y90374D01*
X162976Y90075D01*
X163094Y89763D01*
X163199Y89437D01*
X163292Y89097D01*
X163372Y88745D01*
X163440Y88379D01*
X163496Y87999D01*
X163539Y87606D01*
X163570Y87200D01*
X163589Y86780D01*
X163595Y86346D01*
X163595Y83065D01*
X172009Y83065D01*
X172009Y80232D01*
G37*
%LPC*%
G36*
X161267Y83065D02*
X161267Y86346D01*
X161251Y86824D01*
X161203Y87274D01*
X161121Y87698D01*
X161008Y88094D01*
X160862Y88464D01*
X160684Y88806D01*
X160473Y89122D01*
X160230Y89410D01*
X159957Y89668D01*
X159659Y89892D01*
X159335Y90081D01*
X158985Y90236D01*
X158609Y90356D01*
X158208Y90442D01*
X157780Y90494D01*
X157327Y90511D01*
X156874Y90494D01*
X156447Y90443D01*
X156045Y90357D01*
X155670Y90238D01*
X155322Y90084D01*
X154999Y89896D01*
X154702Y89674D01*
X154431Y89417D01*
X154190Y89130D01*
X153980Y88815D01*
X153803Y88473D01*
X153658Y88103D01*
X153545Y87705D01*
X153465Y87280D01*
X153417Y86827D01*
X153401Y86346D01*
X153401Y83065D01*
X161267Y83065D01*
G37*
%LPD*%
G36*
X200660Y268176D02*
X179724Y274585D01*
X179724Y278020D01*
X200660Y284429D01*
X200660Y281498D01*
X195205Y279956D01*
X195205Y272622D01*
X200660Y271107D01*
X200660Y268176D01*
G37*
%LPC*%
G36*
X192933Y273309D02*
X192933Y279282D01*
X182220Y276296D01*
X192933Y273309D01*
G37*
%LPD*%
G36*
X167437Y165773D02*
X167115Y165779D01*
X166802Y165800D01*
X166498Y165834D01*
X166205Y165883D01*
X165922Y165944D01*
X165648Y166020D01*
X165384Y166109D01*
X165131Y166213D01*
X164887Y166329D01*
X164653Y166460D01*
X164428Y166604D01*
X164214Y166762D01*
X164009Y166934D01*
X163815Y167120D01*
X163455Y167532D01*
X163136Y167998D01*
X162860Y168515D01*
X162626Y169084D01*
X162435Y169704D01*
X162286Y170376D01*
X162180Y171099D01*
X162116Y171874D01*
X162095Y172700D01*
X162095Y176163D01*
X161688Y176163D01*
X161234Y176145D01*
X160813Y176099D01*
X160424Y176023D01*
X160067Y175918D01*
X159742Y175784D01*
X159449Y175622D01*
X159189Y175430D01*
X158961Y175210D01*
X158762Y174957D01*
X158589Y174670D01*
X158444Y174347D01*
X158324Y173990D01*
X158232Y173597D01*
X158165Y173170D01*
X158125Y172707D01*
X158112Y172209D01*
X158136Y171548D01*
X158207Y170884D01*
X158325Y170216D01*
X158491Y169545D01*
X158702Y168876D01*
X158957Y168216D01*
X159256Y167565D01*
X159599Y166922D01*
X157018Y166922D01*
X156762Y167630D01*
X156540Y168323D01*
X156352Y169001D01*
X156198Y169664D01*
X156078Y170315D01*
X155993Y170956D01*
X155942Y171587D01*
X155925Y172209D01*
X155934Y172687D01*
X155961Y173148D01*
X156006Y173591D01*
X156068Y174016D01*
X156149Y174424D01*
X156248Y174813D01*
X156365Y175185D01*
X156500Y175539D01*
X156652Y175877D01*
X156823Y176197D01*
X157012Y176501D01*
X157218Y176789D01*
X157443Y177061D01*
X157685Y177316D01*
X157946Y177554D01*
X158224Y177776D01*
X158596Y178023D01*
X159008Y178232D01*
X159461Y178402D01*
X159956Y178533D01*
X160536Y178631D01*
X161245Y178702D01*
X162082Y178744D01*
X163048Y178758D01*
X172009Y178758D01*
X172009Y176163D01*
X169681Y176163D01*
X170020Y175950D01*
X170336Y175723D01*
X170629Y175483D01*
X170899Y175229D01*
X171146Y174962D01*
X171370Y174682D01*
X171571Y174388D01*
X171749Y174081D01*
X171906Y173759D01*
X172041Y173420D01*
X172155Y173064D01*
X172249Y172691D01*
X172322Y172301D01*
X172374Y171895D01*
X172405Y171471D01*
X172415Y171031D01*
X172394Y170447D01*
X172331Y169893D01*
X172225Y169369D01*
X172077Y168875D01*
X171887Y168412D01*
X171654Y167979D01*
X171379Y167576D01*
X171062Y167203D01*
X170710Y166868D01*
X170328Y166577D01*
X169918Y166331D01*
X169479Y166130D01*
X169012Y165974D01*
X168516Y165862D01*
X167991Y165795D01*
X167437Y165773D01*
G37*
%LPC*%
G36*
X167269Y168353D02*
X167613Y168366D01*
X167938Y168406D01*
X168243Y168473D01*
X168528Y168567D01*
X168793Y168687D01*
X169039Y168834D01*
X169265Y169008D01*
X169471Y169208D01*
X169655Y169432D01*
X169814Y169677D01*
X169949Y169942D01*
X170060Y170228D01*
X170146Y170535D01*
X170207Y170862D01*
X170244Y171210D01*
X170256Y171578D01*
X170233Y172097D01*
X170164Y172587D01*
X170048Y173048D01*
X169886Y173482D01*
X169678Y173886D01*
X169424Y174262D01*
X169123Y174610D01*
X168777Y174929D01*
X168389Y175216D01*
X167966Y175464D01*
X167508Y175675D01*
X167015Y175848D01*
X166486Y175983D01*
X165922Y176081D01*
X165323Y176141D01*
X164689Y176163D01*
X164114Y176163D01*
X164114Y172896D01*
X164126Y172349D01*
X164164Y171837D01*
X164225Y171360D01*
X164312Y170917D01*
X164423Y170510D01*
X164560Y170137D01*
X164721Y169799D01*
X164906Y169496D01*
X165117Y169228D01*
X165351Y168996D01*
X165610Y168799D01*
X165893Y168638D01*
X166201Y168513D01*
X166532Y168424D01*
X166889Y168371D01*
X167269Y168353D01*
G37*
%LPD*%
G36*
X167437Y373241D02*
X167115Y373248D01*
X166802Y373269D01*
X166498Y373303D01*
X166205Y373351D01*
X165922Y373413D01*
X165648Y373489D01*
X165384Y373578D01*
X165131Y373681D01*
X164887Y373798D01*
X164653Y373929D01*
X164428Y374073D01*
X164214Y374231D01*
X164009Y374403D01*
X163815Y374589D01*
X163455Y375001D01*
X163136Y375467D01*
X162860Y375984D01*
X162626Y376553D01*
X162435Y377173D01*
X162286Y377845D01*
X162180Y378568D01*
X162116Y379342D01*
X162095Y380169D01*
X162095Y383632D01*
X161688Y383632D01*
X161234Y383614D01*
X160813Y383567D01*
X160424Y383492D01*
X160067Y383387D01*
X159742Y383253D01*
X159449Y383091D01*
X159189Y382899D01*
X158961Y382679D01*
X158762Y382426D01*
X158589Y382139D01*
X158444Y381816D01*
X158324Y381459D01*
X158232Y381066D01*
X158165Y380638D01*
X158125Y380176D01*
X158112Y379678D01*
X158136Y379017D01*
X158207Y378353D01*
X158325Y377685D01*
X158491Y377013D01*
X158702Y376345D01*
X158957Y375685D01*
X159256Y375034D01*
X159599Y374391D01*
X157018Y374391D01*
X156762Y375099D01*
X156540Y375792D01*
X156352Y376470D01*
X156198Y377133D01*
X156078Y377783D01*
X155993Y378424D01*
X155942Y379056D01*
X155925Y379678D01*
X155934Y380156D01*
X155961Y380617D01*
X156006Y381060D01*
X156068Y381485D01*
X156149Y381892D01*
X156248Y382282D01*
X156365Y382654D01*
X156500Y383008D01*
X156652Y383345D01*
X156823Y383666D01*
X157012Y383970D01*
X157218Y384258D01*
X157443Y384529D01*
X157685Y384784D01*
X157946Y385023D01*
X158224Y385245D01*
X158596Y385492D01*
X159008Y385701D01*
X159461Y385871D01*
X159956Y386002D01*
X160536Y386100D01*
X161245Y386170D01*
X162082Y386212D01*
X163048Y386226D01*
X172009Y386226D01*
X172009Y383632D01*
X169681Y383632D01*
X170020Y383419D01*
X170336Y383192D01*
X170629Y382952D01*
X170899Y382698D01*
X171146Y382431D01*
X171370Y382151D01*
X171571Y381857D01*
X171749Y381550D01*
X171906Y381228D01*
X172041Y380889D01*
X172155Y380533D01*
X172249Y380160D01*
X172322Y379770D01*
X172374Y379364D01*
X172405Y378940D01*
X172415Y378500D01*
X172394Y377915D01*
X172331Y377361D01*
X172225Y376837D01*
X172077Y376344D01*
X171887Y375880D01*
X171654Y375447D01*
X171379Y375044D01*
X171062Y374672D01*
X170710Y374336D01*
X170328Y374046D01*
X169918Y373800D01*
X169479Y373599D01*
X169012Y373442D01*
X168516Y373331D01*
X167991Y373264D01*
X167437Y373241D01*
G37*
%LPC*%
G36*
X167269Y375821D02*
X167613Y375835D01*
X167938Y375875D01*
X168243Y375942D01*
X168528Y376035D01*
X168793Y376156D01*
X169039Y376303D01*
X169265Y376476D01*
X169471Y376677D01*
X169655Y376901D01*
X169814Y377146D01*
X169949Y377411D01*
X170060Y377697D01*
X170146Y378004D01*
X170207Y378331D01*
X170244Y378678D01*
X170256Y379047D01*
X170233Y379565D01*
X170164Y380056D01*
X170048Y380517D01*
X169886Y380950D01*
X169678Y381355D01*
X169424Y381731D01*
X169123Y382079D01*
X168777Y382398D01*
X168389Y382684D01*
X167966Y382933D01*
X167508Y383144D01*
X167015Y383317D01*
X166486Y383452D01*
X165922Y383550D01*
X165323Y383610D01*
X164689Y383632D01*
X164114Y383632D01*
X164114Y380365D01*
X164126Y379818D01*
X164164Y379306D01*
X164225Y378828D01*
X164312Y378386D01*
X164423Y377978D01*
X164560Y377605D01*
X164721Y377267D01*
X164906Y376964D01*
X165117Y376696D01*
X165351Y376464D01*
X165610Y376268D01*
X165893Y376107D01*
X166201Y375982D01*
X166532Y375893D01*
X166889Y375839D01*
X167269Y375821D01*
G37*
%LPD*%
G36*
X196089Y131179D02*
X195766Y131186D01*
X195453Y131206D01*
X195150Y131241D01*
X194856Y131289D01*
X194573Y131351D01*
X194299Y131426D01*
X194036Y131516D01*
X193782Y131619D01*
X193538Y131736D01*
X193304Y131866D01*
X193079Y132011D01*
X192865Y132169D01*
X192661Y132341D01*
X192466Y132526D01*
X192106Y132939D01*
X191787Y133404D01*
X191511Y133922D01*
X191277Y134490D01*
X191086Y135110D01*
X190937Y135782D01*
X190831Y136505D01*
X190767Y137280D01*
X190746Y138106D01*
X190746Y141570D01*
X190339Y141570D01*
X189886Y141552D01*
X189464Y141505D01*
X189075Y141429D01*
X188718Y141324D01*
X188393Y141191D01*
X188100Y141028D01*
X187840Y140837D01*
X187612Y140616D01*
X187413Y140364D01*
X187241Y140076D01*
X187095Y139754D01*
X186976Y139396D01*
X186883Y139004D01*
X186816Y138576D01*
X186777Y138113D01*
X186763Y137615D01*
X186787Y136954D01*
X186858Y136290D01*
X186976Y135622D01*
X187142Y134951D01*
X187353Y134282D01*
X187608Y133622D01*
X187907Y132971D01*
X188250Y132329D01*
X185670Y132329D01*
X185413Y133036D01*
X185191Y133729D01*
X185003Y134407D01*
X184849Y135070D01*
X184730Y135721D01*
X184644Y136362D01*
X184593Y136993D01*
X184576Y137615D01*
X184585Y138094D01*
X184612Y138554D01*
X184657Y138997D01*
X184720Y139422D01*
X184800Y139830D01*
X184899Y140220D01*
X185016Y140591D01*
X185151Y140946D01*
X185304Y141283D01*
X185474Y141603D01*
X185663Y141908D01*
X185869Y142195D01*
X186094Y142467D01*
X186337Y142722D01*
X186597Y142960D01*
X186876Y143182D01*
X187247Y143429D01*
X187659Y143638D01*
X188113Y143808D01*
X188607Y143940D01*
X189187Y144038D01*
X189896Y144108D01*
X190733Y144150D01*
X191699Y144164D01*
X200660Y144164D01*
X200660Y141570D01*
X198332Y141570D01*
X198671Y141356D01*
X198987Y141129D01*
X199280Y140889D01*
X199550Y140635D01*
X199798Y140368D01*
X200022Y140088D01*
X200223Y139794D01*
X200401Y139487D01*
X200557Y139165D01*
X200692Y138826D01*
X200806Y138470D01*
X200900Y138097D01*
X200973Y137708D01*
X201025Y137301D01*
X201056Y136878D01*
X201067Y136437D01*
X201046Y135853D01*
X200982Y135299D01*
X200876Y134775D01*
X200728Y134281D01*
X200538Y133818D01*
X200306Y133385D01*
X200031Y132982D01*
X199713Y132609D01*
X199361Y132274D01*
X198979Y131983D01*
X198569Y131738D01*
X198131Y131536D01*
X197663Y131380D01*
X197167Y131268D01*
X196642Y131201D01*
X196089Y131179D01*
G37*
%LPC*%
G36*
X195920Y133759D02*
X196265Y133772D01*
X196589Y133812D01*
X196894Y133879D01*
X197179Y133973D01*
X197444Y134093D01*
X197690Y134240D01*
X197916Y134414D01*
X198122Y134614D01*
X198306Y134839D01*
X198465Y135083D01*
X198600Y135349D01*
X198711Y135635D01*
X198797Y135941D01*
X198858Y136268D01*
X198895Y136616D01*
X198907Y136984D01*
X198884Y137503D01*
X198815Y137993D01*
X198699Y138455D01*
X198537Y138888D01*
X198329Y139293D01*
X198075Y139669D01*
X197775Y140016D01*
X197428Y140336D01*
X197040Y140622D01*
X196618Y140870D01*
X196159Y141081D01*
X195666Y141254D01*
X195138Y141390D01*
X194574Y141487D01*
X193975Y141547D01*
X193340Y141570D01*
X192765Y141570D01*
X192765Y138302D01*
X192778Y137755D01*
X192815Y137243D01*
X192877Y136766D01*
X192963Y136323D01*
X193075Y135916D01*
X193211Y135543D01*
X193372Y135205D01*
X193557Y134902D01*
X193768Y134634D01*
X194002Y134402D01*
X194261Y134205D01*
X194544Y134045D01*
X194852Y133920D01*
X195184Y133830D01*
X195540Y133777D01*
X195920Y133759D01*
G37*
%LPD*%
G36*
X200660Y252266D02*
X179724Y252266D01*
X179724Y255113D01*
X187745Y255113D01*
X187745Y262867D01*
X179724Y262867D01*
X179724Y265714D01*
X200660Y265714D01*
X200660Y262867D01*
X190129Y262867D01*
X190129Y255113D01*
X200660Y255113D01*
X200660Y252266D01*
G37*
G36*
X164170Y148351D02*
X163706Y148359D01*
X163254Y148383D01*
X162814Y148422D01*
X162386Y148477D01*
X161969Y148548D01*
X161564Y148635D01*
X161172Y148738D01*
X160791Y148856D01*
X160421Y148990D01*
X160064Y149140D01*
X159718Y149305D01*
X159385Y149487D01*
X159063Y149684D01*
X158753Y149897D01*
X158455Y150126D01*
X158168Y150370D01*
X157897Y150628D01*
X157642Y150896D01*
X157406Y151175D01*
X157187Y151464D01*
X156985Y151764D01*
X156801Y152074D01*
X156635Y152395D01*
X156486Y152726D01*
X156354Y153068D01*
X156240Y153420D01*
X156144Y153783D01*
X156065Y154157D01*
X156004Y154540D01*
X155960Y154935D01*
X155933Y155340D01*
X155925Y155755D01*
X155933Y156125D01*
X155956Y156486D01*
X155996Y156836D01*
X156052Y157176D01*
X156123Y157507D01*
X156211Y157827D01*
X156314Y158138D01*
X156433Y158439D01*
X156568Y158730D01*
X156719Y159010D01*
X156886Y159281D01*
X157068Y159543D01*
X157267Y159794D01*
X157481Y160035D01*
X157712Y160266D01*
X157958Y160488D01*
X158479Y160895D01*
X159027Y161252D01*
X159601Y161559D01*
X160202Y161815D01*
X160828Y162020D01*
X161481Y162174D01*
X161818Y162233D01*
X162160Y162278D01*
X162510Y162311D01*
X162866Y162332D01*
X164128Y162332D01*
X164128Y151156D01*
X164212Y151156D01*
X164987Y151150D01*
X165705Y151190D01*
X166366Y151276D01*
X166676Y151335D01*
X166971Y151406D01*
X167252Y151489D01*
X167520Y151582D01*
X167773Y151687D01*
X168011Y151804D01*
X168236Y151931D01*
X168447Y152071D01*
X168643Y152221D01*
X168826Y152383D01*
X169154Y152735D01*
X169439Y153121D01*
X169680Y153542D01*
X169877Y153997D01*
X170031Y154487D01*
X170140Y155011D01*
X170206Y155569D01*
X170228Y156162D01*
X170203Y156786D01*
X170130Y157424D01*
X170007Y158076D01*
X169835Y158742D01*
X169614Y159426D01*
X169341Y160134D01*
X169018Y160864D01*
X168643Y161617D01*
X171210Y161617D01*
X171492Y160887D01*
X171737Y160171D01*
X171944Y159467D01*
X172114Y158777D01*
X172246Y158099D01*
X172340Y157433D01*
X172397Y156777D01*
X172415Y156134D01*
X172407Y155682D01*
X172381Y155244D01*
X172338Y154817D01*
X172278Y154404D01*
X172201Y154002D01*
X172107Y153614D01*
X171995Y153237D01*
X171867Y152873D01*
X171721Y152522D01*
X171558Y152183D01*
X171378Y151857D01*
X171181Y151543D01*
X170967Y151242D01*
X170735Y150953D01*
X170487Y150676D01*
X170221Y150412D01*
X169940Y150163D01*
X169646Y149929D01*
X169340Y149712D01*
X169020Y149511D01*
X168687Y149325D01*
X168341Y149156D01*
X167983Y149003D01*
X167611Y148866D01*
X167226Y148746D01*
X166829Y148641D01*
X166418Y148552D01*
X165994Y148480D01*
X165558Y148424D01*
X165108Y148383D01*
X164646Y148359D01*
X164170Y148351D01*
G37*
%LPC*%
G36*
X162123Y151254D02*
X162109Y159752D01*
X161709Y159696D01*
X161323Y159614D01*
X160951Y159506D01*
X160593Y159371D01*
X160248Y159210D01*
X159917Y159022D01*
X159600Y158808D01*
X159297Y158567D01*
X159019Y158299D01*
X158779Y158003D01*
X158575Y157679D01*
X158408Y157327D01*
X158279Y156948D01*
X158186Y156541D01*
X158131Y156106D01*
X158112Y155643D01*
X158132Y155187D01*
X158189Y154752D01*
X158286Y154337D01*
X158421Y153943D01*
X158594Y153569D01*
X158806Y153216D01*
X159057Y152884D01*
X159346Y152572D01*
X159660Y152288D01*
X159983Y152037D01*
X160315Y151821D01*
X160657Y151639D01*
X161009Y151492D01*
X161371Y151378D01*
X161742Y151299D01*
X162123Y151254D01*
G37*
%LPD*%
G36*
X164170Y286664D02*
X163706Y286671D01*
X163254Y286695D01*
X162814Y286735D01*
X162386Y286790D01*
X161969Y286861D01*
X161564Y286948D01*
X161172Y287050D01*
X160791Y287168D01*
X160421Y287302D01*
X160064Y287452D01*
X159718Y287618D01*
X159385Y287799D01*
X159063Y287997D01*
X158753Y288210D01*
X158455Y288438D01*
X158168Y288683D01*
X157897Y288941D01*
X157642Y289209D01*
X157406Y289487D01*
X157187Y289777D01*
X156985Y290076D01*
X156801Y290387D01*
X156635Y290707D01*
X156486Y291039D01*
X156354Y291380D01*
X156240Y291733D01*
X156144Y292096D01*
X156065Y292469D01*
X156004Y292853D01*
X155960Y293247D01*
X155933Y293652D01*
X155925Y294068D01*
X155933Y294438D01*
X155956Y294798D01*
X155996Y295148D01*
X156052Y295489D01*
X156123Y295819D01*
X156211Y296140D01*
X156314Y296450D01*
X156433Y296751D01*
X156568Y297042D01*
X156719Y297323D01*
X156886Y297594D01*
X157068Y297855D01*
X157267Y298106D01*
X157481Y298348D01*
X157712Y298579D01*
X157958Y298800D01*
X158479Y299208D01*
X159027Y299565D01*
X159601Y299871D01*
X160202Y300127D01*
X160828Y300332D01*
X161481Y300487D01*
X161818Y300545D01*
X162160Y300591D01*
X162510Y300624D01*
X162866Y300644D01*
X164128Y300644D01*
X164128Y289468D01*
X164212Y289468D01*
X164987Y289463D01*
X165705Y289503D01*
X166366Y289588D01*
X166676Y289648D01*
X166971Y289719D01*
X167252Y289801D01*
X167520Y289895D01*
X167773Y290000D01*
X168011Y290116D01*
X168236Y290244D01*
X168447Y290383D01*
X168643Y290533D01*
X168826Y290695D01*
X169154Y291047D01*
X169439Y291434D01*
X169680Y291854D01*
X169877Y292309D01*
X170031Y292799D01*
X170140Y293323D01*
X170206Y293881D01*
X170228Y294474D01*
X170203Y295098D01*
X170130Y295736D01*
X170007Y296388D01*
X169835Y297054D01*
X169614Y297739D01*
X169341Y298446D01*
X169018Y299176D01*
X168643Y299929D01*
X171210Y299929D01*
X171492Y299200D01*
X171737Y298483D01*
X171944Y297780D01*
X172114Y297090D01*
X172246Y296412D01*
X172340Y295745D01*
X172397Y295090D01*
X172415Y294446D01*
X172407Y293995D01*
X172381Y293556D01*
X172338Y293130D01*
X172278Y292716D01*
X172201Y292315D01*
X172107Y291926D01*
X171995Y291550D01*
X171867Y291186D01*
X171721Y290835D01*
X171558Y290496D01*
X171378Y290169D01*
X171181Y289856D01*
X170967Y289554D01*
X170735Y289265D01*
X170487Y288989D01*
X170221Y288725D01*
X169940Y288475D01*
X169646Y288242D01*
X169340Y288024D01*
X169020Y287823D01*
X168687Y287638D01*
X168341Y287469D01*
X167983Y287316D01*
X167611Y287179D01*
X167226Y287058D01*
X166829Y286953D01*
X166418Y286865D01*
X165994Y286792D01*
X165558Y286736D01*
X165108Y286696D01*
X164646Y286672D01*
X164170Y286664D01*
G37*
%LPC*%
G36*
X162123Y289566D02*
X162109Y298064D01*
X161709Y298009D01*
X161323Y297927D01*
X160951Y297819D01*
X160593Y297684D01*
X160248Y297522D01*
X159917Y297334D01*
X159600Y297120D01*
X159297Y296879D01*
X159019Y296611D01*
X158779Y296315D01*
X158575Y295991D01*
X158408Y295640D01*
X158279Y295261D01*
X158186Y294853D01*
X158131Y294418D01*
X158112Y293955D01*
X158132Y293499D01*
X158189Y293064D01*
X158286Y292649D01*
X158421Y292255D01*
X158594Y291882D01*
X158806Y291529D01*
X159057Y291196D01*
X159346Y290884D01*
X159660Y290600D01*
X159983Y290350D01*
X160315Y290134D01*
X160657Y289952D01*
X161009Y289804D01*
X161371Y289691D01*
X161742Y289611D01*
X162123Y289566D01*
G37*
%LPD*%
G36*
X164170Y338539D02*
X163706Y338546D01*
X163254Y338570D01*
X162814Y338610D01*
X162386Y338665D01*
X161969Y338736D01*
X161564Y338823D01*
X161172Y338925D01*
X160791Y339043D01*
X160421Y339177D01*
X160064Y339327D01*
X159718Y339493D01*
X159385Y339674D01*
X159063Y339872D01*
X158753Y340085D01*
X158455Y340313D01*
X158168Y340558D01*
X157897Y340816D01*
X157642Y341084D01*
X157406Y341362D01*
X157187Y341652D01*
X156985Y341951D01*
X156801Y342262D01*
X156635Y342582D01*
X156486Y342914D01*
X156354Y343255D01*
X156240Y343608D01*
X156144Y343971D01*
X156065Y344344D01*
X156004Y344728D01*
X155960Y345122D01*
X155933Y345527D01*
X155925Y345943D01*
X155933Y346313D01*
X155956Y346673D01*
X155996Y347023D01*
X156052Y347364D01*
X156123Y347694D01*
X156211Y348015D01*
X156314Y348325D01*
X156433Y348626D01*
X156568Y348917D01*
X156719Y349198D01*
X156886Y349469D01*
X157068Y349730D01*
X157267Y349981D01*
X157481Y350223D01*
X157712Y350454D01*
X157958Y350675D01*
X158479Y351083D01*
X159027Y351440D01*
X159601Y351746D01*
X160202Y352002D01*
X160828Y352207D01*
X161481Y352362D01*
X161818Y352420D01*
X162160Y352466D01*
X162510Y352499D01*
X162866Y352519D01*
X164128Y352519D01*
X164128Y341343D01*
X164212Y341343D01*
X164987Y341338D01*
X165705Y341378D01*
X166366Y341463D01*
X166676Y341523D01*
X166971Y341594D01*
X167252Y341676D01*
X167520Y341770D01*
X167773Y341875D01*
X168011Y341991D01*
X168236Y342119D01*
X168447Y342258D01*
X168643Y342408D01*
X168826Y342570D01*
X169154Y342922D01*
X169439Y343309D01*
X169680Y343729D01*
X169877Y344184D01*
X170031Y344674D01*
X170140Y345198D01*
X170206Y345756D01*
X170228Y346349D01*
X170203Y346973D01*
X170130Y347611D01*
X170007Y348263D01*
X169835Y348929D01*
X169614Y349614D01*
X169341Y350321D01*
X169018Y351051D01*
X168643Y351804D01*
X171210Y351804D01*
X171492Y351075D01*
X171737Y350358D01*
X171944Y349655D01*
X172114Y348965D01*
X172246Y348287D01*
X172340Y347620D01*
X172397Y346965D01*
X172415Y346321D01*
X172407Y345870D01*
X172381Y345431D01*
X172338Y345005D01*
X172278Y344591D01*
X172201Y344190D01*
X172107Y343801D01*
X171995Y343425D01*
X171867Y343061D01*
X171721Y342710D01*
X171558Y342371D01*
X171378Y342044D01*
X171181Y341731D01*
X170967Y341429D01*
X170735Y341140D01*
X170487Y340864D01*
X170221Y340600D01*
X169940Y340350D01*
X169646Y340117D01*
X169340Y339899D01*
X169020Y339698D01*
X168687Y339513D01*
X168341Y339344D01*
X167983Y339191D01*
X167611Y339054D01*
X167226Y338933D01*
X166829Y338828D01*
X166418Y338740D01*
X165994Y338667D01*
X165558Y338611D01*
X165108Y338571D01*
X164646Y338547D01*
X164170Y338539D01*
G37*
%LPC*%
G36*
X162123Y341441D02*
X162109Y349939D01*
X161709Y349884D01*
X161323Y349802D01*
X160951Y349694D01*
X160593Y349559D01*
X160248Y349397D01*
X159917Y349209D01*
X159600Y348995D01*
X159297Y348754D01*
X159019Y348486D01*
X158779Y348190D01*
X158575Y347866D01*
X158408Y347515D01*
X158279Y347136D01*
X158186Y346728D01*
X158131Y346293D01*
X158112Y345830D01*
X158132Y345374D01*
X158189Y344939D01*
X158286Y344524D01*
X158421Y344130D01*
X158594Y343757D01*
X158806Y343404D01*
X159057Y343071D01*
X159346Y342759D01*
X159660Y342475D01*
X159983Y342225D01*
X160315Y342009D01*
X160657Y341827D01*
X161009Y341679D01*
X161371Y341566D01*
X161742Y341486D01*
X162123Y341441D01*
G37*
%LPD*%
G36*
X164170Y442257D02*
X163706Y442265D01*
X163254Y442289D01*
X162814Y442328D01*
X162386Y442384D01*
X161969Y442455D01*
X161564Y442541D01*
X161172Y442644D01*
X160791Y442762D01*
X160421Y442896D01*
X160064Y443046D01*
X159718Y443212D01*
X159385Y443393D01*
X159063Y443590D01*
X158753Y443803D01*
X158455Y444032D01*
X158168Y444277D01*
X157897Y444534D01*
X157642Y444802D01*
X157406Y445081D01*
X157187Y445370D01*
X156985Y445670D01*
X156801Y445980D01*
X156635Y446301D01*
X156486Y446632D01*
X156354Y446974D01*
X156240Y447327D01*
X156144Y447689D01*
X156065Y448063D01*
X156004Y448447D01*
X155960Y448841D01*
X155933Y449246D01*
X155925Y449661D01*
X155933Y450032D01*
X155956Y450392D01*
X155996Y450742D01*
X156052Y451082D01*
X156123Y451413D01*
X156211Y451734D01*
X156314Y452044D01*
X156433Y452345D01*
X156568Y452636D01*
X156719Y452917D01*
X156886Y453188D01*
X157068Y453449D01*
X157267Y453700D01*
X157481Y453941D01*
X157712Y454173D01*
X157958Y454394D01*
X158479Y454802D01*
X159027Y455159D01*
X159601Y455465D01*
X160202Y455721D01*
X160828Y455926D01*
X161481Y456081D01*
X161818Y456139D01*
X162160Y456185D01*
X162510Y456218D01*
X162866Y456238D01*
X164128Y456238D01*
X164128Y445062D01*
X164212Y445062D01*
X164987Y445057D01*
X165705Y445096D01*
X166366Y445182D01*
X166676Y445242D01*
X166971Y445313D01*
X167252Y445395D01*
X167520Y445489D01*
X167773Y445594D01*
X168011Y445710D01*
X168236Y445838D01*
X168447Y445977D01*
X168643Y446127D01*
X168826Y446289D01*
X169154Y446641D01*
X169439Y447027D01*
X169680Y447448D01*
X169877Y447903D01*
X170031Y448393D01*
X170140Y448917D01*
X170206Y449475D01*
X170228Y450068D01*
X170203Y450692D01*
X170130Y451330D01*
X170007Y451982D01*
X169835Y452648D01*
X169614Y453333D01*
X169341Y454040D01*
X169018Y454770D01*
X168643Y455523D01*
X171210Y455523D01*
X171492Y454793D01*
X171737Y454077D01*
X171944Y453373D01*
X172114Y452683D01*
X172246Y452005D01*
X172340Y451339D01*
X172397Y450684D01*
X172415Y450040D01*
X172407Y449589D01*
X172381Y449150D01*
X172338Y448724D01*
X172278Y448310D01*
X172201Y447909D01*
X172107Y447520D01*
X171995Y447143D01*
X171867Y446780D01*
X171721Y446428D01*
X171558Y446089D01*
X171378Y445763D01*
X171181Y445449D01*
X170967Y445148D01*
X170735Y444859D01*
X170487Y444583D01*
X170221Y444319D01*
X169940Y444069D01*
X169646Y443836D01*
X169340Y443618D01*
X169020Y443417D01*
X168687Y443232D01*
X168341Y443063D01*
X167983Y442910D01*
X167611Y442773D01*
X167226Y442652D01*
X166829Y442547D01*
X166418Y442459D01*
X165994Y442386D01*
X165558Y442330D01*
X165108Y442290D01*
X164646Y442265D01*
X164170Y442257D01*
G37*
%LPC*%
G36*
X162123Y445160D02*
X162109Y453658D01*
X161709Y453603D01*
X161323Y453521D01*
X160951Y453412D01*
X160593Y453277D01*
X160248Y453116D01*
X159917Y452928D01*
X159600Y452714D01*
X159297Y452473D01*
X159019Y452205D01*
X158779Y451909D01*
X158575Y451585D01*
X158408Y451234D01*
X158279Y450854D01*
X158186Y450447D01*
X158131Y450012D01*
X158112Y449549D01*
X158132Y449093D01*
X158189Y448658D01*
X158286Y448243D01*
X158421Y447849D01*
X158594Y447475D01*
X158806Y447122D01*
X159057Y446790D01*
X159346Y446478D01*
X159660Y446194D01*
X159983Y445944D01*
X160315Y445728D01*
X160657Y445546D01*
X161009Y445398D01*
X161371Y445284D01*
X161742Y445205D01*
X162123Y445160D01*
G37*
%LPD*%
G36*
X200660Y80232D02*
X179724Y80232D01*
X179724Y92657D01*
X182108Y92657D01*
X182108Y83065D01*
X187745Y83065D01*
X187745Y92236D01*
X190129Y92236D01*
X190129Y83065D01*
X198276Y83065D01*
X198276Y92923D01*
X200660Y92923D01*
X200660Y80232D01*
G37*
G36*
X172009Y303748D02*
X156303Y303748D01*
X156303Y306090D01*
X157649Y306090D01*
X157254Y306336D01*
X156908Y306611D01*
X156612Y306915D01*
X156366Y307247D01*
X156173Y307606D01*
X156035Y307989D01*
X155987Y308189D01*
X155952Y308395D01*
X155932Y308607D01*
X155925Y308825D01*
X155932Y309086D01*
X155955Y309335D01*
X155994Y309574D01*
X156047Y309801D01*
X156116Y310017D01*
X156201Y310222D01*
X156300Y310416D01*
X156415Y310599D01*
X156546Y310771D01*
X156692Y310933D01*
X156855Y311085D01*
X157032Y311228D01*
X157226Y311361D01*
X157436Y311483D01*
X157661Y311596D01*
X157902Y311699D01*
X157430Y311954D01*
X157024Y312241D01*
X156845Y312397D01*
X156683Y312561D01*
X156538Y312732D01*
X156408Y312912D01*
X156295Y313101D01*
X156197Y313299D01*
X156114Y313507D01*
X156046Y313724D01*
X155993Y313950D01*
X155955Y314186D01*
X155932Y314432D01*
X155925Y314686D01*
X155948Y315142D01*
X156016Y315563D01*
X156131Y315949D01*
X156291Y316301D01*
X156497Y316617D01*
X156749Y316899D01*
X157047Y317146D01*
X157390Y317358D01*
X157797Y317540D01*
X158284Y317698D01*
X158853Y317832D01*
X159502Y317941D01*
X160232Y318026D01*
X161043Y318087D01*
X161935Y318124D01*
X162908Y318136D01*
X172009Y318136D01*
X172009Y315780D01*
X163020Y315780D01*
X162229Y315774D01*
X161516Y315757D01*
X160882Y315728D01*
X160326Y315687D01*
X159849Y315635D01*
X159451Y315571D01*
X159131Y315496D01*
X158890Y315408D01*
X158702Y315306D01*
X158538Y315185D01*
X158399Y315044D01*
X158286Y314884D01*
X158198Y314706D01*
X158135Y314508D01*
X158097Y314291D01*
X158084Y314055D01*
X158098Y313786D01*
X158138Y313539D01*
X158205Y313313D01*
X158300Y313110D01*
X158421Y312930D01*
X158569Y312771D01*
X158744Y312634D01*
X158947Y312520D01*
X159199Y312423D01*
X159525Y312339D01*
X159924Y312268D01*
X160396Y312210D01*
X160942Y312164D01*
X161561Y312132D01*
X162254Y312113D01*
X163020Y312106D01*
X172009Y312106D01*
X172009Y309750D01*
X163020Y309750D01*
X162219Y309744D01*
X161499Y309725D01*
X160859Y309694D01*
X160300Y309650D01*
X159821Y309594D01*
X159423Y309525D01*
X159106Y309444D01*
X158869Y309351D01*
X158685Y309241D01*
X158526Y309111D01*
X158391Y308961D01*
X158280Y308791D01*
X158195Y308602D01*
X158133Y308392D01*
X158096Y308163D01*
X158084Y307913D01*
X158098Y307667D01*
X158138Y307440D01*
X158205Y307233D01*
X158300Y307046D01*
X158421Y306877D01*
X158569Y306729D01*
X158744Y306600D01*
X158947Y306490D01*
X159199Y306396D01*
X159525Y306315D01*
X159924Y306246D01*
X160396Y306190D01*
X160942Y306147D01*
X161561Y306115D01*
X162254Y306097D01*
X163020Y306090D01*
X172009Y306090D01*
X172009Y303748D01*
G37*
G36*
X200660Y149361D02*
X184954Y149361D01*
X184954Y151941D01*
X187310Y151941D01*
X186984Y152120D01*
X186678Y152315D01*
X186392Y152525D01*
X186127Y152751D01*
X185882Y152992D01*
X185658Y153248D01*
X185454Y153519D01*
X185270Y153806D01*
X185107Y154107D01*
X184966Y154422D01*
X184847Y154751D01*
X184749Y155093D01*
X184673Y155448D01*
X184619Y155817D01*
X184587Y156200D01*
X184576Y156596D01*
X184582Y156891D01*
X184600Y157177D01*
X184631Y157453D01*
X184674Y157720D01*
X184730Y157977D01*
X184798Y158224D01*
X184970Y158691D01*
X185192Y159120D01*
X185463Y159511D01*
X185784Y159864D01*
X186153Y160179D01*
X186573Y160457D01*
X187043Y160698D01*
X187564Y160901D01*
X188136Y161068D01*
X188758Y161198D01*
X189431Y161290D01*
X190154Y161346D01*
X190928Y161364D01*
X200660Y161364D01*
X200660Y158770D01*
X190928Y158770D01*
X190416Y158758D01*
X189940Y158724D01*
X189498Y158666D01*
X189091Y158584D01*
X188720Y158480D01*
X188383Y158352D01*
X188082Y158201D01*
X187815Y158027D01*
X187582Y157828D01*
X187380Y157603D01*
X187208Y157351D01*
X187068Y157073D01*
X186960Y156769D01*
X186882Y156439D01*
X186835Y156082D01*
X186820Y155699D01*
X186840Y155260D01*
X186900Y154847D01*
X187000Y154460D01*
X187140Y154099D01*
X187321Y153764D01*
X187541Y153455D01*
X187802Y153172D01*
X188103Y152915D01*
X188441Y152687D01*
X188814Y152489D01*
X189222Y152322D01*
X189664Y152185D01*
X190142Y152078D01*
X190654Y152002D01*
X191202Y151956D01*
X191784Y151941D01*
X200660Y151941D01*
X200660Y149361D01*
G37*
G36*
X200660Y218517D02*
X184954Y218517D01*
X184954Y221097D01*
X187310Y221097D01*
X186984Y221277D01*
X186678Y221471D01*
X186392Y221682D01*
X186127Y221907D01*
X185882Y222148D01*
X185658Y222404D01*
X185454Y222675D01*
X185270Y222962D01*
X185107Y223263D01*
X184966Y223578D01*
X184847Y223907D01*
X184749Y224249D01*
X184673Y224604D01*
X184619Y224974D01*
X184587Y225356D01*
X184576Y225753D01*
X184582Y226048D01*
X184600Y226333D01*
X184631Y226609D01*
X184674Y226876D01*
X184730Y227133D01*
X184798Y227381D01*
X184970Y227847D01*
X185192Y228276D01*
X185463Y228667D01*
X185784Y229020D01*
X186153Y229336D01*
X186573Y229613D01*
X187043Y229854D01*
X187564Y230058D01*
X188136Y230224D01*
X188758Y230354D01*
X189431Y230446D01*
X190154Y230502D01*
X190928Y230520D01*
X200660Y230520D01*
X200660Y227926D01*
X190928Y227926D01*
X190416Y227915D01*
X189940Y227880D01*
X189498Y227822D01*
X189091Y227740D01*
X188720Y227636D01*
X188383Y227508D01*
X188082Y227357D01*
X187815Y227183D01*
X187582Y226984D01*
X187380Y226759D01*
X187208Y226507D01*
X187068Y226230D01*
X186960Y225925D01*
X186882Y225595D01*
X186835Y225238D01*
X186820Y224855D01*
X186840Y224416D01*
X186900Y224003D01*
X187000Y223616D01*
X187140Y223255D01*
X187321Y222920D01*
X187541Y222611D01*
X187802Y222328D01*
X188103Y222072D01*
X188441Y221843D01*
X188814Y221645D01*
X189222Y221478D01*
X189664Y221341D01*
X190142Y221234D01*
X190654Y221158D01*
X191202Y221112D01*
X191784Y221097D01*
X200660Y221097D01*
X200660Y218517D01*
G37*
G36*
X166063Y408704D02*
X156331Y408704D01*
X156331Y411285D01*
X166063Y411285D01*
X166575Y411296D01*
X167052Y411332D01*
X167493Y411390D01*
X167900Y411472D01*
X168272Y411578D01*
X168608Y411707D01*
X168910Y411859D01*
X169176Y412035D01*
X169410Y412235D01*
X169612Y412461D01*
X169783Y412713D01*
X169923Y412990D01*
X170032Y413293D01*
X170110Y413622D01*
X170156Y413976D01*
X170172Y414356D01*
X170152Y414798D01*
X170092Y415214D01*
X169991Y415603D01*
X169851Y415965D01*
X169671Y416300D01*
X169450Y416609D01*
X169189Y416891D01*
X168889Y417146D01*
X168551Y417373D01*
X168178Y417570D01*
X167770Y417736D01*
X167327Y417872D01*
X166849Y417978D01*
X166337Y418053D01*
X165790Y418099D01*
X165208Y418114D01*
X156331Y418114D01*
X156331Y420708D01*
X172009Y420708D01*
X172009Y418114D01*
X169653Y418114D01*
X169983Y417934D01*
X170292Y417739D01*
X170580Y417528D01*
X170848Y417302D01*
X171096Y417060D01*
X171323Y416803D01*
X171529Y416530D01*
X171714Y416242D01*
X171879Y415939D01*
X172021Y415624D01*
X172142Y415297D01*
X172240Y414957D01*
X172317Y414604D01*
X172372Y414240D01*
X172405Y413862D01*
X172415Y413472D01*
X172409Y413176D01*
X172391Y412889D01*
X172360Y412611D01*
X172317Y412343D01*
X172261Y412085D01*
X172194Y411837D01*
X172021Y411369D01*
X171799Y410939D01*
X171528Y410548D01*
X171208Y410196D01*
X170838Y409882D01*
X170418Y409606D01*
X169948Y409367D01*
X169427Y409165D01*
X168855Y408999D01*
X168233Y408870D01*
X167561Y408778D01*
X166837Y408723D01*
X166063Y408704D01*
G37*
G36*
X153457Y268317D02*
X151073Y268317D01*
X151073Y284289D01*
X153457Y284289D01*
X153457Y277740D01*
X172009Y277740D01*
X172009Y274893D01*
X153457Y274893D01*
X153457Y268317D01*
G37*
G36*
X182108Y285598D02*
X179724Y285598D01*
X179724Y301570D01*
X182108Y301570D01*
X182108Y295021D01*
X200660Y295021D01*
X200660Y292175D01*
X182108Y292175D01*
X182108Y285598D01*
G37*
G36*
X200085Y166894D02*
X197421Y166894D01*
X197769Y167609D01*
X198071Y168307D01*
X198327Y168990D01*
X198536Y169657D01*
X198698Y170307D01*
X198814Y170940D01*
X198884Y171555D01*
X198907Y172153D01*
X198896Y172569D01*
X198864Y172960D01*
X198810Y173328D01*
X198734Y173671D01*
X198636Y173990D01*
X198517Y174285D01*
X198376Y174556D01*
X198213Y174803D01*
X198031Y175023D01*
X197831Y175214D01*
X197615Y175376D01*
X197380Y175508D01*
X197129Y175611D01*
X196860Y175684D01*
X196574Y175728D01*
X196271Y175743D01*
X196051Y175729D01*
X195839Y175689D01*
X195637Y175622D01*
X195443Y175528D01*
X195257Y175407D01*
X195080Y175260D01*
X194912Y175085D01*
X194753Y174884D01*
X194602Y174656D01*
X194460Y174401D01*
X194326Y174119D01*
X194202Y173810D01*
X194085Y173475D01*
X193978Y173112D01*
X193879Y172723D01*
X193789Y172307D01*
X193761Y172195D01*
X193564Y171227D01*
X193446Y170689D01*
X193310Y170188D01*
X193155Y169725D01*
X192981Y169299D01*
X192788Y168911D01*
X192577Y168561D01*
X192347Y168249D01*
X192099Y167974D01*
X191830Y167734D01*
X191537Y167526D01*
X191221Y167350D01*
X190881Y167206D01*
X190518Y167094D01*
X190131Y167014D01*
X189721Y166966D01*
X189288Y166950D01*
X189009Y166956D01*
X188739Y166974D01*
X188223Y167046D01*
X187739Y167165D01*
X187288Y167333D01*
X186868Y167548D01*
X186481Y167810D01*
X186126Y168121D01*
X185803Y168479D01*
X185515Y168881D01*
X185266Y169325D01*
X185055Y169809D01*
X184883Y170333D01*
X184748Y170899D01*
X184653Y171505D01*
X184595Y172152D01*
X184576Y172840D01*
X184590Y173465D01*
X184634Y174078D01*
X184706Y174678D01*
X184807Y175266D01*
X184937Y175845D01*
X185096Y176419D01*
X185284Y176988D01*
X185501Y177552D01*
X188025Y177552D01*
X187723Y176997D01*
X187461Y176440D01*
X187239Y175882D01*
X187058Y175322D01*
X186917Y174759D01*
X186816Y174190D01*
X186756Y173616D01*
X186735Y173036D01*
X186744Y172612D01*
X186771Y172216D01*
X186815Y171847D01*
X186877Y171506D01*
X186957Y171193D01*
X187055Y170908D01*
X187170Y170651D01*
X187303Y170421D01*
X187455Y170219D01*
X187624Y170044D01*
X187813Y169896D01*
X188020Y169774D01*
X188246Y169680D01*
X188490Y169613D01*
X188753Y169572D01*
X189035Y169559D01*
X189290Y169569D01*
X189528Y169599D01*
X189749Y169649D01*
X189954Y169720D01*
X190142Y169811D01*
X190313Y169922D01*
X190468Y170053D01*
X190606Y170204D01*
X190735Y170395D01*
X190863Y170646D01*
X190991Y170958D01*
X191117Y171329D01*
X191243Y171761D01*
X191368Y172252D01*
X191615Y173415D01*
X191812Y174453D01*
X191914Y174918D01*
X192039Y175355D01*
X192188Y175762D01*
X192359Y176141D01*
X192552Y176490D01*
X192769Y176810D01*
X193008Y177101D01*
X193270Y177362D01*
X193554Y177594D01*
X193858Y177795D01*
X194183Y177965D01*
X194529Y178104D01*
X194895Y178212D01*
X195281Y178289D01*
X195689Y178336D01*
X196117Y178351D01*
X196404Y178345D01*
X196683Y178325D01*
X196954Y178293D01*
X197217Y178248D01*
X197472Y178189D01*
X197720Y178118D01*
X198190Y177937D01*
X198629Y177705D01*
X199036Y177420D01*
X199412Y177084D01*
X199756Y176696D01*
X200063Y176262D01*
X200329Y175788D01*
X200555Y175274D01*
X200739Y174719D01*
X200882Y174124D01*
X200985Y173489D01*
X201046Y172813D01*
X201067Y172097D01*
X201051Y171508D01*
X201005Y170905D01*
X200929Y170288D01*
X200821Y169657D01*
X200683Y169006D01*
X200515Y168328D01*
X200315Y167624D01*
X200085Y166894D01*
G37*
G36*
X200660Y95817D02*
X192471Y101987D01*
X184954Y96364D01*
X184954Y99225D01*
X190634Y103389D01*
X184954Y107526D01*
X184954Y110429D01*
X192471Y104806D01*
X200660Y110976D01*
X200660Y107989D01*
X194364Y103389D01*
X200660Y98804D01*
X200660Y95817D01*
G37*
G36*
X158309Y200307D02*
X156303Y200307D01*
X156303Y204500D01*
X151844Y204500D01*
X151844Y207080D01*
X156303Y207080D01*
X156303Y212942D01*
X158309Y212942D01*
X158309Y207080D01*
X166834Y207080D01*
X167253Y207090D01*
X167638Y207121D01*
X167991Y207173D01*
X168310Y207245D01*
X168597Y207337D01*
X168851Y207451D01*
X169072Y207585D01*
X169260Y207739D01*
X169421Y207919D01*
X169561Y208130D01*
X169679Y208371D01*
X169776Y208644D01*
X169851Y208946D01*
X169905Y209280D01*
X169937Y209644D01*
X169947Y210039D01*
X169947Y212942D01*
X172009Y212942D01*
X172009Y209786D01*
X171991Y209087D01*
X171936Y208442D01*
X171845Y207850D01*
X171718Y207311D01*
X171554Y206826D01*
X171354Y206395D01*
X171118Y206016D01*
X170845Y205692D01*
X170528Y205412D01*
X170158Y205170D01*
X169735Y204965D01*
X169260Y204798D01*
X168733Y204667D01*
X168153Y204574D01*
X167520Y204518D01*
X166834Y204500D01*
X158309Y204500D01*
X158309Y200307D01*
G37*
G36*
X158309Y390526D02*
X156303Y390526D01*
X156303Y394719D01*
X151844Y394719D01*
X151844Y397299D01*
X156303Y397299D01*
X156303Y403160D01*
X158309Y403160D01*
X158309Y397299D01*
X166834Y397299D01*
X167253Y397309D01*
X167638Y397340D01*
X167991Y397391D01*
X168310Y397464D01*
X168597Y397556D01*
X168851Y397669D01*
X169072Y397803D01*
X169260Y397958D01*
X169421Y398138D01*
X169561Y398349D01*
X169679Y398590D01*
X169776Y398862D01*
X169851Y399165D01*
X169905Y399499D01*
X169937Y399863D01*
X169947Y400258D01*
X169947Y403160D01*
X172009Y403160D01*
X172009Y400005D01*
X171991Y399306D01*
X171936Y398661D01*
X171845Y398069D01*
X171718Y397530D01*
X171554Y397045D01*
X171354Y396613D01*
X171118Y396235D01*
X170845Y395911D01*
X170528Y395631D01*
X170158Y395389D01*
X169735Y395184D01*
X169260Y395017D01*
X168733Y394886D01*
X168153Y394793D01*
X167520Y394737D01*
X166834Y394719D01*
X158309Y394719D01*
X158309Y390526D01*
G37*
G36*
X164170Y183923D02*
X163693Y183931D01*
X163229Y183955D01*
X162778Y183995D01*
X162340Y184052D01*
X161915Y184124D01*
X161504Y184212D01*
X161106Y184316D01*
X160720Y184437D01*
X160348Y184573D01*
X159990Y184726D01*
X159644Y184894D01*
X159311Y185079D01*
X158992Y185279D01*
X158685Y185496D01*
X158392Y185729D01*
X158112Y185978D01*
X157847Y186241D01*
X157600Y186516D01*
X157369Y186804D01*
X157155Y187104D01*
X156959Y187417D01*
X156779Y187742D01*
X156617Y188080D01*
X156472Y188430D01*
X156343Y188792D01*
X156232Y189167D01*
X156138Y189555D01*
X156061Y189954D01*
X156002Y190367D01*
X155959Y190791D01*
X155933Y191228D01*
X155925Y191678D01*
X155943Y192242D01*
X155998Y192800D01*
X156090Y193350D01*
X156219Y193893D01*
X156387Y194434D01*
X156594Y194977D01*
X156842Y195521D01*
X157131Y196067D01*
X159837Y196067D01*
X159413Y195555D01*
X159052Y195042D01*
X158754Y194528D01*
X158519Y194013D01*
X158341Y193480D01*
X158271Y193201D01*
X158214Y192914D01*
X158169Y192617D01*
X158138Y192313D01*
X158119Y192000D01*
X158112Y191678D01*
X158118Y191379D01*
X158137Y191089D01*
X158167Y190808D01*
X158210Y190535D01*
X158333Y190016D01*
X158505Y189532D01*
X158726Y189084D01*
X158996Y188670D01*
X159315Y188291D01*
X159683Y187948D01*
X160096Y187642D01*
X160552Y187377D01*
X161050Y187153D01*
X161590Y186970D01*
X162172Y186827D01*
X162796Y186725D01*
X163462Y186664D01*
X164170Y186644D01*
X164875Y186664D01*
X165539Y186726D01*
X166161Y186828D01*
X166742Y186971D01*
X167281Y187156D01*
X167779Y187381D01*
X168235Y187647D01*
X168650Y187955D01*
X169020Y188300D01*
X169341Y188679D01*
X169612Y189093D01*
X169834Y189541D01*
X170006Y190024D01*
X170129Y190541D01*
X170172Y190812D01*
X170203Y191092D01*
X170222Y191381D01*
X170228Y191678D01*
X170221Y192010D01*
X170202Y192333D01*
X170170Y192648D01*
X170125Y192954D01*
X170066Y193251D01*
X169995Y193539D01*
X169911Y193819D01*
X169814Y194090D01*
X169579Y194613D01*
X169287Y195117D01*
X168937Y195602D01*
X168531Y196067D01*
X171210Y196067D01*
X171492Y195544D01*
X171737Y195014D01*
X171944Y194475D01*
X172114Y193928D01*
X172246Y193375D01*
X172340Y192815D01*
X172397Y192250D01*
X172415Y191678D01*
X172407Y191228D01*
X172381Y190791D01*
X172339Y190367D01*
X172279Y189954D01*
X172202Y189555D01*
X172108Y189167D01*
X171997Y188792D01*
X171869Y188430D01*
X171723Y188080D01*
X171561Y187742D01*
X171382Y187417D01*
X171185Y187104D01*
X170971Y186804D01*
X170741Y186516D01*
X170493Y186241D01*
X170228Y185978D01*
X169948Y185729D01*
X169655Y185496D01*
X169348Y185279D01*
X169029Y185079D01*
X168696Y184894D01*
X168351Y184726D01*
X167992Y184573D01*
X167620Y184437D01*
X167235Y184316D01*
X166836Y184212D01*
X166425Y184124D01*
X166000Y184052D01*
X165562Y183995D01*
X165111Y183955D01*
X164647Y183931D01*
X164170Y183923D01*
G37*
G36*
X172009Y98089D02*
X170004Y98089D01*
X170004Y103207D01*
X158365Y103207D01*
X158365Y99182D01*
X156359Y99182D01*
X156359Y105787D01*
X170004Y105787D01*
X170004Y110906D01*
X172009Y110906D01*
X172009Y98089D01*
G37*
G36*
X200660Y184526D02*
X198655Y184526D01*
X198655Y189645D01*
X187016Y189645D01*
X187016Y185620D01*
X185011Y185620D01*
X185011Y192225D01*
X198655Y192225D01*
X198655Y197343D01*
X200660Y197343D01*
X200660Y184526D01*
G37*
G36*
X172009Y134390D02*
X156303Y134390D01*
X156303Y136984D01*
X159374Y136984D01*
X158969Y137156D01*
X158589Y137350D01*
X158232Y137566D01*
X157900Y137803D01*
X157592Y138062D01*
X157309Y138342D01*
X157050Y138645D01*
X156815Y138968D01*
X156606Y139311D01*
X156426Y139669D01*
X156272Y140043D01*
X156147Y140432D01*
X156050Y140837D01*
X155980Y141257D01*
X155939Y141693D01*
X155925Y142145D01*
X155940Y142614D01*
X155984Y143067D01*
X156059Y143504D01*
X156163Y143926D01*
X156299Y144335D01*
X156468Y144735D01*
X156671Y145127D01*
X156906Y145510D01*
X159543Y145510D01*
X159242Y145095D01*
X158985Y144676D01*
X158772Y144253D01*
X158603Y143827D01*
X158474Y143389D01*
X158382Y142930D01*
X158327Y142450D01*
X158309Y141948D01*
X158332Y141363D01*
X158403Y140813D01*
X158522Y140299D01*
X158687Y139820D01*
X158900Y139377D01*
X159160Y138969D01*
X159468Y138597D01*
X159823Y138260D01*
X160223Y137961D01*
X160664Y137702D01*
X161148Y137483D01*
X161674Y137303D01*
X162242Y137164D01*
X162852Y137064D01*
X163504Y137004D01*
X164198Y136984D01*
X172009Y136984D01*
X172009Y134390D01*
G37*
G36*
X172009Y238140D02*
X156303Y238140D01*
X156303Y240734D01*
X159374Y240734D01*
X158969Y240906D01*
X158589Y241100D01*
X158232Y241316D01*
X157900Y241553D01*
X157592Y241812D01*
X157309Y242092D01*
X157050Y242395D01*
X156815Y242718D01*
X156606Y243061D01*
X156426Y243419D01*
X156272Y243793D01*
X156147Y244182D01*
X156050Y244587D01*
X155980Y245007D01*
X155939Y245443D01*
X155925Y245895D01*
X155940Y246364D01*
X155984Y246817D01*
X156059Y247254D01*
X156163Y247676D01*
X156299Y248085D01*
X156468Y248485D01*
X156671Y248877D01*
X156906Y249260D01*
X159543Y249260D01*
X159242Y248845D01*
X158985Y248426D01*
X158772Y248003D01*
X158603Y247577D01*
X158474Y247139D01*
X158382Y246680D01*
X158327Y246200D01*
X158309Y245698D01*
X158332Y245113D01*
X158403Y244563D01*
X158522Y244049D01*
X158687Y243570D01*
X158900Y243127D01*
X159160Y242719D01*
X159468Y242347D01*
X159823Y242010D01*
X160223Y241711D01*
X160664Y241452D01*
X161148Y241233D01*
X161674Y241053D01*
X162242Y240914D01*
X162852Y240814D01*
X163504Y240754D01*
X164198Y240734D01*
X172009Y240734D01*
X172009Y238140D01*
G37*
G36*
X172009Y359171D02*
X156303Y359171D01*
X156303Y361765D01*
X159374Y361765D01*
X158969Y361938D01*
X158589Y362131D01*
X158232Y362347D01*
X157900Y362584D01*
X157592Y362843D01*
X157309Y363124D01*
X157050Y363426D01*
X156815Y363750D01*
X156606Y364092D01*
X156426Y364450D01*
X156272Y364824D01*
X156147Y365213D01*
X156050Y365618D01*
X155980Y366039D01*
X155939Y366474D01*
X155925Y366926D01*
X155940Y367395D01*
X155984Y367848D01*
X156059Y368285D01*
X156163Y368707D01*
X156299Y369116D01*
X156468Y369517D01*
X156671Y369908D01*
X156906Y370291D01*
X159543Y370291D01*
X159242Y369876D01*
X158985Y369457D01*
X158772Y369035D01*
X158603Y368609D01*
X158474Y368170D01*
X158382Y367711D01*
X158327Y367231D01*
X158309Y366730D01*
X158332Y366144D01*
X158403Y365595D01*
X158522Y365080D01*
X158687Y364602D01*
X158900Y364158D01*
X159160Y363751D01*
X159468Y363378D01*
X159823Y363042D01*
X160223Y362742D01*
X160664Y362483D01*
X161148Y362264D01*
X161674Y362085D01*
X162242Y361945D01*
X162852Y361845D01*
X163504Y361785D01*
X164198Y361765D01*
X172009Y361765D01*
X172009Y359171D01*
G37*
G36*
X172009Y428328D02*
X156303Y428328D01*
X156303Y430922D01*
X159374Y430922D01*
X158969Y431094D01*
X158589Y431288D01*
X158232Y431503D01*
X157900Y431740D01*
X157592Y431999D01*
X157309Y432280D01*
X157050Y432582D01*
X156815Y432906D01*
X156606Y433249D01*
X156426Y433607D01*
X156272Y433980D01*
X156147Y434370D01*
X156050Y434774D01*
X155980Y435195D01*
X155939Y435631D01*
X155925Y436082D01*
X155940Y436551D01*
X155984Y437004D01*
X156059Y437441D01*
X156163Y437863D01*
X156299Y438272D01*
X156468Y438673D01*
X156671Y439065D01*
X156906Y439448D01*
X159543Y439448D01*
X159242Y439032D01*
X158985Y438613D01*
X158772Y438191D01*
X158603Y437765D01*
X158474Y437327D01*
X158382Y436867D01*
X158327Y436387D01*
X158309Y435886D01*
X158332Y435301D01*
X158403Y434751D01*
X158522Y434237D01*
X158687Y433758D01*
X158900Y433315D01*
X159160Y432907D01*
X159468Y432535D01*
X159823Y432198D01*
X160223Y431899D01*
X160664Y431640D01*
X161148Y431420D01*
X161674Y431241D01*
X162242Y431101D01*
X162852Y431001D01*
X163504Y430942D01*
X164198Y430922D01*
X172009Y430922D01*
X172009Y428328D01*
G37*
G36*
X153513Y103207D02*
X150259Y103207D01*
X150259Y105787D01*
X153513Y105787D01*
X153513Y103207D01*
G37*
G36*
X182164Y189645D02*
X178911Y189645D01*
X178911Y192225D01*
X182164Y192225D01*
X182164Y189645D01*
G37*
G36*
X460740Y15240D02*
X456404Y15240D01*
X456404Y29888D01*
X460740Y29888D01*
X461286Y29873D01*
X461799Y29828D01*
X462281Y29752D01*
X462730Y29646D01*
X463146Y29509D01*
X463531Y29342D01*
X463884Y29145D01*
X464204Y28917D01*
X464489Y28662D01*
X464736Y28381D01*
X464945Y28075D01*
X465116Y27745D01*
X465249Y27389D01*
X465344Y27008D01*
X465401Y26601D01*
X465420Y26170D01*
X465410Y25935D01*
X465380Y25705D01*
X465330Y25481D01*
X465260Y25262D01*
X465169Y25049D01*
X465059Y24842D01*
X464928Y24640D01*
X464778Y24443D01*
X464607Y24258D01*
X464416Y24092D01*
X464205Y23943D01*
X463974Y23813D01*
X463723Y23700D01*
X463452Y23606D01*
X463161Y23530D01*
X462850Y23472D01*
X463201Y23405D01*
X463532Y23314D01*
X463844Y23197D01*
X464136Y23056D01*
X464409Y22890D01*
X464663Y22698D01*
X464897Y22482D01*
X465111Y22240D01*
X465303Y21972D01*
X465470Y21674D01*
X465611Y21346D01*
X465726Y20988D01*
X465815Y20601D01*
X465879Y20185D01*
X465918Y19738D01*
X465931Y19263D01*
X465910Y18780D01*
X465849Y18328D01*
X465747Y17906D01*
X465604Y17515D01*
X465421Y17154D01*
X465197Y16824D01*
X464931Y16525D01*
X464626Y16255D01*
X464279Y16017D01*
X463893Y15811D01*
X463468Y15637D01*
X463002Y15494D01*
X462496Y15383D01*
X461951Y15303D01*
X461366Y15256D01*
X460740Y15240D01*
G37*
%LPC*%
G36*
X460740Y16869D02*
X461157Y16878D01*
X461542Y16906D01*
X461896Y16954D01*
X462219Y17020D01*
X462512Y17104D01*
X462773Y17208D01*
X463004Y17331D01*
X463203Y17472D01*
X463375Y17635D01*
X463525Y17823D01*
X463651Y18034D01*
X463755Y18270D01*
X463835Y18531D01*
X463893Y18816D01*
X463927Y19125D01*
X463939Y19459D01*
X463927Y19897D01*
X463890Y20299D01*
X463830Y20665D01*
X463745Y20996D01*
X463636Y21290D01*
X463503Y21548D01*
X463345Y21770D01*
X463164Y21956D01*
X462956Y22113D01*
X462722Y22250D01*
X462460Y22365D01*
X462170Y22460D01*
X461854Y22533D01*
X461510Y22586D01*
X461139Y22617D01*
X460740Y22628D01*
X458395Y22628D01*
X458395Y16869D01*
X460740Y16869D01*
G37*
G36*
X460701Y24237D02*
X461047Y24246D01*
X461368Y24271D01*
X461664Y24314D01*
X461936Y24374D01*
X462183Y24452D01*
X462406Y24546D01*
X462603Y24658D01*
X462776Y24786D01*
X462927Y24928D01*
X463057Y25079D01*
X463168Y25239D01*
X463258Y25407D01*
X463328Y25584D01*
X463379Y25771D01*
X463409Y25966D01*
X463419Y26170D01*
X463409Y26437D01*
X463379Y26686D01*
X463330Y26914D01*
X463261Y27124D01*
X463172Y27314D01*
X463063Y27485D01*
X462934Y27637D01*
X462786Y27769D01*
X462615Y27884D01*
X462418Y27984D01*
X462196Y28068D01*
X461948Y28137D01*
X461675Y28191D01*
X461376Y28229D01*
X461051Y28252D01*
X460701Y28260D01*
X458395Y28260D01*
X458395Y24237D01*
X460701Y24237D01*
G37*
%LPD*%
G36*
X408814Y15240D02*
X406763Y15240D01*
X411247Y29888D01*
X413651Y29888D01*
X418134Y15240D01*
X416084Y15240D01*
X415005Y19057D01*
X409873Y19057D01*
X408814Y15240D01*
G37*
%LPC*%
G36*
X414534Y20646D02*
X412444Y28142D01*
X410354Y20646D01*
X414534Y20646D01*
G37*
%LPD*%
G36*
X433001Y15240D02*
X430951Y15240D01*
X435434Y29888D01*
X437838Y29888D01*
X442322Y15240D01*
X440271Y15240D01*
X439192Y19057D01*
X434061Y19057D01*
X433001Y15240D01*
G37*
%LPC*%
G36*
X438721Y20646D02*
X436631Y28142D01*
X434541Y20646D01*
X438721Y20646D01*
G37*
%LPD*%
G36*
X362125Y298654D02*
X361666Y298670D01*
X361232Y298718D01*
X360824Y298797D01*
X360442Y298909D01*
X360085Y299052D01*
X359754Y299227D01*
X359448Y299434D01*
X359168Y299673D01*
X358917Y299940D01*
X358700Y300232D01*
X358516Y300548D01*
X358366Y300888D01*
X358249Y301253D01*
X358165Y301643D01*
X358115Y302057D01*
X358098Y302496D01*
X358106Y302804D01*
X358129Y303100D01*
X358168Y303382D01*
X358222Y303652D01*
X358291Y303909D01*
X358376Y304152D01*
X358476Y304383D01*
X358591Y304601D01*
X358722Y304806D01*
X358867Y304996D01*
X359028Y305172D01*
X359203Y305335D01*
X359393Y305483D01*
X359598Y305618D01*
X359818Y305738D01*
X360053Y305844D01*
X360389Y304831D01*
X360065Y304673D01*
X359781Y304473D01*
X359538Y304232D01*
X359336Y303949D01*
X359177Y303631D01*
X359063Y303284D01*
X358995Y302910D01*
X358972Y302507D01*
X358985Y302188D01*
X359025Y301888D01*
X359090Y301606D01*
X359183Y301342D01*
X359301Y301096D01*
X359446Y300869D01*
X359617Y300659D01*
X359815Y300468D01*
X360035Y300298D01*
X360275Y300150D01*
X360535Y300025D01*
X360814Y299922D01*
X361112Y299843D01*
X361430Y299786D01*
X361768Y299752D01*
X362125Y299740D01*
X362478Y299752D01*
X362814Y299788D01*
X363133Y299847D01*
X363433Y299930D01*
X363716Y300037D01*
X363981Y300167D01*
X364228Y300321D01*
X364457Y300499D01*
X364664Y300697D01*
X364843Y300912D01*
X364995Y301143D01*
X365119Y301392D01*
X365215Y301657D01*
X365284Y301938D01*
X365325Y302237D01*
X365339Y302552D01*
X365333Y302756D01*
X365313Y302953D01*
X365281Y303144D01*
X365237Y303329D01*
X365108Y303679D01*
X364929Y304003D01*
X364698Y304302D01*
X364416Y304575D01*
X364083Y304822D01*
X363698Y305044D01*
X364135Y305917D01*
X364382Y305789D01*
X364614Y305649D01*
X364831Y305496D01*
X365033Y305331D01*
X365219Y305154D01*
X365390Y304964D01*
X365546Y304762D01*
X365686Y304548D01*
X365811Y304323D01*
X365919Y304089D01*
X366011Y303847D01*
X366085Y303595D01*
X366143Y303335D01*
X366185Y303066D01*
X366210Y302788D01*
X366218Y302501D01*
X366211Y302208D01*
X366187Y301925D01*
X366149Y301652D01*
X366094Y301389D01*
X366025Y301136D01*
X365940Y300893D01*
X365839Y300660D01*
X365723Y300438D01*
X365592Y300226D01*
X365448Y300028D01*
X365291Y299843D01*
X365121Y299670D01*
X364937Y299511D01*
X364740Y299364D01*
X364530Y299231D01*
X364306Y299110D01*
X364070Y299003D01*
X363824Y298911D01*
X363567Y298832D01*
X363300Y298768D01*
X363022Y298718D01*
X362734Y298683D01*
X362434Y298661D01*
X362125Y298654D01*
G37*
G36*
X366106Y307226D02*
X365250Y307226D01*
X365250Y309237D01*
X359179Y309237D01*
X360450Y307456D01*
X359498Y307456D01*
X358216Y309321D01*
X358216Y310250D01*
X365250Y310250D01*
X365250Y312171D01*
X366106Y312171D01*
X366106Y307226D01*
G37*
G36*
X329587Y298182D02*
X329128Y298198D01*
X328694Y298246D01*
X328286Y298326D01*
X327904Y298437D01*
X327547Y298580D01*
X327216Y298756D01*
X326910Y298963D01*
X326630Y299201D01*
X326379Y299469D01*
X326162Y299760D01*
X325978Y300076D01*
X325828Y300417D01*
X325711Y300782D01*
X325627Y301171D01*
X325577Y301585D01*
X325560Y302024D01*
X325568Y302332D01*
X325591Y302628D01*
X325630Y302911D01*
X325684Y303180D01*
X325753Y303437D01*
X325838Y303681D01*
X325938Y303912D01*
X326053Y304129D01*
X326184Y304334D01*
X326329Y304524D01*
X326490Y304701D01*
X326665Y304863D01*
X326855Y305011D01*
X327060Y305146D01*
X327280Y305266D01*
X327515Y305373D01*
X327851Y304359D01*
X327527Y304201D01*
X327243Y304001D01*
X327000Y303760D01*
X326798Y303477D01*
X326639Y303159D01*
X326525Y302813D01*
X326457Y302438D01*
X326434Y302035D01*
X326447Y301717D01*
X326487Y301416D01*
X326552Y301134D01*
X326645Y300870D01*
X326763Y300625D01*
X326908Y300397D01*
X327079Y300188D01*
X327277Y299997D01*
X327497Y299826D01*
X327737Y299678D01*
X327997Y299553D01*
X328276Y299451D01*
X328574Y299371D01*
X328892Y299314D01*
X329230Y299280D01*
X329587Y299269D01*
X329940Y299281D01*
X330276Y299316D01*
X330595Y299375D01*
X330895Y299458D01*
X331178Y299565D01*
X331443Y299696D01*
X331690Y299850D01*
X331919Y300027D01*
X332126Y300226D01*
X332305Y300440D01*
X332457Y300672D01*
X332581Y300920D01*
X332677Y301185D01*
X332746Y301467D01*
X332787Y301765D01*
X332801Y302080D01*
X332795Y302284D01*
X332776Y302481D01*
X332743Y302673D01*
X332699Y302857D01*
X332570Y303207D01*
X332391Y303532D01*
X332160Y303830D01*
X331878Y304103D01*
X331545Y304350D01*
X331160Y304572D01*
X331597Y305445D01*
X331844Y305318D01*
X332076Y305177D01*
X332293Y305025D01*
X332495Y304860D01*
X332681Y304682D01*
X332852Y304493D01*
X333008Y304291D01*
X333148Y304076D01*
X333273Y303851D01*
X333381Y303618D01*
X333473Y303375D01*
X333547Y303124D01*
X333605Y302863D01*
X333647Y302594D01*
X333672Y302316D01*
X333680Y302029D01*
X333673Y301736D01*
X333649Y301453D01*
X333611Y301180D01*
X333556Y300917D01*
X333487Y300664D01*
X333402Y300421D01*
X333301Y300189D01*
X333185Y299966D01*
X333054Y299755D01*
X332910Y299556D01*
X332753Y299371D01*
X332583Y299199D01*
X332399Y299039D01*
X332202Y298893D01*
X331992Y298759D01*
X331768Y298639D01*
X331532Y298532D01*
X331286Y298439D01*
X331029Y298361D01*
X330762Y298296D01*
X330484Y298246D01*
X330196Y298211D01*
X329896Y298189D01*
X329587Y298182D01*
G37*
G36*
X333568Y306458D02*
X332857Y306458D01*
X332539Y306609D01*
X332240Y306775D01*
X331961Y306957D01*
X331701Y307155D01*
X331223Y307577D01*
X330794Y308020D01*
X330402Y308472D01*
X330040Y308919D01*
X329693Y309343D01*
X329346Y309723D01*
X328990Y310047D01*
X328806Y310183D01*
X328618Y310302D01*
X328421Y310399D01*
X328212Y310468D01*
X327990Y310510D01*
X327756Y310524D01*
X327449Y310500D01*
X327179Y310428D01*
X326945Y310309D01*
X326748Y310143D01*
X326591Y309934D01*
X326479Y309688D01*
X326412Y309405D01*
X326389Y309084D01*
X326411Y308777D01*
X326477Y308497D01*
X326586Y308246D01*
X326739Y308023D01*
X326932Y307836D01*
X327160Y307692D01*
X327423Y307591D01*
X327722Y307533D01*
X327627Y306503D01*
X327396Y306540D01*
X327178Y306595D01*
X326971Y306668D01*
X326777Y306760D01*
X326595Y306869D01*
X326425Y306997D01*
X326266Y307143D01*
X326120Y307306D01*
X325989Y307485D01*
X325875Y307677D01*
X325779Y307881D01*
X325700Y308097D01*
X325639Y308325D01*
X325595Y308566D01*
X325569Y308819D01*
X325560Y309084D01*
X325569Y309374D01*
X325596Y309646D01*
X325640Y309901D01*
X325701Y310139D01*
X325780Y310360D01*
X325877Y310563D01*
X325991Y310749D01*
X326123Y310918D01*
X326271Y311069D01*
X326434Y311199D01*
X326612Y311309D01*
X326804Y311399D01*
X327012Y311469D01*
X327234Y311519D01*
X327470Y311550D01*
X327722Y311560D01*
X327951Y311546D01*
X328180Y311507D01*
X328408Y311441D01*
X328635Y311350D01*
X328862Y311232D01*
X329088Y311088D01*
X329315Y310920D01*
X329542Y310725D01*
X329800Y310471D01*
X330120Y310122D01*
X330948Y309140D01*
X331448Y308562D01*
X331897Y308116D01*
X332106Y307938D01*
X332312Y307788D01*
X332514Y307664D01*
X332712Y307567D01*
X332712Y311683D01*
X333568Y311683D01*
X333568Y306458D01*
G37*
G36*
X384458Y147318D02*
X384165Y147325D01*
X383882Y147349D01*
X383609Y147387D01*
X383346Y147442D01*
X383093Y147511D01*
X382850Y147596D01*
X382617Y147697D01*
X382394Y147813D01*
X382183Y147944D01*
X381985Y148088D01*
X381799Y148245D01*
X381627Y148415D01*
X381468Y148599D01*
X381321Y148796D01*
X381188Y149006D01*
X381067Y149230D01*
X380960Y149466D01*
X380867Y149712D01*
X380789Y149969D01*
X380725Y150236D01*
X380675Y150514D01*
X380639Y150802D01*
X380618Y151102D01*
X380611Y151411D01*
X380627Y151870D01*
X380674Y152304D01*
X380754Y152712D01*
X380865Y153094D01*
X381009Y153451D01*
X381184Y153782D01*
X381391Y154088D01*
X381630Y154368D01*
X381897Y154619D01*
X382188Y154836D01*
X382505Y155020D01*
X382845Y155170D01*
X383210Y155287D01*
X383600Y155371D01*
X384014Y155421D01*
X384452Y155438D01*
X384761Y155430D01*
X385056Y155407D01*
X385339Y155368D01*
X385609Y155314D01*
X385865Y155245D01*
X386109Y155160D01*
X386340Y155060D01*
X386558Y154945D01*
X386762Y154814D01*
X386953Y154669D01*
X387129Y154508D01*
X387291Y154333D01*
X387440Y154143D01*
X387574Y153938D01*
X387695Y153718D01*
X387801Y153483D01*
X386787Y153147D01*
X386629Y153471D01*
X386430Y153755D01*
X386188Y153998D01*
X385905Y154200D01*
X385587Y154359D01*
X385241Y154473D01*
X384866Y154541D01*
X384463Y154564D01*
X384145Y154551D01*
X383845Y154511D01*
X383563Y154445D01*
X383299Y154353D01*
X383053Y154235D01*
X382825Y154090D01*
X382616Y153919D01*
X382425Y153721D01*
X382254Y153501D01*
X382107Y153261D01*
X381981Y153001D01*
X381879Y152722D01*
X381799Y152424D01*
X381743Y152106D01*
X381708Y151768D01*
X381697Y151411D01*
X381709Y151057D01*
X381744Y150722D01*
X381804Y150403D01*
X381887Y150103D01*
X381993Y149820D01*
X382124Y149555D01*
X382278Y149308D01*
X382456Y149079D01*
X382654Y148872D01*
X382869Y148693D01*
X383100Y148541D01*
X383348Y148417D01*
X383613Y148321D01*
X383895Y148252D01*
X384193Y148211D01*
X384508Y148197D01*
X384712Y148203D01*
X384910Y148222D01*
X385101Y148255D01*
X385286Y148299D01*
X385636Y148428D01*
X385960Y148607D01*
X386259Y148838D01*
X386532Y149120D01*
X386779Y149453D01*
X387000Y149838D01*
X387874Y149401D01*
X387746Y149154D01*
X387606Y148922D01*
X387453Y148705D01*
X387288Y148503D01*
X387111Y148317D01*
X386921Y148146D01*
X386719Y147990D01*
X386505Y147850D01*
X386280Y147725D01*
X386046Y147617D01*
X385803Y147525D01*
X385552Y147451D01*
X385292Y147392D01*
X385023Y147351D01*
X384745Y147326D01*
X384458Y147318D01*
G37*
G36*
X391507Y147318D02*
X391215Y147326D01*
X390938Y147351D01*
X390676Y147394D01*
X390430Y147453D01*
X390198Y147529D01*
X389982Y147622D01*
X389781Y147731D01*
X389595Y147858D01*
X389425Y148001D01*
X389274Y148161D01*
X389141Y148336D01*
X389026Y148528D01*
X388929Y148736D01*
X388850Y148960D01*
X388789Y149200D01*
X388746Y149457D01*
X389788Y149552D01*
X389859Y149224D01*
X389971Y148940D01*
X390124Y148699D01*
X390319Y148502D01*
X390554Y148349D01*
X390831Y148240D01*
X391148Y148174D01*
X391507Y148152D01*
X391867Y148175D01*
X392187Y148246D01*
X392465Y148363D01*
X392703Y148527D01*
X392804Y148627D01*
X392893Y148738D01*
X392967Y148860D01*
X393028Y148993D01*
X393076Y149138D01*
X393110Y149295D01*
X393130Y149463D01*
X393137Y149642D01*
X393129Y149798D01*
X393106Y149946D01*
X393067Y150085D01*
X393013Y150215D01*
X392943Y150336D01*
X392858Y150449D01*
X392757Y150552D01*
X392641Y150647D01*
X392510Y150731D01*
X392366Y150805D01*
X392208Y150867D01*
X392036Y150918D01*
X391650Y150985D01*
X391210Y151008D01*
X390639Y151008D01*
X390639Y151882D01*
X391188Y151882D01*
X391579Y151904D01*
X391924Y151972D01*
X392222Y152085D01*
X392473Y152243D01*
X392673Y152441D01*
X392751Y152553D01*
X392815Y152673D01*
X392865Y152803D01*
X392901Y152941D01*
X392922Y153087D01*
X392930Y153242D01*
X392906Y153542D01*
X392836Y153809D01*
X392720Y154042D01*
X392557Y154242D01*
X392348Y154402D01*
X392094Y154517D01*
X391795Y154586D01*
X391451Y154609D01*
X391134Y154587D01*
X390848Y154523D01*
X390595Y154417D01*
X390373Y154267D01*
X390189Y154079D01*
X390048Y153856D01*
X389949Y153597D01*
X389894Y153304D01*
X388881Y153382D01*
X388918Y153618D01*
X388973Y153840D01*
X389046Y154049D01*
X389138Y154245D01*
X389247Y154427D01*
X389375Y154596D01*
X389520Y154752D01*
X389684Y154894D01*
X389863Y155022D01*
X390055Y155132D01*
X390259Y155225D01*
X390475Y155302D01*
X390703Y155361D01*
X390944Y155404D01*
X391197Y155429D01*
X391462Y155438D01*
X391751Y155429D01*
X392023Y155403D01*
X392278Y155360D01*
X392517Y155300D01*
X392740Y155222D01*
X392945Y155127D01*
X393135Y155015D01*
X393308Y154886D01*
X393462Y154741D01*
X393595Y154583D01*
X393708Y154411D01*
X393801Y154226D01*
X393873Y154027D01*
X393924Y153814D01*
X393955Y153588D01*
X393966Y153349D01*
X393959Y153164D01*
X393939Y152988D01*
X393906Y152822D01*
X393860Y152664D01*
X393800Y152514D01*
X393728Y152374D01*
X393543Y152120D01*
X393307Y151902D01*
X393024Y151723D01*
X392693Y151581D01*
X392314Y151478D01*
X392314Y151456D01*
X392529Y151426D01*
X392731Y151383D01*
X392922Y151328D01*
X393100Y151260D01*
X393266Y151180D01*
X393420Y151086D01*
X393562Y150981D01*
X393691Y150862D01*
X393807Y150734D01*
X393907Y150597D01*
X393991Y150452D01*
X394061Y150300D01*
X394115Y150139D01*
X394153Y149970D01*
X394176Y149793D01*
X394184Y149608D01*
X394173Y149343D01*
X394141Y149093D01*
X394086Y148858D01*
X394010Y148639D01*
X393913Y148436D01*
X393793Y148247D01*
X393652Y148074D01*
X393490Y147917D01*
X393307Y147776D01*
X393105Y147655D01*
X392885Y147552D01*
X392647Y147467D01*
X392390Y147402D01*
X392114Y147355D01*
X391820Y147327D01*
X391507Y147318D01*
G37*
G36*
X296518Y243885D02*
X288628Y243885D01*
X288628Y247598D01*
X288637Y247921D01*
X288665Y248226D01*
X288712Y248512D01*
X288777Y248778D01*
X288861Y249026D01*
X288964Y249255D01*
X289085Y249465D01*
X289225Y249656D01*
X289381Y249825D01*
X289552Y249973D01*
X289738Y250097D01*
X289938Y250199D01*
X290153Y250279D01*
X290382Y250335D01*
X290626Y250369D01*
X290885Y250381D01*
X291100Y250373D01*
X291307Y250349D01*
X291505Y250309D01*
X291694Y250253D01*
X291875Y250181D01*
X292046Y250092D01*
X292209Y249988D01*
X292363Y249868D01*
X292506Y249734D01*
X292635Y249588D01*
X292751Y249429D01*
X292793Y249358D01*
X292852Y249259D01*
X292940Y249076D01*
X293013Y248881D01*
X293073Y248674D01*
X293119Y248454D01*
X294566Y249408D01*
X296518Y250694D01*
X296518Y249462D01*
X293243Y247413D01*
X293243Y244954D01*
X296518Y244954D01*
X296518Y243885D01*
G37*
%LPC*%
G36*
X292397Y244954D02*
X292397Y247536D01*
X292391Y247741D01*
X292372Y247935D01*
X292341Y248116D01*
X292298Y248286D01*
X292243Y248443D01*
X292175Y248589D01*
X292095Y248722D01*
X292002Y248844D01*
X291898Y248952D01*
X291785Y249046D01*
X291662Y249125D01*
X291528Y249190D01*
X291385Y249241D01*
X291232Y249277D01*
X291069Y249298D01*
X290896Y249306D01*
X290729Y249298D01*
X290572Y249276D01*
X290426Y249240D01*
X290289Y249189D01*
X290163Y249123D01*
X290047Y249042D01*
X289942Y248948D01*
X289846Y248838D01*
X289761Y248715D01*
X289688Y248578D01*
X289575Y248267D01*
X289508Y247905D01*
X289485Y247491D01*
X289485Y244954D01*
X292397Y244954D01*
G37*
%LPD*%
G36*
X296518Y252099D02*
X295662Y252099D01*
X295662Y254109D01*
X289591Y254109D01*
X290863Y252328D01*
X289911Y252328D01*
X288628Y254193D01*
X288628Y255123D01*
X295662Y255123D01*
X295662Y257044D01*
X296518Y257044D01*
X296518Y252099D01*
G37*
G36*
X395345Y223050D02*
X390322Y223050D01*
X390322Y224119D01*
X395255Y224119D01*
X395517Y224128D01*
X395763Y224154D01*
X395993Y224197D01*
X396206Y224257D01*
X396403Y224334D01*
X396584Y224428D01*
X396748Y224540D01*
X396896Y224668D01*
X397027Y224813D01*
X397141Y224973D01*
X397237Y225148D01*
X397316Y225339D01*
X397377Y225544D01*
X397421Y225765D01*
X397447Y226002D01*
X397456Y226253D01*
X397447Y226512D01*
X397420Y226755D01*
X397375Y226984D01*
X397311Y227199D01*
X397230Y227398D01*
X397130Y227583D01*
X397012Y227753D01*
X396877Y227908D01*
X396723Y228046D01*
X396553Y228166D01*
X396367Y228268D01*
X396163Y228351D01*
X395943Y228415D01*
X395706Y228462D01*
X395453Y228489D01*
X395183Y228499D01*
X390322Y228499D01*
X390322Y229563D01*
X395244Y229563D01*
X395480Y229556D01*
X395707Y229537D01*
X395925Y229505D01*
X396136Y229461D01*
X396533Y229334D01*
X396896Y229157D01*
X397223Y228933D01*
X397509Y228667D01*
X397754Y228359D01*
X397957Y228009D01*
X398118Y227621D01*
X398232Y227200D01*
X398301Y226746D01*
X398324Y226259D01*
X398302Y225790D01*
X398236Y225351D01*
X398126Y224944D01*
X397971Y224567D01*
X397775Y224226D01*
X397539Y223926D01*
X397263Y223666D01*
X396947Y223447D01*
X396595Y223273D01*
X396210Y223149D01*
X396006Y223106D01*
X395794Y223075D01*
X395573Y223056D01*
X395345Y223050D01*
G37*
G36*
X398212Y231320D02*
X397355Y231320D01*
X397355Y233330D01*
X391285Y233330D01*
X392556Y231549D01*
X391604Y231549D01*
X390322Y233414D01*
X390322Y234344D01*
X397355Y234344D01*
X397355Y236265D01*
X398212Y236265D01*
X398212Y231320D01*
G37*
G36*
X355608Y35034D02*
X349173Y35034D01*
X349173Y35910D01*
X349359Y36302D01*
X349564Y36670D01*
X349788Y37014D01*
X350032Y37334D01*
X350552Y37922D01*
X351098Y38452D01*
X351654Y38934D01*
X352205Y39379D01*
X352726Y39807D01*
X353194Y40235D01*
X353405Y40451D01*
X353594Y40672D01*
X353761Y40899D01*
X353908Y41131D01*
X354027Y41373D01*
X354113Y41631D01*
X354164Y41904D01*
X354181Y42193D01*
X354173Y42388D01*
X354151Y42571D01*
X354115Y42743D01*
X354063Y42904D01*
X353997Y43053D01*
X353917Y43192D01*
X353822Y43319D01*
X353712Y43435D01*
X353589Y43538D01*
X353454Y43628D01*
X353309Y43704D01*
X353151Y43766D01*
X352983Y43814D01*
X352803Y43849D01*
X352611Y43869D01*
X352408Y43876D01*
X352214Y43869D01*
X352029Y43849D01*
X351853Y43816D01*
X351685Y43768D01*
X351526Y43708D01*
X351376Y43634D01*
X351101Y43445D01*
X350979Y43332D01*
X350871Y43208D01*
X350775Y43073D01*
X350693Y42927D01*
X350625Y42770D01*
X350569Y42603D01*
X350527Y42424D01*
X350498Y42235D01*
X349229Y42352D01*
X349274Y42636D01*
X349342Y42905D01*
X349432Y43159D01*
X349545Y43399D01*
X349680Y43623D01*
X349837Y43833D01*
X350017Y44027D01*
X350218Y44207D01*
X350439Y44369D01*
X350675Y44509D01*
X350926Y44627D01*
X351192Y44724D01*
X351473Y44800D01*
X351770Y44854D01*
X352081Y44886D01*
X352408Y44897D01*
X352765Y44886D01*
X353100Y44854D01*
X353414Y44799D01*
X353707Y44724D01*
X353979Y44626D01*
X354230Y44507D01*
X354459Y44366D01*
X354667Y44204D01*
X354852Y44021D01*
X355012Y43821D01*
X355148Y43602D01*
X355259Y43365D01*
X355346Y43110D01*
X355407Y42836D01*
X355444Y42545D01*
X355457Y42235D01*
X355440Y41952D01*
X355392Y41671D01*
X355311Y41390D01*
X355198Y41110D01*
X355053Y40831D01*
X354876Y40552D01*
X354668Y40272D01*
X354429Y39993D01*
X354116Y39675D01*
X353686Y39281D01*
X352477Y38262D01*
X351765Y37646D01*
X351470Y37361D01*
X351215Y37093D01*
X350997Y36835D01*
X350811Y36582D01*
X350659Y36333D01*
X350539Y36089D01*
X355608Y36089D01*
X355608Y35034D01*
G37*
G36*
X344552Y34896D02*
X344252Y34906D01*
X343967Y34936D01*
X343697Y34986D01*
X343443Y35056D01*
X343205Y35145D01*
X342983Y35255D01*
X342776Y35385D01*
X342585Y35534D01*
X342410Y35704D01*
X342250Y35893D01*
X342106Y36102D01*
X341978Y36332D01*
X341865Y36581D01*
X341768Y36850D01*
X341687Y37139D01*
X341621Y37448D01*
X342911Y37662D01*
X342992Y37284D01*
X343113Y36950D01*
X343272Y36660D01*
X343470Y36414D01*
X343701Y36217D01*
X343959Y36077D01*
X344099Y36028D01*
X344246Y35993D01*
X344399Y35972D01*
X344559Y35965D01*
X344734Y35973D01*
X344899Y35996D01*
X345055Y36035D01*
X345201Y36089D01*
X345337Y36158D01*
X345465Y36243D01*
X345582Y36343D01*
X345690Y36458D01*
X345787Y36589D01*
X345872Y36734D01*
X345943Y36893D01*
X346001Y37066D01*
X346046Y37254D01*
X346078Y37456D01*
X346098Y37673D01*
X346104Y37903D01*
X346104Y43676D01*
X344235Y43676D01*
X344235Y44752D01*
X347415Y44752D01*
X347415Y37931D01*
X347403Y37587D01*
X347367Y37262D01*
X347307Y36955D01*
X347223Y36668D01*
X347116Y36399D01*
X346984Y36150D01*
X346829Y35919D01*
X346649Y35707D01*
X346449Y35517D01*
X346231Y35352D01*
X345995Y35213D01*
X345742Y35099D01*
X345471Y35010D01*
X345183Y34947D01*
X344876Y34909D01*
X344552Y34896D01*
G37*
D10*
X461010Y214630D02*
X551180Y214630D01*
X551180Y125730D01*
X572770Y125730D01*
X572770Y99060D01*
X561975Y99060D01*
X561975Y64770D01*
X449580Y64770D01*
X449580Y99060D01*
X438150Y99060D01*
X438150Y125730D01*
X461010Y125730D01*
X461010Y214630D01*
X488186Y109220D02*
X488191Y109644D01*
X488207Y110068D01*
X488233Y110491D01*
X488269Y110913D01*
X488316Y111335D01*
X488373Y111755D01*
X488440Y112173D01*
X488518Y112590D01*
X488606Y113005D01*
X488704Y113417D01*
X488812Y113827D01*
X488930Y114234D01*
X489058Y114639D01*
X489196Y115039D01*
X489343Y115437D01*
X489501Y115830D01*
X489668Y116220D01*
X489844Y116606D01*
X490030Y116987D01*
X490226Y117363D01*
X490430Y117734D01*
X490644Y118101D01*
X490866Y118462D01*
X491097Y118817D01*
X491337Y119167D01*
X491585Y119510D01*
X491842Y119848D01*
X492107Y120179D01*
X492380Y120503D01*
X492661Y120821D01*
X492949Y121131D01*
X493245Y121435D01*
X493549Y121731D01*
X493859Y122019D01*
X494177Y122300D01*
X494501Y122573D01*
X494832Y122838D01*
X495170Y123095D01*
X495513Y123343D01*
X495863Y123583D01*
X496218Y123814D01*
X496579Y124036D01*
X496946Y124250D01*
X497317Y124454D01*
X497693Y124650D01*
X498074Y124836D01*
X498460Y125012D01*
X498850Y125179D01*
X499243Y125337D01*
X499641Y125484D01*
X500041Y125622D01*
X500446Y125750D01*
X500853Y125868D01*
X501263Y125976D01*
X501675Y126074D01*
X502090Y126162D01*
X502507Y126240D01*
X502925Y126307D01*
X503345Y126364D01*
X503767Y126411D01*
X504189Y126447D01*
X504612Y126473D01*
X505036Y126489D01*
X505460Y126494D01*
X505884Y126489D01*
X506308Y126473D01*
X506731Y126447D01*
X507153Y126411D01*
X507575Y126364D01*
X507995Y126307D01*
X508413Y126240D01*
X508830Y126162D01*
X509245Y126074D01*
X509657Y125976D01*
X510067Y125868D01*
X510474Y125750D01*
X510879Y125622D01*
X511279Y125484D01*
X511677Y125337D01*
X512070Y125179D01*
X512460Y125012D01*
X512846Y124836D01*
X513227Y124650D01*
X513603Y124454D01*
X513974Y124250D01*
X514341Y124036D01*
X514702Y123814D01*
X515057Y123583D01*
X515407Y123343D01*
X515750Y123095D01*
X516088Y122838D01*
X516419Y122573D01*
X516743Y122300D01*
X517061Y122019D01*
X517371Y121731D01*
X517675Y121435D01*
X517971Y121131D01*
X518259Y120821D01*
X518540Y120503D01*
X518813Y120179D01*
X519078Y119848D01*
X519335Y119510D01*
X519583Y119167D01*
X519823Y118817D01*
X520054Y118462D01*
X520276Y118101D01*
X520490Y117734D01*
X520694Y117363D01*
X520890Y116987D01*
X521076Y116606D01*
X521252Y116220D01*
X521419Y115830D01*
X521577Y115437D01*
X521724Y115039D01*
X521862Y114639D01*
X521990Y114234D01*
X522108Y113827D01*
X522216Y113417D01*
X522314Y113005D01*
X522402Y112590D01*
X522480Y112173D01*
X522547Y111755D01*
X522604Y111335D01*
X522651Y110913D01*
X522687Y110491D01*
X522713Y110068D01*
X522729Y109644D01*
X522734Y109220D01*
X522729Y108796D01*
X522713Y108372D01*
X522687Y107949D01*
X522651Y107527D01*
X522604Y107105D01*
X522547Y106685D01*
X522480Y106267D01*
X522402Y105850D01*
X522314Y105435D01*
X522216Y105023D01*
X522108Y104613D01*
X521990Y104206D01*
X521862Y103801D01*
X521724Y103401D01*
X521577Y103003D01*
X521419Y102610D01*
X521252Y102220D01*
X521076Y101834D01*
X520890Y101453D01*
X520694Y101077D01*
X520490Y100706D01*
X520276Y100339D01*
X520054Y99978D01*
X519823Y99623D01*
X519583Y99273D01*
X519335Y98930D01*
X519078Y98592D01*
X518813Y98261D01*
X518540Y97937D01*
X518259Y97619D01*
X517971Y97309D01*
X517675Y97005D01*
X517371Y96709D01*
X517061Y96421D01*
X516743Y96140D01*
X516419Y95867D01*
X516088Y95602D01*
X515750Y95345D01*
X515407Y95097D01*
X515057Y94857D01*
X514702Y94626D01*
X514341Y94404D01*
X513974Y94190D01*
X513603Y93986D01*
X513227Y93790D01*
X512846Y93604D01*
X512460Y93428D01*
X512070Y93261D01*
X511677Y93103D01*
X511279Y92956D01*
X510879Y92818D01*
X510474Y92690D01*
X510067Y92572D01*
X509657Y92464D01*
X509245Y92366D01*
X508830Y92278D01*
X508413Y92200D01*
X507995Y92133D01*
X507575Y92076D01*
X507153Y92029D01*
X506731Y91993D01*
X506308Y91967D01*
X505884Y91951D01*
X505460Y91946D01*
X505036Y91951D01*
X504612Y91967D01*
X504189Y91993D01*
X503767Y92029D01*
X503345Y92076D01*
X502925Y92133D01*
X502507Y92200D01*
X502090Y92278D01*
X501675Y92366D01*
X501263Y92464D01*
X500853Y92572D01*
X500446Y92690D01*
X500041Y92818D01*
X499641Y92956D01*
X499243Y93103D01*
X498850Y93261D01*
X498460Y93428D01*
X498074Y93604D01*
X497693Y93790D01*
X497317Y93986D01*
X496946Y94190D01*
X496579Y94404D01*
X496218Y94626D01*
X495863Y94857D01*
X495513Y95097D01*
X495170Y95345D01*
X494832Y95602D01*
X494501Y95867D01*
X494177Y96140D01*
X493859Y96421D01*
X493549Y96709D01*
X493245Y97005D01*
X492949Y97309D01*
X492661Y97619D01*
X492380Y97937D01*
X492107Y98261D01*
X491842Y98592D01*
X491585Y98930D01*
X491337Y99273D01*
X491097Y99623D01*
X490866Y99978D01*
X490644Y100339D01*
X490430Y100706D01*
X490226Y101077D01*
X490030Y101453D01*
X489844Y101834D01*
X489668Y102220D01*
X489501Y102610D01*
X489343Y103003D01*
X489196Y103401D01*
X489058Y103801D01*
X488930Y104206D01*
X488812Y104613D01*
X488704Y105023D01*
X488606Y105435D01*
X488518Y105850D01*
X488440Y106267D01*
X488373Y106685D01*
X488316Y107105D01*
X488269Y107527D01*
X488233Y107949D01*
X488207Y108372D01*
X488191Y108796D01*
X488186Y109220D01*
D11*
X369916Y277752D02*
X359756Y277752D01*
X337378Y277280D02*
X327218Y277280D01*
X359708Y153780D02*
X359708Y143620D01*
X300328Y222624D02*
X290168Y222624D01*
D12*
X377414Y237775D02*
X381414Y237775D01*
X381414Y233775D01*
X381414Y199775D02*
X381414Y195775D01*
X377414Y195775D01*
X343414Y237775D02*
X339414Y237775D01*
X339414Y233775D01*
X339414Y199775D02*
X339414Y195775D01*
X343414Y195775D01*
D13*
X333414Y236775D02*
X333416Y236838D01*
X333422Y236900D01*
X333432Y236962D01*
X333445Y237024D01*
X333463Y237084D01*
X333484Y237143D01*
X333509Y237201D01*
X333538Y237257D01*
X333570Y237311D01*
X333605Y237363D01*
X333643Y237412D01*
X333685Y237460D01*
X333729Y237504D01*
X333777Y237546D01*
X333826Y237584D01*
X333878Y237619D01*
X333932Y237651D01*
X333988Y237680D01*
X334046Y237705D01*
X334105Y237726D01*
X334165Y237744D01*
X334227Y237757D01*
X334289Y237767D01*
X334351Y237773D01*
X334414Y237775D01*
X334477Y237773D01*
X334539Y237767D01*
X334601Y237757D01*
X334663Y237744D01*
X334723Y237726D01*
X334782Y237705D01*
X334840Y237680D01*
X334896Y237651D01*
X334950Y237619D01*
X335002Y237584D01*
X335051Y237546D01*
X335099Y237504D01*
X335143Y237460D01*
X335185Y237412D01*
X335223Y237363D01*
X335258Y237311D01*
X335290Y237257D01*
X335319Y237201D01*
X335344Y237143D01*
X335365Y237084D01*
X335383Y237024D01*
X335396Y236962D01*
X335406Y236900D01*
X335412Y236838D01*
X335414Y236775D01*
X335412Y236712D01*
X335406Y236650D01*
X335396Y236588D01*
X335383Y236526D01*
X335365Y236466D01*
X335344Y236407D01*
X335319Y236349D01*
X335290Y236293D01*
X335258Y236239D01*
X335223Y236187D01*
X335185Y236138D01*
X335143Y236090D01*
X335099Y236046D01*
X335051Y236004D01*
X335002Y235966D01*
X334950Y235931D01*
X334896Y235899D01*
X334840Y235870D01*
X334782Y235845D01*
X334723Y235824D01*
X334663Y235806D01*
X334601Y235793D01*
X334539Y235783D01*
X334477Y235777D01*
X334414Y235775D01*
X334351Y235777D01*
X334289Y235783D01*
X334227Y235793D01*
X334165Y235806D01*
X334105Y235824D01*
X334046Y235845D01*
X333988Y235870D01*
X333932Y235899D01*
X333878Y235931D01*
X333826Y235966D01*
X333777Y236004D01*
X333729Y236046D01*
X333685Y236090D01*
X333643Y236138D01*
X333605Y236187D01*
X333570Y236239D01*
X333538Y236293D01*
X333509Y236349D01*
X333484Y236407D01*
X333463Y236466D01*
X333445Y236526D01*
X333432Y236588D01*
X333422Y236650D01*
X333416Y236712D01*
X333414Y236775D01*
D14*
X297358Y6766D02*
X396358Y6766D01*
X297358Y6766D02*
X297358Y121766D01*
X396358Y121766D02*
X396358Y6766D01*
X396358Y121766D02*
X297358Y121766D01*
M02*
