G04 EAGLE Gerber RS-274X export*
G75*
%MOMM*%
%FSLAX34Y34*%
%LPD*%
%INSilkscreen Bottom*%
%IPPOS*%
%AMOC8*
5,1,8,0,0,1.08239X$1,22.5*%
G01*
G04 Define Apertures*
%ADD10C,0.200000*%
G36*
X597691Y494947D02*
X585350Y494947D01*
X585350Y496620D01*
X590158Y496620D01*
X590158Y500246D01*
X590175Y500724D01*
X590223Y501176D01*
X590304Y501602D01*
X590417Y502003D01*
X590562Y502379D01*
X590740Y502728D01*
X590950Y503053D01*
X591192Y503351D01*
X591462Y503619D01*
X591754Y503851D01*
X592068Y504048D01*
X592405Y504208D01*
X592764Y504333D01*
X593146Y504423D01*
X593550Y504476D01*
X593977Y504494D01*
X594407Y504476D01*
X594812Y504423D01*
X595192Y504334D01*
X595547Y504209D01*
X595877Y504049D01*
X596183Y503854D01*
X596463Y503622D01*
X596719Y503355D01*
X596946Y503056D01*
X597144Y502728D01*
X597311Y502370D01*
X597448Y501983D01*
X597554Y501566D01*
X597630Y501120D01*
X597676Y500645D01*
X597691Y500141D01*
X597691Y494947D01*
G37*
%LPC*%
G36*
X596351Y496620D02*
X596351Y499940D01*
X596341Y500287D01*
X596313Y500613D01*
X596267Y500916D01*
X596201Y501196D01*
X596117Y501455D01*
X596014Y501690D01*
X595893Y501903D01*
X595753Y502094D01*
X595594Y502263D01*
X595417Y502408D01*
X595221Y502532D01*
X595006Y502633D01*
X594772Y502711D01*
X594520Y502768D01*
X594249Y502801D01*
X593960Y502812D01*
X593659Y502801D01*
X593379Y502769D01*
X593117Y502714D01*
X592875Y502637D01*
X592653Y502539D01*
X592449Y502418D01*
X592265Y502276D01*
X592101Y502112D01*
X591955Y501926D01*
X591830Y501718D01*
X591723Y501488D01*
X591636Y501236D01*
X591568Y500962D01*
X591520Y500667D01*
X591491Y500349D01*
X591481Y500010D01*
X591481Y496620D01*
X596351Y496620D01*
G37*
%LPD*%
G36*
X586462Y506315D02*
X585350Y506315D01*
X585350Y514487D01*
X586690Y514487D01*
X586690Y508050D01*
X587000Y508202D01*
X587315Y508396D01*
X587637Y508631D01*
X587964Y508908D01*
X588305Y509231D01*
X588666Y509606D01*
X589047Y510033D01*
X589449Y510511D01*
X590145Y511352D01*
X590743Y512046D01*
X591244Y512591D01*
X591647Y512989D01*
X592002Y513294D01*
X592357Y513558D01*
X592712Y513782D01*
X593066Y513966D01*
X593422Y514110D01*
X593778Y514212D01*
X594135Y514274D01*
X594494Y514294D01*
X594887Y514279D01*
X595258Y514232D01*
X595605Y514153D01*
X595929Y514044D01*
X596230Y513903D01*
X596508Y513730D01*
X596763Y513527D01*
X596994Y513292D01*
X597201Y513027D01*
X597380Y512736D01*
X597531Y512418D01*
X597655Y512073D01*
X597751Y511701D01*
X597820Y511302D01*
X597861Y510876D01*
X597875Y510423D01*
X597861Y510008D01*
X597820Y509612D01*
X597752Y509236D01*
X597656Y508878D01*
X597533Y508540D01*
X597382Y508222D01*
X597204Y507922D01*
X596999Y507642D01*
X596770Y507386D01*
X596523Y507158D01*
X596257Y506959D01*
X595972Y506787D01*
X595668Y506644D01*
X595345Y506530D01*
X595003Y506443D01*
X594643Y506386D01*
X594494Y507997D01*
X594734Y508034D01*
X594961Y508088D01*
X595174Y508158D01*
X595373Y508246D01*
X595558Y508350D01*
X595730Y508471D01*
X595887Y508609D01*
X596031Y508763D01*
X596159Y508932D01*
X596271Y509112D01*
X596365Y509303D01*
X596442Y509505D01*
X596501Y509718D01*
X596544Y509942D01*
X596570Y510177D01*
X596578Y510423D01*
X596570Y510681D01*
X596543Y510924D01*
X596500Y511153D01*
X596438Y511367D01*
X596359Y511567D01*
X596263Y511752D01*
X596149Y511922D01*
X596018Y512079D01*
X595871Y512218D01*
X595709Y512339D01*
X595533Y512441D01*
X595343Y512525D01*
X595139Y512590D01*
X594921Y512637D01*
X594688Y512665D01*
X594441Y512674D01*
X594075Y512653D01*
X593728Y512588D01*
X593400Y512480D01*
X593093Y512328D01*
X592798Y512142D01*
X592510Y511929D01*
X592229Y511689D01*
X591954Y511422D01*
X591411Y510827D01*
X590868Y510165D01*
X590302Y509465D01*
X589690Y508759D01*
X589363Y508408D01*
X589018Y508066D01*
X588654Y507732D01*
X588271Y507406D01*
X587864Y507096D01*
X587427Y506811D01*
X586960Y506551D01*
X586462Y506315D01*
G37*
G36*
X588415Y484787D02*
X588023Y484871D01*
X587656Y484974D01*
X587314Y485097D01*
X586998Y485240D01*
X586707Y485403D01*
X586441Y485586D01*
X586200Y485789D01*
X585985Y486011D01*
X585795Y486254D01*
X585631Y486516D01*
X585491Y486799D01*
X585377Y487101D01*
X585289Y487423D01*
X585225Y487766D01*
X585188Y488128D01*
X585175Y488510D01*
X585191Y488921D01*
X585239Y489310D01*
X585320Y489677D01*
X585432Y490021D01*
X585577Y490342D01*
X585754Y490641D01*
X585963Y490918D01*
X586204Y491172D01*
X586473Y491400D01*
X586766Y491598D01*
X587084Y491765D01*
X587425Y491901D01*
X587790Y492008D01*
X588179Y492084D01*
X588592Y492129D01*
X589029Y492145D01*
X597691Y492145D01*
X597691Y488107D01*
X596324Y488107D01*
X596324Y490480D01*
X588994Y490480D01*
X588700Y490472D01*
X588426Y490448D01*
X588169Y490406D01*
X587930Y490349D01*
X587710Y490275D01*
X587508Y490185D01*
X587324Y490078D01*
X587159Y489955D01*
X587012Y489817D01*
X586885Y489668D01*
X586777Y489507D01*
X586689Y489333D01*
X586620Y489147D01*
X586572Y488950D01*
X586542Y488740D01*
X586532Y488518D01*
X586541Y488315D01*
X586568Y488120D01*
X586612Y487934D01*
X586675Y487756D01*
X586755Y487588D01*
X586853Y487428D01*
X586968Y487277D01*
X587102Y487135D01*
X587251Y487003D01*
X587414Y486883D01*
X587592Y486776D01*
X587783Y486681D01*
X587988Y486599D01*
X588207Y486529D01*
X588440Y486471D01*
X588687Y486425D01*
X588415Y484787D01*
G37*
D10*
X581550Y497857D02*
X581550Y547357D01*
X68450Y547357D02*
X68450Y497857D01*
X68450Y547357D02*
X581550Y547357D01*
X581550Y497857D02*
X68450Y497857D01*
X60950Y509907D02*
X60952Y509970D01*
X60958Y510032D01*
X60968Y510094D01*
X60981Y510156D01*
X60999Y510216D01*
X61020Y510275D01*
X61045Y510333D01*
X61074Y510389D01*
X61106Y510443D01*
X61141Y510495D01*
X61179Y510544D01*
X61221Y510592D01*
X61265Y510636D01*
X61313Y510678D01*
X61362Y510716D01*
X61414Y510751D01*
X61468Y510783D01*
X61524Y510812D01*
X61582Y510837D01*
X61641Y510858D01*
X61701Y510876D01*
X61763Y510889D01*
X61825Y510899D01*
X61887Y510905D01*
X61950Y510907D01*
X62013Y510905D01*
X62075Y510899D01*
X62137Y510889D01*
X62199Y510876D01*
X62259Y510858D01*
X62318Y510837D01*
X62376Y510812D01*
X62432Y510783D01*
X62486Y510751D01*
X62538Y510716D01*
X62587Y510678D01*
X62635Y510636D01*
X62679Y510592D01*
X62721Y510544D01*
X62759Y510495D01*
X62794Y510443D01*
X62826Y510389D01*
X62855Y510333D01*
X62880Y510275D01*
X62901Y510216D01*
X62919Y510156D01*
X62932Y510094D01*
X62942Y510032D01*
X62948Y509970D01*
X62950Y509907D01*
X62948Y509844D01*
X62942Y509782D01*
X62932Y509720D01*
X62919Y509658D01*
X62901Y509598D01*
X62880Y509539D01*
X62855Y509481D01*
X62826Y509425D01*
X62794Y509371D01*
X62759Y509319D01*
X62721Y509270D01*
X62679Y509222D01*
X62635Y509178D01*
X62587Y509136D01*
X62538Y509098D01*
X62486Y509063D01*
X62432Y509031D01*
X62376Y509002D01*
X62318Y508977D01*
X62259Y508956D01*
X62199Y508938D01*
X62137Y508925D01*
X62075Y508915D01*
X62013Y508909D01*
X61950Y508907D01*
X61887Y508909D01*
X61825Y508915D01*
X61763Y508925D01*
X61701Y508938D01*
X61641Y508956D01*
X61582Y508977D01*
X61524Y509002D01*
X61468Y509031D01*
X61414Y509063D01*
X61362Y509098D01*
X61313Y509136D01*
X61265Y509178D01*
X61221Y509222D01*
X61179Y509270D01*
X61141Y509319D01*
X61106Y509371D01*
X61074Y509425D01*
X61045Y509481D01*
X61020Y509539D01*
X60999Y509598D01*
X60981Y509658D01*
X60968Y509720D01*
X60958Y509782D01*
X60952Y509844D01*
X60950Y509907D01*
M02*
