G04 EAGLE Gerber RS-274X export*
G75*
%MOMM*%
%FSLAX34Y34*%
%LPD*%
%INSoldermask Top*%
%IPPOS*%
%AMOC8*
5,1,8,0,0,1.08239X$1,22.5*%
G01*
G04 Define Apertures*
%ADD10C,2.953200*%
%ADD11R,1.703200X1.443200*%
%ADD12R,1.443200X1.703200*%
%ADD13R,0.553200X1.153200*%
%ADD14R,1.153200X0.553200*%
%ADD15R,3.453200X3.453200*%
%ADD16R,1.733200X1.733200*%
%ADD17C,1.733200*%
%ADD18C,1.711200*%
%ADD19C,0.959600*%
D10*
X35000Y525000D03*
X35000Y35000D03*
X615000Y35000D03*
X615000Y525000D03*
D11*
X364836Y268252D03*
X364836Y287252D03*
X332298Y267780D03*
X332298Y286780D03*
D12*
X350208Y148700D03*
X369208Y148700D03*
D11*
X295248Y213124D03*
X295248Y232124D03*
D13*
X373414Y240175D03*
X366914Y240175D03*
X360414Y240175D03*
X353914Y240175D03*
X347414Y240175D03*
D14*
X337014Y229775D03*
X337014Y223275D03*
X337014Y216775D03*
X337014Y210275D03*
X337014Y203775D03*
D13*
X347414Y193375D03*
X353914Y193375D03*
X360414Y193375D03*
X366914Y193375D03*
X373414Y193375D03*
D14*
X383814Y203775D03*
X383814Y210275D03*
X383814Y216775D03*
X383814Y223275D03*
X383814Y229775D03*
D15*
X360414Y216775D03*
D16*
X83700Y509907D03*
D17*
X83700Y535307D03*
X109100Y509907D03*
X109100Y535307D03*
X134500Y509907D03*
X134500Y535307D03*
X159900Y509907D03*
X159900Y535307D03*
X185300Y509907D03*
X185300Y535307D03*
X210700Y509907D03*
X210700Y535307D03*
X236100Y509907D03*
X236100Y535307D03*
X261500Y509907D03*
X261500Y535307D03*
X286900Y509907D03*
X286900Y535307D03*
X312300Y509907D03*
X312300Y535307D03*
X337700Y509907D03*
X337700Y535307D03*
X363100Y509907D03*
X363100Y535307D03*
X388500Y509907D03*
X388500Y535307D03*
X413900Y509907D03*
X413900Y535307D03*
X439300Y509907D03*
X439300Y535307D03*
X464700Y509907D03*
X464700Y535307D03*
X490100Y509907D03*
X490100Y535307D03*
X515500Y509907D03*
X515500Y535307D03*
X540900Y509907D03*
X540900Y535307D03*
X566300Y509907D03*
X566300Y535307D03*
D18*
X321858Y98766D03*
X346858Y98766D03*
X371858Y98766D03*
D19*
X306200Y285204D03*
X360360Y216305D03*
X403788Y464968D03*
M02*
